STARTFONT 2.3
FONT -FontForge-Source Code Pro-Book-R-Normal--12-120-72-72-M-70-ISO10646-1
SIZE 12 72 72  4
FONTBOUNDINGBOX 14 21 -4 -5
COMMENT "Generated by fontforge, http://fontforge.sourceforge.net"
COMMENT "Copyright 2010, 2012 Adobe Systems Incorporated (http://www.adobe.com/), with Reserved Font Name `Source'."
STARTPROPERTIES 42
FOUNDRY "FontForge"
FAMILY_NAME "Source Code Pro"
WEIGHT_NAME "Book"
SLANT "R"
SETWIDTH_NAME "Normal"
ADD_STYLE_NAME ""
PIXEL_SIZE 12
POINT_SIZE 120
RESOLUTION_X 72
RESOLUTION_Y 72
SPACING "M"
AVERAGE_WIDTH 70
CHARSET_REGISTRY "ISO10646"
CHARSET_ENCODING "1"
FONTNAME_REGISTRY ""
CHARSET_COLLECTIONS "ASCII ISOLatin1Encoding ISO8859-2 ISO8859-9 ISO8859-4 ISO10646-1"
BITS_PER_PIXEL 4
FONT_NAME "SourceCodePro-It"
FACE_NAME "Source Code Pro Italic"
COPYRIGHT "Copyright 2010, 2012 Adobe Systems Incorporated (http://www.adobe.com/), with Reserved Font Name `Source'."
FONT_VERSION "1.050;PS 1.000;hotconv 16.6.51;makeotf.lib2.5.65220"
FONT_ASCENT 9
FONT_DESCENT 3
UNDERLINE_POSITION -1
UNDERLINE_THICKNESS 1
X_HEIGHT 5
CAP_HEIGHT 7
RAW_ASCENT 750
RAW_DESCENT 250
ITALIC_ANGLE 5056
NORM_SPACE 7
RELATIVE_WEIGHT 40
RELATIVE_SETWIDTH 50
SUPERSCRIPT_X 0
SUPERSCRIPT_Y 4
SUPERSCRIPT_SIZE 7
SUBSCRIPT_X 0
SUBSCRIPT_Y 0
SUBSCRIPT_SIZE 7
FIGURE_WIDTH 7
AVG_LOWERCASE_WIDTH 70
AVG_UPPERCASE_WIDTH 70
ENDPROPERTIES
CHARS 1269
STARTCHAR space
ENCODING 32
SWIDTH 600 0
DWIDTH 7 0
BBX 1 1 0 0
BITMAP
00
ENDCHAR
STARTCHAR exclam
ENCODING 33
SWIDTH 600 0
DWIDTH 7 0
BBX 3 8 2 0
BITMAP
02D0
0490
0760
0920
0A00
0000
8B00
A900
ENDCHAR
STARTCHAR quotedbl
ENCODING 34
SWIDTH 600 0
DWIDTH 7 0
BBX 5 4 2 4
BITMAP
8A0C60
B70E30
C21D00
B02900
ENDCHAR
STARTCHAR numbersign
ENCODING 35
SWIDTH 600 0
DWIDTH 7 0
BBX 7 8 0 0
BITMAP
00090720
00270900
07FFFF80
00905400
00909000
2FFFFC00
07227000
09081000
ENDCHAR
STARTCHAR dollar
ENCODING 36
SWIDTH 600 0
DWIDTH 7 0
BBX 7 12 0 -2
BITMAP
0000A000
0000A000
008EE500
03C22A10
03C00000
009D4000
0004D500
00003B00
2B207900
05EFC200
00740000
00910000
ENDCHAR
STARTCHAR percent
ENCODING 37
SWIDTH 600 0
DWIDTH 7 0
BBX 9 8 -1 0
BITMAP
04DD200000
0B27500920
1B1A308400
0AE7042000
00002CE400
0034A34800
0480B17600
29007EA000
ENDCHAR
STARTCHAR ampersand
ENCODING 38
SWIDTH 600 0
DWIDTH 7 0
BBX 7 8 0 0
BITMAP
004DD200
00D38400
00C2A000
00D91040
1BA70570
940C4B10
B606F700
4DEA5C30
ENDCHAR
STARTCHAR quotesingle
ENCODING 39
SWIDTH 600 0
DWIDTH 7 0
BBX 3 4 3 4
BITMAP
3F10
5C00
6800
8300
ENDCHAR
STARTCHAR parenleft
ENCODING 40
SWIDTH 600 0
DWIDTH 7 0
BBX 5 11 2 -2
BITMAP
000670
008900
05A000
0C1000
580000
850000
930000
840000
570000
1C1000
057000
ENDCHAR
STARTCHAR parenright
ENCODING 41
SWIDTH 600 0
DWIDTH 7 0
BBX 5 11 0 -2
BITMAP
005600
000C20
000570
0002A0
0001B0
0003A0
000760
000C10
007700
079000
460000
ENDCHAR
STARTCHAR asterisk
ENCODING 42
SWIDTH 600 0
DWIDTH 7 0
BBX 6 6 1 1
BITMAP
002400
007400
7BCAB2
06F900
0C8900
640A10
ENDCHAR
STARTCHAR plus
ENCODING 43
SWIDTH 600 0
DWIDTH 7 0
BBX 6 7 1 0
BITMAP
004000
00B000
00B000
EFFFF2
00B000
00B000
004000
ENDCHAR
STARTCHAR comma
ENCODING 44
SWIDTH 600 0
DWIDTH 7 0
BBX 4 5 1 -3
BITMAP
08D0
09F1
02C0
2C50
A500
ENDCHAR
STARTCHAR hyphen
ENCODING 45
SWIDTH 600 0
DWIDTH 7 0
BBX 6 1 1 3
BITMAP
EFFFF2
ENDCHAR
STARTCHAR period
ENCODING 46
SWIDTH 600 0
DWIDTH 7 0
BBX 2 2 2 0
BITMAP
9B
BA
ENDCHAR
STARTCHAR slash
ENCODING 47
SWIDTH 600 0
DWIDTH 7 0
BBX 7 10 0 -1
BITMAP
000002A0
00000B20
00005800
0001C100
00085000
003A0000
00B20000
05800000
1C100000
85000000
ENDCHAR
STARTCHAR zero
ENCODING 48
SWIDTH 600 0
DWIDTH 7 0
BBX 7 8 0 0
BITMAP
005DE700
04D21C30
0C300670
1C0C3670
490D2850
4A001D10
1D31A800
05DE8000
ENDCHAR
STARTCHAR one
ENCODING 49
SWIDTH 600 0
DWIDTH 7 0
BBX 6 8 0 0
BITMAP
005AE1
0024D0
0004A0
000770
000A40
000D10
001D00
7FFFFB
ENDCHAR
STARTCHAR two
ENCODING 50
SWIDTH 600 0
DWIDTH 7 0
BBX 6 8 0 0
BITMAP
007EE5
05813E
00000D
000067
0004A0
005A00
088000
7FFFFD
ENDCHAR
STARTCHAR three
ENCODING 51
SWIDTH 600 0
DWIDTH 7 0
BBX 7 8 0 0
BITMAP
007EE900
02712D20
00015C00
007FB100
00029800
00003B00
5811A800
08EE9100
ENDCHAR
STARTCHAR four
ENCODING 52
SWIDTH 600 0
DWIDTH 7 0
BBX 7 8 0 0
BITMAP
00004F10
0004AD00
003B3B00
03B15800
2B108500
AFFFFF50
0000D000
0001C000
ENDCHAR
STARTCHAR five
ENCODING 53
SWIDTH 600 0
DWIDTH 7 0
BBX 7 8 0 0
BITMAP
00DFFF60
01C00000
05800000
08DED500
01105D00
00000D00
77119800
08EE8000
ENDCHAR
STARTCHAR six
ENCODING 54
SWIDTH 600 0
DWIDTH 7 0
BBX 7 8 0 0
BITMAP
003BEC20
03D51450
0B500000
1D7EE600
3F713E00
2A000C00
0D317A00
03CEA100
ENDCHAR
STARTCHAR seven
ENCODING 55
SWIDTH 600 0
DWIDTH 7 0
BBX 6 8 1 0
BITMAP
8FFFFD
0000A3
000A40
005900
00D100
069000
0B4000
1E0000
ENDCHAR
STARTCHAR eight
ENCODING 56
SWIDTH 600 0
DWIDTH 7 0
BBX 7 8 0 0
BITMAP
007DE900
01D21A40
00800850
03DB8D10
1D63B300
3A001A00
2D216C00
06DEB300
ENDCHAR
STARTCHAR nine
ENCODING 57
SWIDTH 600 0
DWIDTH 7 0
BBX 7 8 0 0
BITMAP
008ED600
07912D20
0C100760
0C515D60
04DE9B40
00002D00
3613D500
0AFD5000
ENDCHAR
STARTCHAR colon
ENCODING 58
SWIDTH 600 0
DWIDTH 7 0
BBX 3 6 2 0
BITMAP
0B90
0D70
0000
0000
9B00
BA00
ENDCHAR
STARTCHAR semicolon
ENCODING 59
SWIDTH 600 0
DWIDTH 7 0
BBX 4 9 1 -3
BITMAP
00B9
00D7
0000
0000
08D0
09F1
02C0
2C50
A500
ENDCHAR
STARTCHAR less
ENCODING 60
SWIDTH 600 0
DWIDTH 7 0
BBX 5 7 1 0
BITMAP
0002A0
006D40
1BA100
890000
1B9100
006C40
0002A0
ENDCHAR
STARTCHAR equal
ENCODING 61
SWIDTH 600 0
DWIDTH 7 0
BBX 6 3 1 2
BITMAP
EFFFF2
000000
EFFFF2
ENDCHAR
STARTCHAR greater
ENCODING 62
SWIDTH 600 0
DWIDTH 7 0
BBX 5 7 1 0
BITMAP
830000
3C8000
008C30
0006B0
008C30
3C8000
830000
ENDCHAR
STARTCHAR question
ENCODING 63
SWIDTH 600 0
DWIDTH 7 0
BBX 5 8 2 0
BITMAP
2CEB00
831C30
002A00
068000
2A0000
000000
B70000
D60000
ENDCHAR
STARTCHAR at
ENCODING 64
SWIDTH 600 0
DWIDTH 7 0
BBX 7 10 0 -2
BITMAP
003BED30
03D513B0
0C2000A0
4803ADA0
833B4570
A1762C50
A13EC920
85000000
2D315100
05DE9000
ENDCHAR
STARTCHAR A
ENCODING 65
SWIDTH 600 0
DWIDTH 7 0
BBX 7 8 -1 0
BITMAP
00004F20
0000B940
00058750
000C2670
00690490
01EFFFB0
07A001D0
1D2000E0
ENDCHAR
STARTCHAR B
ENCODING 66
SWIDTH 600 0
DWIDTH 7 0
BBX 7 8 0 0
BITMAP
01FFEB10
03B01970
06700A50
09DCE600
0C436C10
0D000B30
3A015D00
6FFEB300
ENDCHAR
STARTCHAR C
ENCODING 67
SWIDTH 600 0
DWIDTH 7 0
BBX 7 8 0 0
BITMAP
0019ED40
01D81380
07900000
0D200000
1E000000
0E000000
0B912700
02BED400
ENDCHAR
STARTCHAR D
ENCODING 68
SWIDTH 600 0
DWIDTH 7 0
BBX 7 8 0 0
BITMAP
04FFD600
07804D40
0A400690
0D1005A0
1D000780
4A000D30
7703C900
AFFD7000
ENDCHAR
STARTCHAR E
ENCODING 69
SWIDTH 600 0
DWIDTH 7 0
BBX 8 8 0 0
BITMAP
00CFFFF1
00E00000
03A00000
06FFFB00
09500000
0C200000
0D000000
3FFFFB00
ENDCHAR
STARTCHAR F
ENCODING 70
SWIDTH 600 0
DWIDTH 7 0
BBX 7 8 1 0
BITMAP
09FFFF30
0C200000
0D000000
3FFFD000
58000000
85000000
B2000000
E0000000
ENDCHAR
STARTCHAR G
ENCODING 71
SWIDTH 600 0
DWIDTH 7 0
BBX 7 8 0 0
BITMAP
002BED30
02E61470
0A600000
1E000000
4B01FF60
3C000930
0D612D00
03CED600
ENDCHAR
STARTCHAR H
ENCODING 72
SWIDTH 600 0
DWIDTH 7 0
BBX 7 8 0 0
BITMAP
059000E0
086003C0
0B200790
0EFFFF60
1C000C30
49000E00
76003C00
A4005900
ENDCHAR
STARTCHAR I
ENCODING 73
SWIDTH 600 0
DWIDTH 7 0
BBX 7 8 0 0
BITMAP
01FFFFC0
00059000
00086000
000B3000
000E0000
002C0000
00580000
7FFFF500
ENDCHAR
STARTCHAR J
ENCODING 74
SWIDTH 600 0
DWIDTH 7 0
BBX 7 8 0 0
BITMAP
00CFFF60
00000B30
00000D00
00002C00
00005900
00009500
7604D100
1BEC4000
ENDCHAR
STARTCHAR K
ENCODING 75
SWIDTH 600 0
DWIDTH 7 0
BBX 8 8 0 0
BITMAP
01D003B1
03B03B10
0683B100
098E5000
0CC6B000
0E10D200
3B007900
68001E10
ENDCHAR
STARTCHAR L
ENCODING 76
SWIDTH 600 0
DWIDTH 7 0
BBX 6 8 1 0
BITMAP
059000
086000
0B3000
0D0000
2C0000
590000
860000
BFFFF2
ENDCHAR
STARTCHAR M
ENCODING 77
SWIDTH 600 0
DWIDTH 7 0
BBX 7 8 0 0
BITMAP
05E005E0
08D10BB0
0BA36990
0D65B760
2B4C5A30
582B0D00
85001C00
B2004900
ENDCHAR
STARTCHAR N
ENCODING 78
SWIDTH 600 0
DWIDTH 7 0
BBX 7 8 0 0
BITMAP
03E000D0
06C403B0
09690580
0C1C0850
0D093B20
3A048D00
6700CB00
9400A800
ENDCHAR
STARTCHAR O
ENCODING 79
SWIDTH 600 0
DWIDTH 7 0
BBX 7 8 0 0
BITMAP
006DE900
06C21A70
1D2003B0
5A0003B0
77000690
78000C30
3D219B00
06DE9100
ENDCHAR
STARTCHAR P
ENCODING 80
SWIDTH 600 0
DWIDTH 7 0
BBX 7 8 0 0
BITMAP
00DFFC30
01D006B0
04A002C0
07702A70
0AFFD700
0D100000
1D000000
4A000000
ENDCHAR
STARTCHAR Q
ENCODING 81
SWIDTH 600 0
DWIDTH 7 0
BBX 7 10 0 -2
BITMAP
006DE900
06C21A70
0D2003B0
5A0003B0
77000690
78000C40
3D219B00
07EFA100
005B1100
0009ED00
ENDCHAR
STARTCHAR R
ENCODING 82
SWIDTH 600 0
DWIDTH 7 0
BBX 7 8 0 0
BITMAP
02FFEB10
05A01A70
08700680
0B403D30
0DFFC400
1E078000
4A01D100
77009700
ENDCHAR
STARTCHAR S
ENCODING 83
SWIDTH 600 0
DWIDTH 7 0
BBX 7 8 0 0
BITMAP
006DE800
02D21930
03C00000
009C4000
0004D500
00003B00
4A219900
07EEA100
ENDCHAR
STARTCHAR T
ENCODING 84
SWIDTH 600 0
DWIDTH 7 0
BBX 7 8 1 0
BITMAP
BFFFFF60
00590000
00860000
00B30000
00D00000
02C00000
05900000
08600000
ENDCHAR
STARTCHAR U
ENCODING 85
SWIDTH 600 0
DWIDTH 7 0
BBX 7 8 0 0
BITMAP
059000E0
086002B0
0B300680
0D000950
1C000C20
3B001E00
1E31A800
06EE9000
ENDCHAR
STARTCHAR V
ENCODING 86
SWIDTH 600 0
DWIDTH 7 0
BBX 7 8 1 0
BITMAP
77000A50
68003C00
4900A400
3B03B000
1C0B3000
0D3A0000
0DA30000
0C900000
ENDCHAR
STARTCHAR W
ENCODING 87
SWIDTH 600 0
DWIDTH 7 0
BBX 8 8 0 0
BITMAP
0D000058
0D0000A4
0C0750D0
1B1C7390
2A678850
39B19C10
4C70BA00
5E10E600
ENDCHAR
STARTCHAR X
ENCODING 88
SWIDTH 600 0
DWIDTH 7 0
BBX 7 8 0 0
BITMAP
04B003C0
00D21C20
0078A500
001E8000
007D7000
03C2C000
1C20B400
A5005A00
ENDCHAR
STARTCHAR Y
ENCODING 89
SWIDTH 600 0
DWIDTH 7 0
BBX 7 8 1 0
BITMAP
86000C30
4B008800
0D13C000
0A5C3000
05D80000
02D00000
04A00000
08600000
ENDCHAR
STARTCHAR Z
ENCODING 90
SWIDTH 600 0
DWIDTH 7 0
BBX 7 8 0 0
BITMAP
06FFFFE0
00000B50
0000A700
00089000
005B0000
04C10000
2C200000
BFFFFD00
ENDCHAR
STARTCHAR bracketleft
ENCODING 91
SWIDTH 600 0
DWIDTH 7 0
BBX 6 11 1 -2
BITMAP
008FFC
00A100
00C000
01A000
047000
074000
091000
0A0000
0A0000
370000
6FFD00
ENDCHAR
STARTCHAR backslash
ENCODING 92
SWIDTH 600 0
DWIDTH 7 0
BBX 3 10 2 -1
BITMAP
9200
6500
4800
1A00
0B00
0A10
0840
0560
0290
00B0
ENDCHAR
STARTCHAR bracketright
ENCODING 93
SWIDTH 600 0
DWIDTH 7 0
BBX 6 11 0 -2
BITMAP
00CFF6
000063
000091
0000A0
0001A0
000470
000740
000A10
000B00
001B00
CFF800
ENDCHAR
STARTCHAR asciicircum
ENCODING 94
SWIDTH 600 0
DWIDTH 7 0
BBX 5 5 1 3
BITMAP
01E300
059800
0B1B00
2A0740
7502A0
ENDCHAR
STARTCHAR underscore
ENCODING 95
SWIDTH 600 0
DWIDTH 7 0
BBX 7 1 -1 -2
BITMAP
4FFFFF80
ENDCHAR
STARTCHAR grave
ENCODING 96
SWIDTH 600 0
DWIDTH 7 0
BBX 3 3 3 7
BITMAP
9200
5A00
0910
ENDCHAR
STARTCHAR a
ENCODING 97
SWIDTH 600 0
DWIDTH 7 0
BBX 7 6 0 0
BITMAP
009ED780
0A922D50
2D000B20
59000E00
4D12AB00
09EC7900
ENDCHAR
STARTCHAR b
ENCODING 98
SWIDTH 600 0
DWIDTH 7 0
BBX 7 9 0 0
BITMAP
00E00000
02C00000
05900000
088BEA00
0BB31C50
0D100860
1C000B30
4D318B00
78CEA100
ENDCHAR
STARTCHAR c
ENCODING 99
SWIDTH 600 0
DWIDTH 7 0
BBX 7 6 0 0
BITMAP
006DEA00
08B21730
1E100000
2C000000
0E513700
04CFB200
ENDCHAR
STARTCHAR d
ENCODING 100
SWIDTH 600 0
DWIDTH 7 0
BBX 8 9 0 0
BITMAP
000000C2
000000D0
000003B0
009ED980
0A922D50
2D000B20
59000E00
4D12AB00
09EC7800
ENDCHAR
STARTCHAR e
ENCODING 101
SWIDTH 600 0
DWIDTH 7 0
BBX 7 6 0 0
BITMAP
008EE800
08711B30
1FFFFF40
3B000000
1E414600
05DEA200
ENDCHAR
STARTCHAR f
ENCODING 102
SWIDTH 600 0
DWIDTH 7 0
BBX 7 9 1 0
BITMAP
0009ED30
006B1220
00A40000
8FFFF800
01D00000
04A00000
07700000
0A400000
0D100000
ENDCHAR
STARTCHAR g
ENCODING 103
SWIDTH 600 0
DWIDTH 7 0
BBX 7 8 0 -2
BITMAP
019ED880
0A912D50
2C000B20
5A002D00
2E89DA00
03757700
5303D200
4DFC5000
ENDCHAR
STARTCHAR h
ENCODING 104
SWIDTH 600 0
DWIDTH 7 0
BBX 7 9 0 0
BITMAP
00E00000
02C00000
05900000
0879ED10
0BC41B50
0D200A30
1D000D10
4A001C00
77004900
ENDCHAR
STARTCHAR i
ENCODING 105
SWIDTH 600 0
DWIDTH 7 0
BBX 5 8 1 0
BITMAP
005B00
000000
AFF500
00B200
00C000
03A000
05A120
02DE70
ENDCHAR
STARTCHAR j
ENCODING 106
SWIDTH 600 0
DWIDTH 7 0
BBX 7 10 -1 -2
BITMAP
00000790
00000000
005FFF30
00000C00
00001C00
00005900
00008600
0000C200
0315D000
1BEC3000
ENDCHAR
STARTCHAR k
ENCODING 107
SWIDTH 600 0
DWIDTH 7 0
BBX 7 9 0 0
BITMAP
00C20000
00E00000
03B00000
06801A70
0852B400
0B6D7000
0EB3C000
2D009500
59002C00
ENDCHAR
STARTCHAR l
ENCODING 108
SWIDTH 600 0
DWIDTH 7 0
BBX 5 9 1 0
BITMAP
4FF900
007600
00A300
00D000
01B000
058000
085000
096110
04EE40
ENDCHAR
STARTCHAR m
ENCODING 109
SWIDTH 600 0
DWIDTH 7 0
BBX 7 6 0 0
BITMAP
0CAE7D90
2E4AA4C0
590B2590
860D0860
B33B0B30
D0670D00
ENDCHAR
STARTCHAR n
ENCODING 110
SWIDTH 600 0
DWIDTH 7 0
BBX 7 6 0 0
BITMAP
0859ED10
0AC41B50
0D200A30
1D000D10
4A001C00
77004900
ENDCHAR
STARTCHAR o
ENCODING 111
SWIDTH 600 0
DWIDTH 7 0
BBX 7 6 0 0
BITMAP
019ED600
0B813D20
4B000950
68000C30
3D219A00
07EE9100
ENDCHAR
STARTCHAR p
ENCODING 112
SWIDTH 600 0
DWIDTH 7 0
BBX 7 8 0 -2
BITMAP
087BEA00
0BB21C50
0E100860
2C000B30
5D318C00
89CEA100
B3000000
E0000000
ENDCHAR
STARTCHAR q
ENCODING 113
SWIDTH 600 0
DWIDTH 7 0
BBX 7 8 0 -2
BITMAP
009ED780
0A922D50
2D000B20
59000D00
4D12AB00
09EC8800
00009400
0000C100
ENDCHAR
STARTCHAR r
ENCODING 114
SWIDTH 600 0
DWIDTH 7 0
BBX 6 6 1 0
BITMAP
0B2BE7
0DA311
2D1000
580000
850000
B30000
ENDCHAR
STARTCHAR s
ENCODING 115
SWIDTH 600 0
DWIDTH 7 0
BBX 6 6 0 0
BITMAP
01BED5
069139
02C820
0015B6
2A3169
06DFC2
ENDCHAR
STARTCHAR t
ENCODING 116
SWIDTH 600 0
DWIDTH 7 0
BBX 7 8 0 0
BITMAP
000C0000
002B0000
1EFFFF70
00860000
00B20000
00D00000
01E21300
009ED500
ENDCHAR
STARTCHAR u
ENCODING 117
SWIDTH 600 0
DWIDTH 7 0
BBX 7 6 0 0
BITMAP
09500770
0C100A50
0D000D20
3A002E00
5C14CB00
1DE95800
ENDCHAR
STARTCHAR v
ENCODING 118
SWIDTH 600 0
DWIDTH 7 0
BBX 6 6 1 0
BITMAP
D1004A
9400C2
670680
3A1C10
0C8500
0BA000
ENDCHAR
STARTCHAR w
ENCODING 119
SWIDTH 600 0
DWIDTH 7 0
BBX 8 6 0 0
BITMAP
77074094
671D71C0
67687670
57B38B10
5B83BA00
5F22F400
ENDCHAR
STARTCHAR x
ENCODING 120
SWIDTH 600 0
DWIDTH 7 0
BBX 7 6 0 0
BITMAP
05A01C30
00C2A400
004D6000
009C4000
0872C000
69009500
ENDCHAR
STARTCHAR y
ENCODING 121
SWIDTH 600 0
DWIDTH 7 0
BBX 8 8 -1 -2
BITMAP
00C1004A
009501C1
00580860
001C2B00
000CA200
00097000
005B0000
5EB10000
ENDCHAR
STARTCHAR z
ENCODING 122
SWIDTH 600 0
DWIDTH 7 0
BBX 7 6 0 0
BITMAP
08FFFF50
00007900
00088000
00A60000
1A500000
8FFFFA00
ENDCHAR
STARTCHAR braceleft
ENCODING 123
SWIDTH 600 0
DWIDTH 7 0
BBX 6 11 1 -2
BITMAP
0009EE
002C10
005600
008400
02C100
9F5000
059000
037000
073000
0A3000
07FF00
ENDCHAR
STARTCHAR bar
ENCODING 124
SWIDTH 600 0
DWIDTH 7 0
BBX 1 12 3 -3
BITMAP
C0
C0
C0
C0
C0
C0
C0
C0
C0
C0
C0
C0
ENDCHAR
STARTCHAR braceright
ENCODING 125
SWIDTH 600 0
DWIDTH 7 0
BBX 6 11 0 -2
BITMAP
00DF80
0002B0
000180
000540
000760
0004FA
000C30
002900
005700
01B400
DFA000
ENDCHAR
STARTCHAR asciitilde
ENCODING 126
SWIDTH 600 0
DWIDTH 7 0
BBX 6 2 1 3
BITMAP
6E9192
A18E90
ENDCHAR
STARTCHAR uni00A0
ENCODING 160
SWIDTH 600 0
DWIDTH 7 0
BBX 1 1 0 0
BITMAP
00
ENDCHAR
STARTCHAR exclamdown
ENCODING 161
SWIDTH 600 0
DWIDTH 7 0
BBX 3 8 2 -2
BITMAP
0B80
0C70
0000
0A00
3800
7500
B300
E000
ENDCHAR
STARTCHAR cent
ENCODING 162
SWIDTH 600 0
DWIDTH 7 0
BBX 5 8 1 0
BITMAP
000900
04CFA0
3D4840
954500
C27100
A79340
2CFB20
027000
ENDCHAR
STARTCHAR sterling
ENCODING 163
SWIDTH 600 0
DWIDTH 7 0
BBX 7 8 0 0
BITMAP
001AEB10
00981550
00C10000
00C10000
1EFFF500
00B20000
05700000
9FFFF800
ENDCHAR
STARTCHAR currency
ENCODING 164
SWIDTH 600 0
DWIDTH 7 0
BBX 7 7 0 0
BITMAP
05100050
05CDEB60
05B23D00
0A300D00
0A618900
3BDEB900
41000600
ENDCHAR
STARTCHAR yen
ENCODING 165
SWIDTH 600 0
DWIDTH 7 0
BBX 8 8 0 0
BITMAP
059001C1
00C00A30
00936700
00499000
1FFFFF40
000D0000
5FFFFF00
00680000
ENDCHAR
STARTCHAR brokenbar
ENCODING 166
SWIDTH 600 0
DWIDTH 7 0
BBX 1 12 3 -3
BITMAP
C0
C0
C0
C0
C0
30
30
C0
C0
C0
C0
C0
ENDCHAR
STARTCHAR section
ENCODING 167
SWIDTH 600 0
DWIDTH 7 0
BBX 6 9 0 -1
BITMAP
003DE5
007717
03D900
0A6491
07401A
00763D
0004E5
1814B0
06ED50
ENDCHAR
STARTCHAR dieresis
ENCODING 168
SWIDTH 600 0
DWIDTH 7 0
BBX 4 1 2 7
BITMAP
3A0C
ENDCHAR
STARTCHAR copyright
ENCODING 169
SWIDTH 600 0
DWIDTH 7 0
BBX 7 8 0 0
BITMAP
007DEB10
08921690
283CE290
81C32280
82B13090
90BE6560
59117B00
08EE9100
ENDCHAR
STARTCHAR ordfeminine
ENCODING 170
SWIDTH 600 0
DWIDTH 7 0
BBX 5 5 2 4
BITMAP
1AEB10
871B00
B00A00
C25800
7E7300
ENDCHAR
STARTCHAR guillemotleft
ENCODING 171
SWIDTH 600 0
DWIDTH 7 0
BBX 7 5 0 1
BITMAP
00550820
0690A600
1E05A000
0B31C100
02805500
ENDCHAR
STARTCHAR logicalnot
ENCODING 172
SWIDTH 600 0
DWIDTH 7 0
BBX 6 3 1 1
BITMAP
EFFFF2
000092
000092
ENDCHAR
STARTCHAR uni00AD
ENCODING 173
SWIDTH 600 0
DWIDTH 7 0
BBX 6 1 1 3
BITMAP
EFFFF2
ENDCHAR
STARTCHAR registered
ENCODING 174
SWIDTH 600 0
DWIDTH 7 0
BBX 6 5 1 4
BITMAP
01AEB1
094156
16CF26
1912A2
07ED50
ENDCHAR
STARTCHAR macron
ENCODING 175
SWIDTH 600 0
DWIDTH 7 0
BBX 4 1 2 7
BITMAP
3FFD
ENDCHAR
STARTCHAR degree
ENCODING 176
SWIDTH 600 0
DWIDTH 7 0
BBX 4 3 2 5
BITMAP
0AE6
4729
2DD3
ENDCHAR
STARTCHAR plusminus
ENCODING 177
SWIDTH 600 0
DWIDTH 7 0
BBX 6 7 1 0
BITMAP
00B000
00B000
EFFFF2
00B000
00B000
000000
EFFFF2
ENDCHAR
STARTCHAR two.sups
ENCODING 178
SWIDTH 600 0
DWIDTH 7 0
BBX 4 5 2 5
BITMAP
08E7
052A
0063
1830
BFF5
ENDCHAR
STARTCHAR three.sups
ENCODING 179
SWIDTH 600 0
DWIDTH 7 0
BBX 4 5 2 5
BITMAP
09E7
034A
07E2
6276
3ED2
ENDCHAR
STARTCHAR acute
ENCODING 180
SWIDTH 600 0
DWIDTH 7 0
BBX 3 2 3 7
BITMAP
03A0
3910
ENDCHAR
STARTCHAR uni00B5
ENCODING 181
SWIDTH 600 0
DWIDTH 7 0
BBX 8 8 -1 -2
BITMAP
00940077
00C100A3
00D000D1
03A002C0
06B14C90
09CEA3F0
0C100000
1D000000
ENDCHAR
STARTCHAR paragraph
ENCODING 182
SWIDTH 600 0
DWIDTH 7 0
BBX 6 9 1 -1
BITMAP
07DD77
7FFAA4
DFF7D1
CFF5D0
4DF5A0
002770
000A40
000D10
001D00
ENDCHAR
STARTCHAR periodcentered
ENCODING 183
SWIDTH 600 0
DWIDTH 7 0
BBX 3 2 2 3
BITMAP
3E40
4E20
ENDCHAR
STARTCHAR cedilla
ENCODING 184
SWIDTH 600 0
DWIDTH 7 0
BBX 3 4 1 -4
BITMAP
0810
0E40
0950
BA00
ENDCHAR
STARTCHAR one.sups
ENCODING 185
SWIDTH 600 0
DWIDTH 7 0
BBX 4 5 2 5
BITMAP
08D2
00B0
00A0
0370
DFFB
ENDCHAR
STARTCHAR ordmasculine
ENCODING 186
SWIDTH 600 0
DWIDTH 7 0
BBX 4 5 2 4
BITMAP
09E8
781D
A00B
B24B
4EC2
ENDCHAR
STARTCHAR guillemotright
ENCODING 187
SWIDTH 600 0
DWIDTH 7 0
BBX 6 5 0 1
BITMAP
082090
03B077
00D12D
0961B4
550730
ENDCHAR
STARTCHAR onequarter
ENCODING 188
SWIDTH 600 0
DWIDTH 7 0
BBX 9 8 -1 0
BITMAP
03C6000000
0073000920
00A1008400
00B0042000
0000054000
0034459000
0480DFF500
2900009000
ENDCHAR
STARTCHAR onehalf
ENCODING 189
SWIDTH 600 0
DWIDTH 7 0
BBX 9 8 -1 0
BITMAP
03C6000000
0073000920
00A1008400
00B0042000
00001BD200
0034238100
0480163000
2900BFF300
ENDCHAR
STARTCHAR threequarters
ENCODING 190
SWIDTH 600 0
DWIDTH 7 0
BBX 9 8 -1 0
BITMAP
02DC000000
022B000920
04D7008400
08E8042000
0000054000
0034459000
0480DFF500
2900009000
ENDCHAR
STARTCHAR questiondown
ENCODING 191
SWIDTH 600 0
DWIDTH 7 0
BBX 5 8 0 -2
BITMAP
0008B0
0009A0
000000
000B10
019500
1A2000
4B1470
1CFB10
ENDCHAR
STARTCHAR Agrave
ENCODING 192
SWIDTH 600 0
DWIDTH 7 0
BBX 7 10 -1 0
BITMAP
00007500
00001A20
00004F20
0000B940
00058750
000C2670
00690490
01EFFFB0
07A001D0
1D2000E0
ENDCHAR
STARTCHAR Aacute
ENCODING 193
SWIDTH 600 0
DWIDTH 7 0
BBX 8 10 -1 0
BITMAP
000001A2
00000A40
00004F20
0000B940
00058750
000C2670
00690490
01EFFFB0
07A001D0
1D2000E0
ENDCHAR
STARTCHAR Acircumflex
ENCODING 194
SWIDTH 600 0
DWIDTH 7 0
BBX 8 10 -1 0
BITMAP
00003CA0
00019173
00004F20
0000B940
00058750
000C2670
00690490
01EFFFB0
07A001D0
1D2000E0
ENDCHAR
STARTCHAR Atilde
ENCODING 195
SWIDTH 600 0
DWIDTH 7 0
BBX 8 11 -1 0
BITMAP
00001000
0001DD2A
000546E5
00004F20
0000B940
00058750
000C2670
00690490
01EFFFB0
07A001D0
1D2000E0
ENDCHAR
STARTCHAR Adieresis
ENCODING 196
SWIDTH 600 0
DWIDTH 7 0
BBX 8 10 -1 0
BITMAP
0000B083
00000000
00004F20
0000B940
00058750
000C2670
00690490
01EFFFB0
07A001D0
1D2000E0
ENDCHAR
STARTCHAR Aring
ENCODING 197
SWIDTH 600 0
DWIDTH 7 0
BBX 7 11 -1 0
BITMAP
00001DA0
000055A0
00003E70
00004F20
0000B940
00058750
000C2670
00690490
01EFFFB0
07A001D0
1D2000E0
ENDCHAR
STARTCHAR AE
ENCODING 198
SWIDTH 600 0
DWIDTH 7 0
BBX 9 8 -1 0
BITMAP
00004FFFB0
0000CB3000
00077B0000
002C1FF900
00A5390000
04FFF60000
0C40930000
7900CFF600
ENDCHAR
STARTCHAR Ccedilla
ENCODING 199
SWIDTH 600 0
DWIDTH 7 0
BBX 7 12 0 -4
BITMAP
0019ED40
01D81380
07900000
0D200000
1E000000
0E000000
0B912700
02BED400
00080000
005D0000
001D0000
01D60000
ENDCHAR
STARTCHAR Egrave
ENCODING 200
SWIDTH 600 0
DWIDTH 7 0
BBX 8 10 0 0
BITMAP
0002A000
00005700
00CFFFF1
00E00000
03A00000
06FFFB00
09500000
0C200000
0D000000
3FFFFB00
ENDCHAR
STARTCHAR Eacute
ENCODING 201
SWIDTH 600 0
DWIDTH 7 0
BBX 8 10 0 0
BITMAP
00000670
00006800
00CFFFF1
00E00000
03A00000
06FFFB00
09500000
0C200000
0D000000
3FFFFB00
ENDCHAR
STARTCHAR Ecircumflex
ENCODING 202
SWIDTH 600 0
DWIDTH 7 0
BBX 8 10 0 0
BITMAP
0001BD20
00083280
00CFFFF1
00E00000
03A00000
06FFFB00
09500000
0C200000
0D000000
3FFFFB00
ENDCHAR
STARTCHAR Edieresis
ENCODING 203
SWIDTH 600 0
DWIDTH 7 0
BBX 8 10 0 0
BITMAP
00065390
00000000
00CFFFF1
00E00000
03A00000
06FFFB00
09500000
0C200000
0D000000
3FFFFB00
ENDCHAR
STARTCHAR Igrave
ENCODING 204
SWIDTH 600 0
DWIDTH 7 0
BBX 7 10 0 0
BITMAP
00075000
0001A200
01FFFFC0
00059000
00086000
000B3000
000E0000
002C0000
00580000
7FFFF500
ENDCHAR
STARTCHAR Iacute
ENCODING 205
SWIDTH 600 0
DWIDTH 7 0
BBX 7 10 0 0
BITMAP
00001A20
0000A400
01FFFFC0
00059000
00086000
000B3000
000E0000
002C0000
00580000
7FFFF500
ENDCHAR
STARTCHAR Icircumflex
ENCODING 206
SWIDTH 600 0
DWIDTH 7 0
BBX 7 10 0 0
BITMAP
0003CA00
00191730
01FFFFC0
00059000
00086000
000B3000
000E0000
002C0000
00580000
7FFFF500
ENDCHAR
STARTCHAR Idieresis
ENCODING 207
SWIDTH 600 0
DWIDTH 7 0
BBX 7 10 0 0
BITMAP
000B0830
00000000
01FFFFC0
00059000
00086000
000B3000
000E0000
002C0000
00580000
7FFFF500
ENDCHAR
STARTCHAR Eth
ENCODING 208
SWIDTH 600 0
DWIDTH 7 0
BBX 7 8 0 0
BITMAP
01FFD800
05A03C70
086003B0
9FFE02C0
0D1004B0
1D000B60
4A02AC00
7FFD8100
ENDCHAR
STARTCHAR Ntilde
ENCODING 209
SWIDTH 600 0
DWIDTH 7 0
BBX 7 11 0 0
BITMAP
00010000
001DD2A0
00546E50
03E000D0
06C403B0
09690580
0C1C0850
0D093B20
3A048D00
6700CB00
9400A800
ENDCHAR
STARTCHAR Ograve
ENCODING 210
SWIDTH 600 0
DWIDTH 7 0
BBX 7 10 0 0
BITMAP
00075000
0001A200
006DE900
06C21A70
1D2003B0
5A0003B0
77000690
78000C30
3D219B00
06DE9100
ENDCHAR
STARTCHAR Oacute
ENCODING 211
SWIDTH 600 0
DWIDTH 7 0
BBX 7 10 0 0
BITMAP
00001A20
0000A400
006DE900
06C21A70
1D2003B0
5A0003B0
77000690
78000C30
3D219B00
06DE9100
ENDCHAR
STARTCHAR Ocircumflex
ENCODING 212
SWIDTH 600 0
DWIDTH 7 0
BBX 7 10 0 0
BITMAP
0003CA00
00191730
006DE900
06C21A70
1D2003B0
5A0003B0
77000690
78000C30
3D219B00
06DE9100
ENDCHAR
STARTCHAR Otilde
ENCODING 213
SWIDTH 600 0
DWIDTH 7 0
BBX 7 11 0 0
BITMAP
00010000
001DD2A0
00546E50
006DE900
06C21A70
1D2003B0
5A0003B0
77000690
78000C30
3D219B00
06DE9100
ENDCHAR
STARTCHAR Odieresis
ENCODING 214
SWIDTH 600 0
DWIDTH 7 0
BBX 7 10 0 0
BITMAP
000B0830
00000000
006DE900
06C21A70
1D2003B0
5A0003B0
77000690
78000C30
3D219B00
06DE9100
ENDCHAR
STARTCHAR multiply
ENCODING 215
SWIDTH 600 0
DWIDTH 7 0
BBX 5 5 1 1
BITMAP
730290
1B4B20
02F500
1B4B20
730290
ENDCHAR
STARTCHAR Oslash
ENCODING 216
SWIDTH 600 0
DWIDTH 7 0
BBX 8 10 0 -1
BITMAP
00000010
006DE9B3
06C21C90
1D208AB0
5A0693B0
774A0690
7AB10C30
4F319B00
C8EE9100
10000000
ENDCHAR
STARTCHAR Ugrave
ENCODING 217
SWIDTH 600 0
DWIDTH 7 0
BBX 7 10 0 0
BITMAP
00075000
0001A200
059000E0
086002B0
0B300680
0D000950
1C000C20
3B001E00
1E31A800
06EE9000
ENDCHAR
STARTCHAR Uacute
ENCODING 218
SWIDTH 600 0
DWIDTH 7 0
BBX 7 10 0 0
BITMAP
00001A20
0000A400
059000E0
086002B0
0B300680
0D000950
1C000C20
3B001E00
1E31A800
06EE9000
ENDCHAR
STARTCHAR Ucircumflex
ENCODING 219
SWIDTH 600 0
DWIDTH 7 0
BBX 7 10 0 0
BITMAP
0003CA00
00191730
059000E0
086002B0
0B300680
0D000950
1C000C20
3B001E00
1E31A800
06EE9000
ENDCHAR
STARTCHAR Udieresis
ENCODING 220
SWIDTH 600 0
DWIDTH 7 0
BBX 7 10 0 0
BITMAP
000B0830
00000000
059000E0
086002B0
0B300680
0D000950
1C000C20
3B001E00
1E31A800
06EE9000
ENDCHAR
STARTCHAR Yacute
ENCODING 221
SWIDTH 600 0
DWIDTH 7 0
BBX 7 10 1 0
BITMAP
0002B100
001B3000
86000C30
4B008800
0D13C000
0A5C3000
05D80000
02D00000
04A00000
08600000
ENDCHAR
STARTCHAR Thorn
ENCODING 222
SWIDTH 600 0
DWIDTH 7 0
BBX 7 8 0 0
BITMAP
00D00000
03FFEB10
06801980
09400590
0C103C40
0EFEC500
3B000000
68000000
ENDCHAR
STARTCHAR germandbls
ENCODING 223
SWIDTH 600 0
DWIDTH 7 0
BBX 7 9 0 0
BITMAP
003CE900
01D41D10
05A01B00
0861A200
0B359000
0E01B600
2C000B30
59231B50
863CE900
ENDCHAR
STARTCHAR agrave
ENCODING 224
SWIDTH 600 0
DWIDTH 7 0
BBX 7 10 0 0
BITMAP
00065000
0003D000
00007300
00000000
009ED780
0A922D50
2D000B20
59000E00
4D12AB00
09EC7900
ENDCHAR
STARTCHAR aacute
ENCODING 225
SWIDTH 600 0
DWIDTH 7 0
BBX 7 9 0 0
BITMAP
00002B10
0001A200
00000000
009ED780
0A922D50
2D000B20
59000E00
4D12AB00
09EC7900
ENDCHAR
STARTCHAR acircumflex
ENCODING 226
SWIDTH 600 0
DWIDTH 7 0
BBX 7 9 0 0
BITMAP
0004C900
00280820
00000000
009ED780
0A922D50
2D000B20
59000E00
4D12AB00
09EC7900
ENDCHAR
STARTCHAR atilde
ENCODING 227
SWIDTH 600 0
DWIDTH 7 0
BBX 7 9 0 0
BITMAP
001BA290
00645E40
00000000
009ED780
0A922D50
2D000B20
59000E00
4D12AB00
09EC7900
ENDCHAR
STARTCHAR adieresis
ENCODING 228
SWIDTH 600 0
DWIDTH 7 0
BBX 7 8 0 0
BITMAP
000C0A20
00000000
009ED780
0A922D50
2D000B20
59000E00
4D12AB00
09EC7900
ENDCHAR
STARTCHAR aring
ENCODING 229
SWIDTH 600 0
DWIDTH 7 0
BBX 7 9 0 0
BITMAP
0003E900
00093B00
0006E600
009ED780
0A922D50
2D000B20
59000E00
4D12AB00
09EC7900
ENDCHAR
STARTCHAR ae
ENCODING 230
SWIDTH 600 0
DWIDTH 7 0
BBX 9 6 -1 0
BITMAP
01AE97EB00
0241C71A20
0049ECCE20
0B96C33300
3B16D12200
1DD76EC200
ENDCHAR
STARTCHAR ccedilla
ENCODING 231
SWIDTH 600 0
DWIDTH 7 0
BBX 7 10 0 -4
BITMAP
006DEA00
08B21730
1E100000
2C000000
0E513700
04CFB200
00360000
00890000
003B0000
05C30000
ENDCHAR
STARTCHAR egrave
ENCODING 232
SWIDTH 600 0
DWIDTH 7 0
BBX 7 10 0 0
BITMAP
00084000
0004C000
00008200
00000000
008EE800
08711B30
1FFFFF40
3B000000
1E414600
05DEA200
ENDCHAR
STARTCHAR eacute
ENCODING 233
SWIDTH 600 0
DWIDTH 7 0
BBX 7 9 0 0
BITMAP
00003B00
0002A200
00000000
008EE800
08711B30
1FFFFF40
3B000000
1E414600
05DEA200
ENDCHAR
STARTCHAR ecircumflex
ENCODING 234
SWIDTH 600 0
DWIDTH 7 0
BBX 7 9 0 0
BITMAP
0006D700
00480910
00000000
008EE800
08711B30
1FFFFF40
3B000000
1E414600
05DEA200
ENDCHAR
STARTCHAR edieresis
ENCODING 235
SWIDTH 600 0
DWIDTH 7 0
BBX 7 8 0 0
BITMAP
001B0B10
00000000
008EE800
08711B30
1FFFFF40
3B000000
1E414600
05DEA200
ENDCHAR
STARTCHAR igrave
ENCODING 236
SWIDTH 600 0
DWIDTH 7 0
BBX 5 10 1 0
BITMAP
00B100
009700
001A00
000000
AFF500
00B200
00C000
03A000
05A120
02DE70
ENDCHAR
STARTCHAR iacute
ENCODING 237
SWIDTH 600 0
DWIDTH 7 0
BBX 5 9 1 0
BITMAP
000680
006700
000000
AFF500
00B200
00C000
03A000
05A120
02DE70
ENDCHAR
STARTCHAR icircumflex
ENCODING 238
SWIDTH 600 0
DWIDTH 7 0
BBX 5 9 1 0
BITMAP
00AD30
074190
000000
AFF500
00B200
00C000
03A000
05A120
02DE70
ENDCHAR
STARTCHAR idieresis
ENCODING 239
SWIDTH 600 0
DWIDTH 7 0
BBX 5 8 1 0
BITMAP
0572A0
000000
AFF500
00B200
00C000
03A000
05A120
02DE70
ENDCHAR
STARTCHAR eth
ENCODING 240
SWIDTH 600 0
DWIDTH 7 0
BBX 7 9 0 0
BITMAP
000A4380
0005FB20
00383C00
02BEBA50
1D613D70
59000850
76000C30
4C218A00
08EE9100
ENDCHAR
STARTCHAR ntilde
ENCODING 241
SWIDTH 600 0
DWIDTH 7 0
BBX 7 9 0 0
BITMAP
001BA290
00635E40
00000000
0859ED10
0AC41B50
0D200A30
1D000D10
4A001C00
77004900
ENDCHAR
STARTCHAR ograve
ENCODING 242
SWIDTH 600 0
DWIDTH 7 0
BBX 7 10 0 0
BITMAP
00092000
0005A000
00009100
00000000
019ED600
0B813D20
4B000950
68000C30
3D219A00
07EE9100
ENDCHAR
STARTCHAR oacute
ENCODING 243
SWIDTH 600 0
DWIDTH 7 0
BBX 7 9 0 0
BITMAP
00003A00
00039100
00000000
019ED600
0B813D20
4B000950
68000C30
3D219A00
07EE9100
ENDCHAR
STARTCHAR ocircumflex
ENCODING 244
SWIDTH 600 0
DWIDTH 7 0
BBX 7 9 0 0
BITMAP
0007D600
00560A00
00000000
019ED600
0B813D20
4B000950
68000C30
3D219A00
07EE9100
ENDCHAR
STARTCHAR otilde
ENCODING 245
SWIDTH 600 0
DWIDTH 7 0
BBX 7 9 0 0
BITMAP
003B8370
00817D20
00000000
019ED600
0B813D20
4B000950
68000C30
3D219A00
07EE9100
ENDCHAR
STARTCHAR odieresis
ENCODING 246
SWIDTH 600 0
DWIDTH 7 0
BBX 7 8 0 0
BITMAP
003A0C00
00000000
019ED600
0B813D20
4B000950
68000C30
3D219A00
07EE9100
ENDCHAR
STARTCHAR divide
ENCODING 247
SWIDTH 600 0
DWIDTH 7 0
BBX 6 5 1 1
BITMAP
00C100
000000
EFFFF2
000000
00C100
ENDCHAR
STARTCHAR oslash
ENCODING 248
SWIDTH 600 0
DWIDTH 7 0
BBX 7 8 0 -1
BITMAP
00000010
019EE990
0B818E30
4B088950
68970C30
4E629A00
A9EE9100
10000000
ENDCHAR
STARTCHAR ugrave
ENCODING 249
SWIDTH 600 0
DWIDTH 7 0
BBX 7 10 0 0
BITMAP
00092000
0006A000
0000A100
00000000
09500770
0C100A50
0D000D20
3A002E00
5C14CB00
1DE95800
ENDCHAR
STARTCHAR uacute
ENCODING 250
SWIDTH 600 0
DWIDTH 7 0
BBX 7 9 0 0
BITMAP
00004A00
00039100
00000000
09500770
0C100A50
0D000D20
3A002E00
5C14CB00
1DE95800
ENDCHAR
STARTCHAR ucircumflex
ENCODING 251
SWIDTH 600 0
DWIDTH 7 0
BBX 7 9 0 0
BITMAP
0007D600
00560A00
00000000
09500770
0C100A50
0D000D20
3A002E00
5C14CB00
1DE95800
ENDCHAR
STARTCHAR udieresis
ENCODING 252
SWIDTH 600 0
DWIDTH 7 0
BBX 7 8 0 0
BITMAP
003A0C00
00000000
09500770
0C100A50
0D000D20
3A002E00
5C14CB00
1DE95800
ENDCHAR
STARTCHAR yacute
ENCODING 253
SWIDTH 600 0
DWIDTH 7 0
BBX 8 11 -1 -2
BITMAP
000004A0
00004910
00000000
00C1004A
009501C1
00580860
001C2B00
000CA200
00097000
005B0000
5EB10000
ENDCHAR
STARTCHAR thorn
ENCODING 254
SWIDTH 600 0
DWIDTH 7 0
BBX 7 11 0 -2
BITMAP
00E00000
02C00000
05900000
088BEA00
0BB31C50
0E100860
2C000B30
5D318C00
89CEA100
B3000000
E0000000
ENDCHAR
STARTCHAR ydieresis
ENCODING 255
SWIDTH 600 0
DWIDTH 7 0
BBX 8 10 -1 -2
BITMAP
000491C0
00000000
00C1004A
009501C1
00580860
001C2B00
000CA200
00097000
005B0000
5EB10000
ENDCHAR
STARTCHAR Amacron
ENCODING 256
SWIDTH 600 0
DWIDTH 7 0
BBX 8 10 -1 0
BITMAP
0000DFF3
00000000
00004F20
0000B940
00058750
000C2670
00690490
01EFFFB0
07A001D0
1D2000E0
ENDCHAR
STARTCHAR amacron
ENCODING 257
SWIDTH 600 0
DWIDTH 7 0
BBX 7 8 0 0
BITMAP
000FFF10
00000000
009ED780
0A922D50
2D000B20
59000E00
4D12AB00
09EC7900
ENDCHAR
STARTCHAR Abreve
ENCODING 258
SWIDTH 600 0
DWIDTH 7 0
BBX 8 10 -1 0
BITMAP
0000A166
00008EA0
00004F20
0000B940
00058750
000C2670
00690490
01EFFFB0
07A001D0
1D2000E0
ENDCHAR
STARTCHAR abreve
ENCODING 259
SWIDTH 600 0
DWIDTH 7 0
BBX 7 10 0 0
BITMAP
00000010
001B1670
0009EA00
00000000
009ED780
0A922D50
2D000B20
59000E00
4D12AB00
09EC7900
ENDCHAR
STARTCHAR Aogonek
ENCODING 260
SWIDTH 600 0
DWIDTH 7 0
BBX 7 11 -1 -3
BITMAP
00004F20
0000B940
00058750
000C2670
00690490
01EFFFB0
07A001D0
1D2000E0
00000550
00000B10
00000CD0
ENDCHAR
STARTCHAR aogonek
ENCODING 261
SWIDTH 600 0
DWIDTH 7 0
BBX 7 9 0 -3
BITMAP
009ED780
0A922D50
2D000B20
59000D00
4D12AB00
09EC7800
00017100
00092100
0007E400
ENDCHAR
STARTCHAR Cacute
ENCODING 262
SWIDTH 600 0
DWIDTH 7 0
BBX 7 10 0 0
BITMAP
00000680
00006810
0019ED40
01D81380
07900000
0D200000
1E000000
0E000000
0B912700
02BED400
ENDCHAR
STARTCHAR cacute
ENCODING 263
SWIDTH 600 0
DWIDTH 7 0
BBX 7 9 0 0
BITMAP
00001B20
0000A300
00000000
006DEA00
08B21730
1E100000
2C000000
0E513700
04CFB200
ENDCHAR
STARTCHAR Ccircumflex
ENCODING 264
SWIDTH 600 0
DWIDTH 7 0
BBX 7 10 0 0
BITMAP
0000BD20
00074280
0019ED40
01D81380
07900000
0D200000
1E000000
0E000000
0B912700
02BED400
ENDCHAR
STARTCHAR ccircumflex
ENCODING 265
SWIDTH 600 0
DWIDTH 7 0
BBX 7 9 0 0
BITMAP
0003CA00
00191730
00000000
006DEA00
08B21730
1E100000
2C000000
0E513700
04CFB200
ENDCHAR
STARTCHAR Cdotaccent
ENCODING 266
SWIDTH 600 0
DWIDTH 7 0
BBX 7 10 0 0
BITMAP
00005800
00000000
0019ED40
01D81380
07900000
0D200000
1E000000
0E000000
0B912700
02BED400
ENDCHAR
STARTCHAR cdotaccent
ENCODING 267
SWIDTH 600 0
DWIDTH 7 0
BBX 7 8 0 0
BITMAP
0000C400
00000000
006DEA00
08B21730
1E100000
2C000000
0E513700
04CFB200
ENDCHAR
STARTCHAR Ccaron
ENCODING 268
SWIDTH 600 0
DWIDTH 7 0
BBX 7 10 0 0
BITMAP
000552A0
0000CC20
0019ED40
01D81380
07900000
0D200000
1E000000
0E000000
0B912700
02BED400
ENDCHAR
STARTCHAR ccaron
ENCODING 269
SWIDTH 600 0
DWIDTH 7 0
BBX 7 9 0 0
BITMAP
00091560
0004D900
00000000
006DEA00
08B21730
1E100000
2C000000
0E513700
04CFB200
ENDCHAR
STARTCHAR Dcaron
ENCODING 270
SWIDTH 600 0
DWIDTH 7 0
BBX 7 10 0 0
BITMAP
00091750
0005D800
04FFD600
07804D40
0A400690
0D1005A0
1D000780
4A000D30
7703C900
AFFD7000
ENDCHAR
STARTCHAR dcaron
ENCODING 271
SWIDTH 600 0
DWIDTH 7 0
BBX 9 10 0 0
BITMAP
0000000490
000003B750
0000068910
0000085000
01AEBC2000
0C715E0000
4B002B0000
7700580000
6B13D60000
1BEAB30000
ENDCHAR
STARTCHAR Dcroat
ENCODING 272
SWIDTH 600 0
DWIDTH 7 0
BBX 7 8 0 0
BITMAP
01FFD800
05A03C70
086003B0
9FFE02C0
0D1004B0
1D000B60
4A02AC00
7FFD8100
ENDCHAR
STARTCHAR dcroat
ENCODING 273
SWIDTH 600 0
DWIDTH 7 0
BBX 8 9 0 0
BITMAP
000000D1
0002CCFA
000004A0
01AEC980
0B813D50
3C000C20
68001E00
4C12BB00
0AEC7800
ENDCHAR
STARTCHAR Emacron
ENCODING 274
SWIDTH 600 0
DWIDTH 7 0
BBX 8 10 0 0
BITMAP
0007FF90
00000000
00CFFFF1
00E00000
03A00000
06FFFB00
09500000
0C200000
0D000000
3FFFFB00
ENDCHAR
STARTCHAR emacron
ENCODING 275
SWIDTH 600 0
DWIDTH 7 0
BBX 7 8 0 0
BITMAP
001FFF00
00000000
008EE800
08711B30
1FFFFF40
3B000000
1E414600
05DEA200
ENDCHAR
STARTCHAR Ebreve
ENCODING 276
SWIDTH 600 0
DWIDTH 7 0
BBX 8 10 0 0
BITMAP
000742A0
0003DD30
00CFFFF1
00E00000
03A00000
06FFFB00
09500000
0C200000
0D000000
3FFFFB00
ENDCHAR
STARTCHAR ebreve
ENCODING 277
SWIDTH 600 0
DWIDTH 7 0
BBX 7 9 0 0
BITMAP
002A1750
000BE900
00000000
008EE800
08711B30
1FFFFF40
3B000000
1E414600
05DEA200
ENDCHAR
STARTCHAR Edotaccent
ENCODING 278
SWIDTH 600 0
DWIDTH 7 0
BBX 8 10 0 0
BITMAP
00005800
00000000
00CFFFF1
00E00000
03A00000
06FFFB00
09500000
0C200000
0D000000
3FFFFB00
ENDCHAR
STARTCHAR edotaccent
ENCODING 279
SWIDTH 600 0
DWIDTH 7 0
BBX 7 8 0 0
BITMAP
0002D200
00000000
008EE800
08711B30
1FFFFF40
3B000000
1E414600
05DEA200
ENDCHAR
STARTCHAR Eogonek
ENCODING 280
SWIDTH 600 0
DWIDTH 7 0
BBX 8 11 0 -3
BITMAP
00CFFFF1
00E00000
03A00000
06FFFB00
09500000
0C200000
0D000000
3FFFFB00
00017100
00093100
0007E400
ENDCHAR
STARTCHAR eogonek
ENCODING 281
SWIDTH 600 0
DWIDTH 7 0
BBX 7 9 0 -3
BITMAP
008EE800
08711B30
1FFFFF40
3B000000
1E414600
05DFC200
00061000
000B1000
000CD100
ENDCHAR
STARTCHAR Ecaron
ENCODING 282
SWIDTH 600 0
DWIDTH 7 0
BBX 8 10 0 0
BITMAP
000552A0
0000CC20
00CFFFF1
00E00000
03A00000
06FFFB00
09500000
0C200000
0D000000
3FFFFB00
ENDCHAR
STARTCHAR ecaron
ENCODING 283
SWIDTH 600 0
DWIDTH 7 0
BBX 7 9 0 0
BITMAP
00190740
0007D600
00000000
008EE800
08711B30
1FFFFF40
3B000000
1E414600
05DEA200
ENDCHAR
STARTCHAR Gcircumflex
ENCODING 284
SWIDTH 600 0
DWIDTH 7 0
BBX 7 10 0 0
BITMAP
0001CC10
00092460
002BED30
02E61470
0A600000
1E000000
4B01FF60
3C000930
0D612D00
03CED600
ENDCHAR
STARTCHAR gcircumflex
ENCODING 285
SWIDTH 600 0
DWIDTH 7 0
BBX 7 11 0 -2
BITMAP
0004C900
00280820
00000000
019ED880
0A912D50
2C000B20
5A002D00
2E89DA00
03757700
5303D200
4DFC5000
ENDCHAR
STARTCHAR Gbreve
ENCODING 286
SWIDTH 600 0
DWIDTH 7 0
BBX 7 10 0 0
BITMAP
00092390
0004EC20
002BED30
02E61470
0A600000
1E000000
4B01FF60
3C000930
0D612D00
03CED600
ENDCHAR
STARTCHAR gbreve
ENCODING 287
SWIDTH 600 0
DWIDTH 7 0
BBX 7 12 0 -2
BITMAP
00000010
001B1670
0009EA00
00000000
019ED880
0A912D50
2C000B20
5A002D00
2E89DA00
03757700
5303D200
4DFC5000
ENDCHAR
STARTCHAR Gdotaccent
ENCODING 288
SWIDTH 600 0
DWIDTH 7 0
BBX 7 10 0 0
BITMAP
00007600
00000000
002BED30
02E61470
0A600000
1E000000
4B01FF60
3C000930
0D612D00
03CED600
ENDCHAR
STARTCHAR gdotaccent
ENCODING 289
SWIDTH 600 0
DWIDTH 7 0
BBX 7 10 0 -2
BITMAP
0001D300
00000000
019ED880
0A912D50
2C000B20
5A002D00
2E89DA00
03757700
5303D200
4DFC5000
ENDCHAR
STARTCHAR uni0122
ENCODING 290
SWIDTH 600 0
DWIDTH 7 0
BBX 7 11 0 -3
BITMAP
002BED30
02E61470
0A600000
1E000000
4B01FF60
3C000930
0D612D00
03CED600
002D1000
001B2000
00D80000
ENDCHAR
STARTCHAR uni0123
ENCODING 291
SWIDTH 600 0
DWIDTH 7 0
BBX 7 11 0 -2
BITMAP
00006900
0003A100
00005000
019ED880
0A912D50
2C000B20
5A002D00
2E89DA00
03757700
5303D200
4DFC5000
ENDCHAR
STARTCHAR Hcircumflex
ENCODING 292
SWIDTH 600 0
DWIDTH 7 0
BBX 7 10 0 0
BITMAP
0003CA00
00191730
059000E0
086003C0
0B200790
0EFFFF60
1C000C30
49000E00
76003C00
A4005900
ENDCHAR
STARTCHAR hcircumflex
ENCODING 293
SWIDTH 600 0
DWIDTH 7 0
BBX 7 11 0 0
BITMAP
02CC0000
09155000
00E00000
02C00000
05900000
0879ED10
0BC41B50
0D200A30
1D000D10
4A001C00
77004900
ENDCHAR
STARTCHAR Hbar
ENCODING 294
SWIDTH 600 0
DWIDTH 7 0
BBX 8 8 0 0
BITMAP
059001D0
6FFFFFF8
0B300680
0EFFFF50
2C000C20
59000E00
76003C00
A4005900
ENDCHAR
STARTCHAR hbar
ENCODING 295
SWIDTH 600 0
DWIDTH 7 0
BBX 7 9 0 0
BITMAP
00E00000
1EFFF500
05900000
0779EC10
0AC41C40
0D200A30
1D000D00
4A001C00
77004A00
ENDCHAR
STARTCHAR Itilde
ENCODING 296
SWIDTH 600 0
DWIDTH 7 0
BBX 7 11 0 0
BITMAP
00010000
001DD2A0
00546E50
01FFFFC0
00059000
00086000
000B3000
000E0000
002C0000
00580000
7FFFF500
ENDCHAR
STARTCHAR itilde
ENCODING 297
SWIDTH 600 0
DWIDTH 7 0
BBX 6 9 1 0
BITMAP
05C664
090AC0
000000
AFF500
00B200
00C000
03A000
05A120
02DE70
ENDCHAR
STARTCHAR Imacron
ENCODING 298
SWIDTH 600 0
DWIDTH 7 0
BBX 7 10 0 0
BITMAP
000DFF30
00000000
01FFFFC0
00059000
00086000
000B3000
000E0000
002C0000
00580000
7FFFF500
ENDCHAR
STARTCHAR imacron
ENCODING 299
SWIDTH 600 0
DWIDTH 7 0
BBX 5 8 1 0
BITMAP
06FFA0
000000
AFF500
00B200
00C000
03A000
05A120
02DE70
ENDCHAR
STARTCHAR Ibreve
ENCODING 300
SWIDTH 600 0
DWIDTH 7 0
BBX 7 10 0 0
BITMAP
000A1660
0008EA00
01FFFFC0
00059000
00086000
000B3000
000E0000
002C0000
00580000
7FFFF500
ENDCHAR
STARTCHAR ibreve
ENCODING 301
SWIDTH 600 0
DWIDTH 7 0
BBX 6 9 1 0
BITMAP
0751B1
02DE50
000000
AFF500
00B200
00C000
03A000
05A120
02DE70
ENDCHAR
STARTCHAR Iogonek
ENCODING 302
SWIDTH 600 0
DWIDTH 7 0
BBX 7 11 0 -3
BITMAP
01FFFFC0
00059000
00086000
000B3000
000E0000
002C0000
00580000
7FFFF500
01810000
06510000
05E60000
ENDCHAR
STARTCHAR iogonek
ENCODING 303
SWIDTH 600 0
DWIDTH 7 0
BBX 5 11 1 -3
BITMAP
005B00
000000
AFF500
00B200
00C000
03A000
05A120
02DF70
004400
00B100
00AD20
ENDCHAR
STARTCHAR Idotaccent
ENCODING 304
SWIDTH 600 0
DWIDTH 7 0
BBX 7 10 0 0
BITMAP
0000B300
00000000
01FFFFC0
00059000
00086000
000B3000
000E0000
002C0000
00580000
7FFFF500
ENDCHAR
STARTCHAR dotlessi
ENCODING 305
SWIDTH 600 0
DWIDTH 7 0
BBX 5 6 1 0
BITMAP
AFF500
00B200
00C000
03A000
05A120
02DE70
ENDCHAR
STARTCHAR IJ
ENCODING 306
SWIDTH 600 0
DWIDTH 7 0
BBX 7 10 0 -2
BITMAP
00E004A0
03B00770
06800A50
09500D20
0C201E00
0E004B00
3B007800
6800A500
0001E100
004E8000
ENDCHAR
STARTCHAR ij
ENCODING 307
SWIDTH 600 0
DWIDTH 7 0
BBX 7 10 0 -2
BITMAP
00B50970
00000000
02C01D00
05904A00
08607700
0B30A400
0D00D100
2C02D000
00079000
00BD2000
ENDCHAR
STARTCHAR Jcircumflex
ENCODING 308
SWIDTH 600 0
DWIDTH 7 0
BBX 7 10 0 0
BITMAP
0003CA00
00191730
00CFFF60
00000B30
00000D00
00002C00
00005900
00009500
7604D100
1BEC4000
ENDCHAR
STARTCHAR jcircumflex
ENCODING 309
SWIDTH 600 0
DWIDTH 7 0
BBX 8 11 -1 -2
BITMAP
00001BC1
00008337
00000000
005FFF30
00000C00
00001C00
00005900
00008600
0000C200
0315D000
1BEC3000
ENDCHAR
STARTCHAR uni0136
ENCODING 310
SWIDTH 600 0
DWIDTH 7 0
BBX 8 11 0 -3
BITMAP
01D003B1
03B03B10
0683B100
098E5000
0CC6B000
0E10D200
3B007900
68001E10
004C0000
001C1000
01E60000
ENDCHAR
STARTCHAR uni0137
ENCODING 311
SWIDTH 600 0
DWIDTH 7 0
BBX 7 12 0 -3
BITMAP
00C20000
00E00000
03B00000
06801A70
0852B400
0B6D7000
0EB3C000
2D009500
59002C00
006B0000
002D0000
03D50000
ENDCHAR
STARTCHAR kgreenlandic
ENCODING 312
SWIDTH 600 0
DWIDTH 7 0
BBX 7 6 0 0
BITMAP
05801A70
0861B500
0B6D7000
0EC4C000
2D109500
59002C00
ENDCHAR
STARTCHAR Lacute
ENCODING 313
SWIDTH 600 0
DWIDTH 7 0
BBX 6 10 1 0
BITMAP
002B10
01B300
059000
086000
0B3000
0D0000
2C0000
590000
860000
BFFFF2
ENDCHAR
STARTCHAR lacute
ENCODING 314
SWIDTH 600 0
DWIDTH 7 0
BBX 5 11 1 0
BITMAP
0003B0
002A20
4FF900
007600
00A300
00D000
01B000
058000
085000
096110
04EE40
ENDCHAR
STARTCHAR uni013B
ENCODING 315
SWIDTH 600 0
DWIDTH 7 0
BBX 6 11 1 -3
BITMAP
059000
086000
0B3000
0D0000
2C0000
590000
860000
BFFFF2
01D200
01A400
0C9000
ENDCHAR
STARTCHAR uni013C
ENCODING 316
SWIDTH 600 0
DWIDTH 7 0
BBX 5 12 1 -3
BITMAP
4FF900
007600
00A300
00D000
01B000
058000
085000
096110
04EE40
00C400
007700
09B100
ENDCHAR
STARTCHAR Lcaron
ENCODING 317
SWIDTH 600 0
DWIDTH 7 0
BBX 6 10 1 0
BITMAP
000066
000092
0590A0
086000
0B3000
0D0000
2C0000
590000
860000
BFFFF2
ENDCHAR
STARTCHAR lcaron
ENCODING 318
SWIDTH 600 0
DWIDTH 7 0
BBX 6 10 1 0
BITMAP
00001C
4FF947
007673
00A300
00D000
01B000
058000
085000
096110
04EE40
ENDCHAR
STARTCHAR Ldot
ENCODING 319
SWIDTH 600 0
DWIDTH 7 0
BBX 6 8 1 0
BITMAP
059000
086000
0B3000
0D0000
2C0097
590000
860000
BFFFF2
ENDCHAR
STARTCHAR ldot
ENCODING 320
SWIDTH 600 0
DWIDTH 7 0
BBX 7 9 1 0
BITMAP
AFF20000
00D00000
02B00000
05800000
08500000
0B200D30
0D000000
1E120000
0AEB0000
ENDCHAR
STARTCHAR Lslash
ENCODING 321
SWIDTH 600 0
DWIDTH 7 0
BBX 7 8 0 0
BITMAP
00590000
00860000
00B31500
00E9A300
18D20000
38900000
08600000
0BFFFF20
ENDCHAR
STARTCHAR lslash
ENCODING 322
SWIDTH 600 0
DWIDTH 7 0
BBX 6 9 1 0
BITMAP
4FF900
007600
00A371
00DA40
3AC000
458000
085000
096110
04EE40
ENDCHAR
STARTCHAR Nacute
ENCODING 323
SWIDTH 600 0
DWIDTH 7 0
BBX 7 10 0 0
BITMAP
00001A20
0000A400
03E000D0
06C403B0
09690580
0C1C0850
0D093B20
3A048D00
6700CB00
9400A800
ENDCHAR
STARTCHAR nacute
ENCODING 324
SWIDTH 600 0
DWIDTH 7 0
BBX 7 9 0 0
BITMAP
00002B10
0001A200
00000000
0859ED10
0AC41B50
0D200A30
1D000D10
4A001C00
77004900
ENDCHAR
STARTCHAR uni0145
ENCODING 325
SWIDTH 600 0
DWIDTH 7 0
BBX 7 11 0 -3
BITMAP
03E000D0
06C403B0
09690580
0C1C0850
0D093B20
3A048D00
6700CB00
9400A800
00A60000
00690000
08C20000
ENDCHAR
STARTCHAR uni0146
ENCODING 326
SWIDTH 600 0
DWIDTH 7 0
BBX 7 9 0 -3
BITMAP
0859ED10
0AC41B50
0D200A30
1D000D10
4A001C00
77004900
00A70000
005A0000
07C20000
ENDCHAR
STARTCHAR Ncaron
ENCODING 327
SWIDTH 600 0
DWIDTH 7 0
BBX 7 10 0 0
BITMAP
00091560
0004D900
03E000D0
06C403B0
09690580
0C1C0850
0D093B20
3A048D00
6700CB00
9400A800
ENDCHAR
STARTCHAR ncaron
ENCODING 328
SWIDTH 600 0
DWIDTH 7 0
BBX 7 9 0 0
BITMAP
00090650
0006D700
00000000
0859ED10
0AC41B50
0D200A30
1D000D10
4A001C00
77004900
ENDCHAR
STARTCHAR napostrophe
ENCODING 329
SWIDTH 600 0
DWIDTH 7 0
BBX 9 8 -1 0
BITMAP
02E5000000
03F8000000
008998ED10
05D7E61C40
1B29600B20
000C200D00
000E002C00
003B005900
ENDCHAR
STARTCHAR Eng
ENCODING 330
SWIDTH 600 0
DWIDTH 7 0
BBX 7 8 0 0
BITMAP
05BAEC10
07D41A80
0A4005A0
0D100590
1D000770
4A000C30
77016C00
A40EC200
ENDCHAR
STARTCHAR eng
ENCODING 331
SWIDTH 600 0
DWIDTH 7 0
BBX 7 8 0 -2
BITMAP
0859ED20
0AC41B50
0D200B30
1D000D00
4A002C00
77005900
0001A500
001EB000
ENDCHAR
STARTCHAR Omacron
ENCODING 332
SWIDTH 600 0
DWIDTH 7 0
BBX 7 10 0 0
BITMAP
000DFF30
00000000
006DE900
06C21A70
1D2003B0
5A0003B0
77000690
78000C30
3D219B00
06DE9100
ENDCHAR
STARTCHAR omacron
ENCODING 333
SWIDTH 600 0
DWIDTH 7 0
BBX 7 8 0 0
BITMAP
003FFD00
00000000
019ED600
0B813D20
4B000950
68000C30
3D219A00
07EE9100
ENDCHAR
STARTCHAR Obreve
ENCODING 334
SWIDTH 600 0
DWIDTH 7 0
BBX 7 10 0 0
BITMAP
000A1660
0008EA00
006DE900
06C21A70
1D2003B0
5A0003B0
77000690
78000C30
3D219B00
06DE9100
ENDCHAR
STARTCHAR obreve
ENCODING 335
SWIDTH 600 0
DWIDTH 7 0
BBX 7 9 0 0
BITMAP
00481940
001BE800
00000000
019ED600
0B813D20
4B000950
68000C30
3D219A00
07EE9100
ENDCHAR
STARTCHAR Ohungarumlaut
ENCODING 336
SWIDTH 600 0
DWIDTH 7 0
BBX 8 10 0 0
BITMAP
000092A1
00055640
006DE900
06C21A70
1D2003B0
5A0003B0
77000690
78000C30
3D219B00
06DE9100
ENDCHAR
STARTCHAR ohungarumlaut
ENCODING 337
SWIDTH 600 0
DWIDTH 7 0
BBX 7 9 0 0
BITMAP
0001A290
00073910
00000000
019ED600
0B813D20
4B000950
68000C30
3D219A00
07EE9100
ENDCHAR
STARTCHAR OE
ENCODING 338
SWIDTH 600 0
DWIDTH 7 0
BBX 8 8 0 0
BITMAP
006DFFFB
08B2A300
3D00B000
7801FF80
A5048000
95075000
6C2B2000
09EFFF60
ENDCHAR
STARTCHAR oe
ENCODING 339
SWIDTH 600 0
DWIDTH 7 0
BBX 9 6 -1 0
BITMAP
009E85EB00
0891B80A20
0D109FFF10
1C00B00000
1E17F21200
08EA5ED300
ENDCHAR
STARTCHAR Racute
ENCODING 340
SWIDTH 600 0
DWIDTH 7 0
BBX 7 10 0 0
BITMAP
00001B20
0000A400
02FFEB10
05A01A70
08700680
0B403D30
0DFFC400
1E078000
4A01D100
77009700
ENDCHAR
STARTCHAR racute
ENCODING 341
SWIDTH 600 0
DWIDTH 7 0
BBX 6 9 1 0
BITMAP
0001A4
000940
000000
0B2BE7
0DA311
2D1000
580000
850000
B30000
ENDCHAR
STARTCHAR uni0156
ENCODING 342
SWIDTH 600 0
DWIDTH 7 0
BBX 7 11 0 -3
BITMAP
02FFEB10
05A01A70
08700680
0B403D30
0DFFC400
1E078000
4A01D100
77009700
00970000
004B0000
06C30000
ENDCHAR
STARTCHAR uni0157
ENCODING 343
SWIDTH 600 0
DWIDTH 7 0
BBX 7 9 0 -3
BITMAP
00B2BE70
00DA3110
02D10000
05800000
08500000
0B300000
1D200000
1A300000
C9000000
ENDCHAR
STARTCHAR Rcaron
ENCODING 344
SWIDTH 600 0
DWIDTH 7 0
BBX 7 10 0 0
BITMAP
00091660
0004D900
02FFEB10
05A01A70
08700680
0B403D30
0DFFC400
1E078000
4A01D100
77009700
ENDCHAR
STARTCHAR rcaron
ENCODING 345
SWIDTH 600 0
DWIDTH 7 0
BBX 6 9 1 0
BITMAP
008238
002DA0
000000
0B2BE7
0DA311
2D1000
580000
850000
B30000
ENDCHAR
STARTCHAR Sacute
ENCODING 346
SWIDTH 600 0
DWIDTH 7 0
BBX 7 10 0 0
BITMAP
00002B00
0001B300
006DE800
02D21930
03C00000
009C4000
0004D500
00003B00
4A219900
07EEA100
ENDCHAR
STARTCHAR sacute
ENCODING 347
SWIDTH 600 0
DWIDTH 7 0
BBX 6 9 0 0
BITMAP
00003A
000391
000000
01BED5
069139
02C820
0015B6
2A3169
06DFC2
ENDCHAR
STARTCHAR Scircumflex
ENCODING 348
SWIDTH 600 0
DWIDTH 7 0
BBX 7 10 0 0
BITMAP
0005D700
00380910
006DE800
02D21930
03C00000
009C4000
0004D500
00003B00
4A219900
07EEA100
ENDCHAR
STARTCHAR scircumflex
ENCODING 349
SWIDTH 600 0
DWIDTH 7 0
BBX 6 9 0 0
BITMAP
0007D6
00560A
000000
01BED5
069139
02C820
0015B6
2A3169
06DFC2
ENDCHAR
STARTCHAR uni015E
ENCODING 350
SWIDTH 600 0
DWIDTH 7 0
BBX 7 12 0 -4
BITMAP
006DE800
02D21930
03C00000
009C4000
0004D500
00003B00
4A219900
07EEA100
00530000
00B70000
00590000
07C20000
ENDCHAR
STARTCHAR uni015F
ENCODING 351
SWIDTH 600 0
DWIDTH 7 0
BBX 6 10 0 -4
BITMAP
01BED5
069139
02C820
0015B6
2A3169
06DFC2
005400
00A700
005900
07C200
ENDCHAR
STARTCHAR Scaron
ENCODING 352
SWIDTH 600 0
DWIDTH 7 0
BBX 7 10 0 0
BITMAP
00090740
0006D700
006DE800
02D21930
03C00000
009C4000
0004D500
00003B00
4A219900
07EEA100
ENDCHAR
STARTCHAR scaron
ENCODING 353
SWIDTH 600 0
DWIDTH 7 0
BBX 7 9 0 0
BITMAP
00190830
0008D500
00000000
01BED500
06913900
02C82000
0015B600
2A316900
06DFC200
ENDCHAR
STARTCHAR uni0162
ENCODING 354
SWIDTH 600 0
DWIDTH 7 0
BBX 7 12 1 -4
BITMAP
BFFFFF60
00590000
00860000
00B30000
00D00000
02C00000
05900000
08600000
08100000
0E400000
09500000
BA000000
ENDCHAR
STARTCHAR uni0163
ENCODING 355
SWIDTH 600 0
DWIDTH 7 0
BBX 7 12 0 -4
BITMAP
000C0000
002B0000
1EFFFF70
00860000
00B20000
00D00000
01E21300
009ED500
00080000
002E1000
001B2000
00D80000
ENDCHAR
STARTCHAR Tcaron
ENCODING 356
SWIDTH 600 0
DWIDTH 7 0
BBX 7 10 1 0
BITMAP
00915600
004D9000
BFFFFF60
00590000
00860000
00B30000
00D00000
02C00000
05900000
08600000
ENDCHAR
STARTCHAR tcaron
ENCODING 357
SWIDTH 600 0
DWIDTH 7 0
BBX 7 10 0 0
BITMAP
00000660
00000920
000C0A00
002B0000
1EFFFF70
00860000
00B20000
00D00000
01E21300
009ED500
ENDCHAR
STARTCHAR Tbar
ENCODING 358
SWIDTH 600 0
DWIDTH 7 0
BBX 7 8 1 0
BITMAP
BFFFFF60
00590000
00950000
6FFFB000
00E00000
02C00000
05900000
08600000
ENDCHAR
STARTCHAR tbar
ENCODING 359
SWIDTH 600 0
DWIDTH 7 0
BBX 7 8 0 0
BITMAP
000C0000
002B0000
1EFFFF70
00950000
7FFFFC00
00D00000
01E21300
008ED500
ENDCHAR
STARTCHAR Utilde
ENCODING 360
SWIDTH 600 0
DWIDTH 7 0
BBX 7 11 0 0
BITMAP
00010000
001DD2A0
00546E50
059000E0
086002B0
0B300680
0D000950
1C000C20
3B001E00
1E31A800
06EE9000
ENDCHAR
STARTCHAR utilde
ENCODING 361
SWIDTH 600 0
DWIDTH 7 0
BBX 7 9 0 0
BITMAP
003C8470
00818D20
00000000
09500770
0C100A50
0D000D20
3A002E00
5C14CB00
1DE95800
ENDCHAR
STARTCHAR Umacron
ENCODING 362
SWIDTH 600 0
DWIDTH 7 0
BBX 7 10 0 0
BITMAP
000DFF30
00000000
059000E0
086002B0
0B300680
0D000950
1C000C20
3B001E00
1E31A800
06EE9000
ENDCHAR
STARTCHAR umacron
ENCODING 363
SWIDTH 600 0
DWIDTH 7 0
BBX 7 8 0 0
BITMAP
003FFD00
00000000
09500770
0C100A50
0D000D20
3A002E00
5C14CB00
1DE95800
ENDCHAR
STARTCHAR Ubreve
ENCODING 364
SWIDTH 600 0
DWIDTH 7 0
BBX 7 10 0 0
BITMAP
000A1660
0008EA00
059000E0
086002B0
0B300680
0D000950
1C000C20
3B001E00
1E31A800
06EE9000
ENDCHAR
STARTCHAR ubreve
ENCODING 365
SWIDTH 600 0
DWIDTH 7 0
BBX 7 9 0 0
BITMAP
00481940
001CE800
00000000
09500770
0C100A50
0D000D20
3A002E00
5C14CB00
1DE95800
ENDCHAR
STARTCHAR Uring
ENCODING 366
SWIDTH 600 0
DWIDTH 7 0
BBX 7 11 0 0
BITMAP
0001DA00
00055A00
0003E700
059000E0
086002B0
0B300680
0D000950
1C000C20
3B001E00
1E31A800
06EE9000
ENDCHAR
STARTCHAR uring
ENCODING 367
SWIDTH 600 0
DWIDTH 7 0
BBX 7 9 0 0
BITMAP
0006E600
000B3A00
0009E400
09500770
0C100A50
0D000D20
3A002E00
5C14CB00
1DE95800
ENDCHAR
STARTCHAR Uhungarumlaut
ENCODING 368
SWIDTH 600 0
DWIDTH 7 0
BBX 8 10 0 0
BITMAP
000092A1
00055640
059000E0
086002B0
0B300680
0D000950
1C000C20
3B001E00
1E31A800
06EE9000
ENDCHAR
STARTCHAR uhungarumlaut
ENCODING 369
SWIDTH 600 0
DWIDTH 7 0
BBX 7 9 0 0
BITMAP
0001A290
00083910
00000000
09500770
0C100A50
0D000D20
3A002E00
5C14CB00
1DE95800
ENDCHAR
STARTCHAR Uogonek
ENCODING 370
SWIDTH 600 0
DWIDTH 7 0
BBX 7 11 0 -3
BITMAP
059000E0
086002B0
0B300580
0D100850
1D000B20
3B001D00
2D108800
07DD9000
01910000
07510000
05E60000
ENDCHAR
STARTCHAR uogonek
ENCODING 371
SWIDTH 600 0
DWIDTH 7 0
BBX 7 9 0 -3
BITMAP
09500770
0C100A40
0D000D20
3A002E00
5C14CB00
1DE95800
00027100
000A2100
0008E400
ENDCHAR
STARTCHAR Wcircumflex
ENCODING 372
SWIDTH 600 0
DWIDTH 7 0
BBX 8 10 0 0
BITMAP
0004D900
00191820
0D000058
0D0000A4
0C0750D0
1B1C7390
2A678850
39B19C10
4C70BA00
5E10E600
ENDCHAR
STARTCHAR wcircumflex
ENCODING 373
SWIDTH 600 0
DWIDTH 7 0
BBX 8 9 0 0
BITMAP
0008D400
00651900
00000000
77074094
671D71C0
67687670
57B38B10
5B83BA00
5F22F400
ENDCHAR
STARTCHAR Ycircumflex
ENCODING 374
SWIDTH 600 0
DWIDTH 7 0
BBX 7 10 1 0
BITMAP
005D8000
02809100
86000C30
4B008800
0D13C000
0A5C3000
05D80000
02D00000
04A00000
08600000
ENDCHAR
STARTCHAR ycircumflex
ENCODING 375
SWIDTH 600 0
DWIDTH 7 0
BBX 8 11 -1 -2
BITMAP
00008D40
00065190
00000000
00C1004A
009501C1
00580860
001C2B00
000CA200
00097000
005B0000
5EB10000
ENDCHAR
STARTCHAR Ydieresis
ENCODING 376
SWIDTH 600 0
DWIDTH 7 0
BBX 7 10 1 0
BITMAP
00B0A100
00000000
86000C30
4B008800
0D13C000
0A5C3000
05D80000
02D00000
04A00000
08600000
ENDCHAR
STARTCHAR Zacute
ENCODING 377
SWIDTH 600 0
DWIDTH 7 0
BBX 7 10 0 0
BITMAP
00002B10
0001B300
06FFFFE0
00000B50
0000A700
00089000
005B0000
04C10000
2C200000
BFFFFD00
ENDCHAR
STARTCHAR zacute
ENCODING 378
SWIDTH 600 0
DWIDTH 7 0
BBX 7 9 0 0
BITMAP
00004A00
00049100
00000000
08FFFF50
00007900
00088000
00A60000
1A500000
8FFFFA00
ENDCHAR
STARTCHAR Zdotaccent
ENCODING 379
SWIDTH 600 0
DWIDTH 7 0
BBX 7 10 0 0
BITMAP
0000C100
00000000
06FFFFE0
00000B50
0000A700
00089000
005B0000
04C10000
2C200000
BFFFFD00
ENDCHAR
STARTCHAR zdotaccent
ENCODING 380
SWIDTH 600 0
DWIDTH 7 0
BBX 7 8 0 0
BITMAP
0003D000
00000000
08FFFF50
00007900
00088000
00A60000
1A500000
8FFFFA00
ENDCHAR
STARTCHAR Zcaron
ENCODING 381
SWIDTH 600 0
DWIDTH 7 0
BBX 7 10 0 0
BITMAP
000A0740
0006D700
06FFFFE0
00000B50
0000A700
00089000
005B0000
04C10000
2C200000
BFFFFD00
ENDCHAR
STARTCHAR zcaron
ENCODING 382
SWIDTH 600 0
DWIDTH 7 0
BBX 7 9 0 0
BITMAP
00280820
0009C400
00000000
08FFFF50
00007900
00088000
00A60000
1A500000
8FFFFA00
ENDCHAR
STARTCHAR longs
ENCODING 383
SWIDTH 600 0
DWIDTH 7 0
BBX 7 9 1 0
BITMAP
0009ED30
006B1220
00A40000
8FF10000
01D00000
04A00000
07700000
0A400000
0D100000
ENDCHAR
STARTCHAR uni0180
ENCODING 384
SWIDTH 600 0
DWIDTH 7 0
BBX 7 9 0 0
BITMAP
00D00000
1EFFF500
05900000
088CEA00
0BB21C50
0D100860
1C000B30
4D318B00
78CEA100
ENDCHAR
STARTCHAR uni018A
ENCODING 394
SWIDTH 600 0
DWIDTH 7 0
BBX 7 8 0 0
BITMAP
019EEA10
0B5E19A0
572B01E0
755800E0
398502C0
00C20970
00D18C10
03FD9100
ENDCHAR
STARTCHAR uni018F
ENCODING 399
SWIDTH 600 0
DWIDTH 7 0
BBX 7 8 0 0
BITMAP
004CEB10
00831A80
000003B0
000002B0
4FFFFF90
59000930
2C118A00
08EE8000
ENDCHAR
STARTCHAR uni0192
ENCODING 402
SWIDTH 600 0
DWIDTH 7 0
BBX 9 9 -1 -1
BITMAP
000005DD10
00001D3200
0000580000
000DFFF000
0000D00000
0004900000
000A400000
013D000000
2ED4000000
ENDCHAR
STARTCHAR uni0193
ENCODING 403
SWIDTH 600 0
DWIDTH 7 0
BBX 8 10 0 0
BITMAP
000000BB
000003A1
002BEE90
02E61480
0A600000
1E000000
4B01FF60
3C000930
0D612D00
03CED600
ENDCHAR
STARTCHAR Ohorn
ENCODING 416
SWIDTH 600 0
DWIDTH 7 0
BBX 8 10 0 0
BITMAP
00000038
00000048
006DEBA1
06C21A60
1D2003A0
5A0003C0
77000690
78000C40
3D219B00
06DE9000
ENDCHAR
STARTCHAR ohorn
ENCODING 417
SWIDTH 600 0
DWIDTH 7 0
BBX 8 8 0 0
BITMAP
00000091
000000B1
019EEC50
0B813D10
4B000950
68000C30
3D219B00
07EE9100
ENDCHAR
STARTCHAR Uhorn
ENCODING 431
SWIDTH 600 0
DWIDTH 7 0
BBX 9 10 0 0
BITMAP
0000000370
0000000850
059000E400
086002B000
0B30068000
0D00096000
1C000C3000
3B001E0000
1E31A80000
06EE900000
ENDCHAR
STARTCHAR uhorn
ENCODING 432
SWIDTH 600 0
DWIDTH 7 0
BBX 8 8 0 0
BITMAP
0000000A
0000004B
095007E4
0C100A60
0D000D30
3A002E00
5C14CB00
1DE95800
ENDCHAR
STARTCHAR uni01C2
ENCODING 450
SWIDTH 600 0
DWIDTH 7 0
BBX 7 11 0 -2
BITMAP
0000D000
0002C000
00059000
00086000
0CFFFF30
000D0000
3EFFFC00
00590000
00850000
00C20000
00D00000
ENDCHAR
STARTCHAR uni01CD
ENCODING 461
SWIDTH 600 0
DWIDTH 7 0
BBX 8 10 -1 0
BITMAP
00009156
00004D90
00004F20
0000B940
00058750
000C2670
00690490
01EFFFB0
07A001D0
1D2000E0
ENDCHAR
STARTCHAR uni01CE
ENCODING 462
SWIDTH 600 0
DWIDTH 7 0
BBX 7 9 0 0
BITMAP
00090650
0005D700
00000000
009ED780
0A922D50
2D000B20
59000E00
4D12AB00
09EC7900
ENDCHAR
STARTCHAR uni01CF
ENCODING 463
SWIDTH 600 0
DWIDTH 7 0
BBX 7 10 0 0
BITMAP
00091560
0004D900
01FFFFC0
00059000
00086000
000B3000
000E0000
002C0000
00580000
7FFFF500
ENDCHAR
STARTCHAR uni01D0
ENCODING 464
SWIDTH 600 0
DWIDTH 7 0
BBX 6 9 1 0
BITMAP
046191
00BC30
000000
AFF500
00B200
00C000
03A000
05A120
02DE70
ENDCHAR
STARTCHAR uni01D1
ENCODING 465
SWIDTH 600 0
DWIDTH 7 0
BBX 7 10 0 0
BITMAP
00091560
0004D900
006DE900
06C21A70
1D2003B0
5A0003B0
77000690
78000C30
3D219B00
06DE9100
ENDCHAR
STARTCHAR uni01D2
ENCODING 466
SWIDTH 600 0
DWIDTH 7 0
BBX 7 9 0 0
BITMAP
00190830
0008D500
00000000
019ED600
0B813D20
4B000950
68000C30
3D219A00
07EE9100
ENDCHAR
STARTCHAR uni01D3
ENCODING 467
SWIDTH 600 0
DWIDTH 7 0
BBX 7 10 0 0
BITMAP
00091560
0004D900
059000E0
086002B0
0B300680
0D000950
1C000C20
3B001E00
1E31A800
06EE9000
ENDCHAR
STARTCHAR uni01D4
ENCODING 468
SWIDTH 600 0
DWIDTH 7 0
BBX 7 9 0 0
BITMAP
00290830
0008D500
00000000
09500770
0C100A50
0D000D20
3A002E00
5C14CB00
1DE95800
ENDCHAR
STARTCHAR uni01D5
ENCODING 469
SWIDTH 600 0
DWIDTH 7 0
BBX 7 12 0 0
BITMAP
0009FF70
00000000
000B0920
00000000
059000E0
086002B0
0B300680
0D000950
1C000C20
3B001E00
1E31A800
06EE9000
ENDCHAR
STARTCHAR uni01D6
ENCODING 470
SWIDTH 600 0
DWIDTH 7 0
BBX 7 10 0 0
BITMAP
000CFF40
00000000
00290B00
00000000
09500770
0C100A50
0D000D20
3A002E00
5C14CB00
1DE95800
ENDCHAR
STARTCHAR uni01D7
ENCODING 471
SWIDTH 600 0
DWIDTH 7 0
BBX 7 12 0 0
BITMAP
00000910
00006500
000B0920
00000000
059000E0
086002B0
0B300680
0D000950
1C000C20
3B001E00
1E31A800
06EE9000
ENDCHAR
STARTCHAR uni01D8
ENCODING 472
SWIDTH 600 0
DWIDTH 7 0
BBX 7 10 0 0
BITMAP
00001900
00007200
00290B00
00000000
09500770
0C100A50
0D000D20
3A002E00
5C14CB00
1DE95800
ENDCHAR
STARTCHAR uni01D9
ENCODING 473
SWIDTH 600 0
DWIDTH 7 0
BBX 7 11 0 0
BITMAP
00039830
000B0920
00000000
059000E0
086002B0
0B300680
0D000950
1C000C20
3B001E00
1E31A800
06EE9000
ENDCHAR
STARTCHAR uni01DA
ENCODING 474
SWIDTH 600 0
DWIDTH 7 0
BBX 7 10 0 0
BITMAP
00058710
00000000
00290B00
00000000
09500770
0C100A50
0D000D20
3A002E00
5C14CB00
1DE95800
ENDCHAR
STARTCHAR uni01DB
ENCODING 475
SWIDTH 600 0
DWIDTH 7 0
BBX 7 12 0 0
BITMAP
00019000
00008100
000B0920
00000000
059000E0
086002B0
0B300680
0D000950
1C000C20
3B001E00
1E31A800
06EE9000
ENDCHAR
STARTCHAR uni01DC
ENCODING 476
SWIDTH 600 0
DWIDTH 7 0
BBX 7 10 0 0
BITMAP
00027000
00009000
00290B00
00000000
09500770
0C100A50
0D000D20
3A002E00
5C14CB00
1DE95800
ENDCHAR
STARTCHAR uni01E2
ENCODING 482
SWIDTH 600 0
DWIDTH 7 0
BBX 9 10 -1 0
BITMAP
000008FF90
0000000000
00004FFFB0
0000CB3000
00077B0000
002C1FF900
00A5390000
04FFF60000
0C40930000
7900CFF600
ENDCHAR
STARTCHAR uni01E3
ENCODING 483
SWIDTH 600 0
DWIDTH 7 0
BBX 9 8 -1 0
BITMAP
0002FFE000
0000000000
01AE97EB00
0241C71A20
0049ECCE20
0B96C33300
3B16D12200
1DD76EC200
ENDCHAR
STARTCHAR Gcaron
ENCODING 486
SWIDTH 600 0
DWIDTH 7 0
BBX 7 10 0 0
BITMAP
00074390
0001CC10
002BED30
02E61470
0A600000
1E000000
4B01FF60
3C000930
0D612D00
03CED600
ENDCHAR
STARTCHAR gcaron
ENCODING 487
SWIDTH 600 0
DWIDTH 7 0
BBX 7 11 0 -2
BITMAP
00090650
0005D700
00000000
019ED880
0A912D50
2C000B20
5A002D00
2E89DA00
03757700
5303D200
4DFC5000
ENDCHAR
STARTCHAR uni01EA
ENCODING 490
SWIDTH 600 0
DWIDTH 7 0
BBX 7 11 0 -3
BITMAP
006DE900
06C21A70
0D2003B0
5A0003B0
77000690
78000C40
3D219A00
07EF9100
01810000
07510000
05E60000
ENDCHAR
STARTCHAR uni01EB
ENCODING 491
SWIDTH 600 0
DWIDTH 7 0
BBX 7 9 0 -3
BITMAP
019ED600
0B813D20
4B000940
68000C20
4D219B00
08EFA100
01810000
07510000
05E60000
ENDCHAR
STARTCHAR uni01F4
ENCODING 500
SWIDTH 600 0
DWIDTH 7 0
BBX 7 10 0 0
BITMAP
00000760
00008700
002BED30
02E61470
0A600000
1E000000
4B01FF60
3C000930
0D612D00
03CED600
ENDCHAR
STARTCHAR uni01F5
ENCODING 501
SWIDTH 600 0
DWIDTH 7 0
BBX 7 11 0 -2
BITMAP
00002B10
0001A200
00000000
019ED880
0A912D50
2C000B20
5A002D00
2E89DA00
03757700
5303D200
4DFC5000
ENDCHAR
STARTCHAR uni01F8
ENCODING 504
SWIDTH 600 0
DWIDTH 7 0
BBX 7 10 0 0
BITMAP
00075000
0001A200
03E000D0
06C403B0
09690580
0C1C0850
0D093B20
3A048D00
6700CB00
9400A800
ENDCHAR
STARTCHAR uni01F9
ENCODING 505
SWIDTH 600 0
DWIDTH 7 0
BBX 7 10 0 0
BITMAP
00075000
0003C000
00008300
00000000
0859ED10
0AC41B50
0D200A30
1D000D10
4A001C00
77004900
ENDCHAR
STARTCHAR Aringacute
ENCODING 506
SWIDTH 600 0
DWIDTH 7 0
BBX 8 12 -1 0
BITMAP
00000010
00000192
00003480
00004E90
00004F20
0000CA40
00059750
000D2670
00690490
01EFFFB0
07A001D0
1D2000E0
ENDCHAR
STARTCHAR aringacute
ENCODING 507
SWIDTH 600 0
DWIDTH 7 0
BBX 7 10 0 0
BITMAP
00003900
0003F900
00093B00
0006E600
009ED780
0A922C50
2D000B20
59000E00
4D12AB00
09EC7900
ENDCHAR
STARTCHAR AEacute
ENCODING 508
SWIDTH 600 0
DWIDTH 7 0
BBX 9 10 -1 0
BITMAP
0000000770
0000007700
00004FFFB0
0000CB3000
00077B0000
002C1FF900
00A5390000
04FFF60000
0C40930000
7900CFF600
ENDCHAR
STARTCHAR aeacute
ENCODING 509
SWIDTH 600 0
DWIDTH 7 0
BBX 9 9 -1 0
BITMAP
000003A000
0000391000
0000000000
01AE97EB00
0241C71A20
0049ECCE20
0B96C33300
3B16D12200
1DD76EC200
ENDCHAR
STARTCHAR Oslashacute
ENCODING 510
SWIDTH 600 0
DWIDTH 7 0
BBX 8 11 0 -1
BITMAP
00001A20
0000A410
006DE9B3
06C21C90
1D208AB0
5A0693B0
774A0690
7AB10C30
4F319B00
C8EE9100
10000000
ENDCHAR
STARTCHAR oslashacute
ENCODING 511
SWIDTH 600 0
DWIDTH 7 0
BBX 7 10 0 -1
BITMAP
00003A00
00039100
00000010
019EE990
0B818E30
4B088950
68970C30
4E629A00
A9EE9100
10000000
ENDCHAR
STARTCHAR uni0218
ENCODING 536
SWIDTH 600 0
DWIDTH 7 0
BBX 7 11 0 -3
BITMAP
006DE800
02D21930
03C00000
009C4000
0004D500
00003B00
4A219900
07EEA100
00970000
004B0000
06C30000
ENDCHAR
STARTCHAR uni0219
ENCODING 537
SWIDTH 600 0
DWIDTH 7 0
BBX 6 9 0 -3
BITMAP
01BED5
069139
02C820
0015B6
2A3169
06DFC2
009800
004B00
06C300
ENDCHAR
STARTCHAR uni021A
ENCODING 538
SWIDTH 600 0
DWIDTH 7 0
BBX 7 11 1 -3
BITMAP
BFFFFF60
00590000
00860000
00B30000
00D00000
02C00000
05900000
08600000
0C400000
08600000
AA100000
ENDCHAR
STARTCHAR uni021B
ENCODING 539
SWIDTH 600 0
DWIDTH 7 0
BBX 7 11 0 -3
BITMAP
000C0000
002B0000
1EFFFF70
00860000
00B20000
00D00000
01E21300
009ED500
001D2000
000A4000
00C90000
ENDCHAR
STARTCHAR uni0237
ENCODING 567
SWIDTH 600 0
DWIDTH 7 0
BBX 7 8 -1 -2
BITMAP
005FFF30
00000C00
00001C00
00005900
00008600
0000C200
0315D000
1BEC3000
ENDCHAR
STARTCHAR uni0243
ENCODING 579
SWIDTH 600 0
DWIDTH 7 0
BBX 7 8 0 0
BITMAP
00FFEB20
03B01980
06702B40
09FFF500
0D103D10
EFFB0B30
3B015D00
6FFEB300
ENDCHAR
STARTCHAR uni0250
ENCODING 592
SWIDTH 600 0
DWIDTH 7 0
BBX 7 6 0 0
BITMAP
096BEC10
0BC31A50
0E126D10
2FEC8200
3C126400
0AFD8100
ENDCHAR
STARTCHAR uni0251
ENCODING 593
SWIDTH 600 0
DWIDTH 7 0
BBX 7 6 0 0
BITMAP
009ED780
0A922D50
2D000B20
59000E00
4D12AB00
09EC7900
ENDCHAR
STARTCHAR uni0252
ENCODING 594
SWIDTH 600 0
DWIDTH 7 0
BBX 7 6 0 0
BITMAP
087BEA00
0AB21C50
0D100860
1C000B30
4D318B00
78CEA100
ENDCHAR
STARTCHAR uni0253
ENCODING 595
SWIDTH 600 0
DWIDTH 7 0
BBX 7 9 0 0
BITMAP
005DE200
01E31000
04A00000
079BEA00
0AB21C50
0D100860
1C000B30
4D318B00
78CEA100
ENDCHAR
STARTCHAR uni0254
ENCODING 596
SWIDTH 600 0
DWIDTH 7 0
BBX 7 6 0 0
BITMAP
02BFC400
06415E00
00000D20
00001E00
5513C700
2BEC6000
ENDCHAR
STARTCHAR uni0255
ENCODING 597
SWIDTH 600 0
DWIDTH 7 0
BBX 7 7 0 -1
BITMAP
007DE900
08B21730
1D100000
2B2AE900
0DC53B00
0BBED400
57000000
ENDCHAR
STARTCHAR uni0256
ENCODING 598
SWIDTH 600 0
DWIDTH 7 0
BBX 8 11 0 -2
BITMAP
000000C2
000000D0
000003A0
009ED970
0A922C40
2D000B10
59000D00
4D12AA00
09EC9700
00008600
00006E20
ENDCHAR
STARTCHAR uni0257
ENCODING 599
SWIDTH 600 0
DWIDTH 7 0
BBX 9 9 0 0
BITMAP
0000006E30
000000E200
000002C000
009ED99000
0A922C6000
2D000B3000
59000E0000
4D12BC0000
09EC790000
ENDCHAR
STARTCHAR uni0258
ENCODING 600
SWIDTH 600 0
DWIDTH 7 0
BBX 7 6 0 0
BITMAP
019EE600
0A512C20
1FFFFF50
00000D30
17129B00
08ED9100
ENDCHAR
STARTCHAR uni0259
ENCODING 601
SWIDTH 600 0
DWIDTH 7 0
BBX 7 6 0 0
BITMAP
019EE800
03513D30
00000950
4FFFFF30
4A115A00
09ED9100
ENDCHAR
STARTCHAR uni025A
ENCODING 602
SWIDTH 600 0
DWIDTH 7 0
BBX 8 6 0 0
BITMAP
08EE5000
0414E851
016AF4E6
9942C000
D22B5000
6ED60000
ENDCHAR
STARTCHAR uni025B
ENCODING 603
SWIDTH 600 0
DWIDTH 7 0
BBX 7 6 0 0
BITMAP
02BEE800
07A12830
04EF9000
3C200000
4C203400
08EFB300
ENDCHAR
STARTCHAR uni025C
ENCODING 604
SWIDTH 600 0
DWIDTH 7 0
BBX 7 6 0 0
BITMAP
02AEE900
03413D10
008FF300
00005C00
38217B00
08EEB200
ENDCHAR
STARTCHAR uni025E
ENCODING 606
SWIDTH 600 0
DWIDTH 7 0
BBX 7 6 0 0
BITMAP
019EEA10
0B822D20
4B0CF500
68003D00
3D305D00
06DEB300
ENDCHAR
STARTCHAR uni025F
ENCODING 607
SWIDTH 600 0
DWIDTH 7 0
BBX 8 8 -1 -2
BITMAP
005FFF40
00000C10
00000D00
007EFFF9
00006800
0000A400
0305E000
1BED4000
ENDCHAR
STARTCHAR uni0260
ENCODING 608
SWIDTH 600 0
DWIDTH 7 0
BBX 9 10 0 -2
BITMAP
0000008E10
000002C100
009ED88000
09A22D4000
2D000B1000
4A000C0000
3D22AA0000
09EC970000
5313C20000
4DFD500000
ENDCHAR
STARTCHAR uni0261
ENCODING 609
SWIDTH 600 0
DWIDTH 7 0
BBX 7 8 0 -2
BITMAP
019ED880
0A912D50
2C000B20
5A002D00
2E89DA00
03757700
5303D200
4DFC5000
ENDCHAR
STARTCHAR uni0262
ENCODING 610
SWIDTH 600 0
DWIDTH 7 0
BBX 7 6 0 0
BITMAP
007DE900
09A21730
1D000000
3B04FF10
1E402C00
04DED500
ENDCHAR
STARTCHAR uni0263
ENCODING 611
SWIDTH 600 0
DWIDTH 7 0
BBX 6 8 1 -2
BITMAP
C1004A
8501C1
490940
0C4900
0BC100
1AC000
84D000
7E7000
ENDCHAR
STARTCHAR uni0264
ENCODING 612
SWIDTH 600 0
DWIDTH 7 0
BBX 6 6 1 0
BITMAP
AE57E9
14FB11
1B5D10
840A40
C42D20
6ED500
ENDCHAR
STARTCHAR uni0265
ENCODING 613
SWIDTH 600 0
DWIDTH 7 0
BBX 7 8 0 -2
BITMAP
09500670
0C100A40
0D000D10
3A001D00
5C14CA00
1DE97700
0000A400
0000D100
ENDCHAR
STARTCHAR uni0266
ENCODING 614
SWIDTH 600 0
DWIDTH 7 0
BBX 7 9 0 0
BITMAP
005DE200
01E31000
04A00000
0779ED10
0AC41B50
0D200A30
1D000D10
4A001C00
77004900
ENDCHAR
STARTCHAR uni0267
ENCODING 615
SWIDTH 600 0
DWIDTH 7 0
BBX 7 11 0 -2
BITMAP
005DE200
01E31000
04A00000
0779ED10
0AC41B50
0D200A30
1D000D00
4A002C00
77005900
0001A500
001EB000
ENDCHAR
STARTCHAR uni0268
ENCODING 616
SWIDTH 600 0
DWIDTH 7 0
BBX 5 8 1 0
BITMAP
005B00
000000
AFF500
00C100
DFFFB0
04A000
06A120
02DE70
ENDCHAR
STARTCHAR uni026A
ENCODING 618
SWIDTH 600 0
DWIDTH 7 0
BBX 7 6 0 0
BITMAP
07FFFF50
000B4000
000E1000
002C0000
00590000
7FFFF500
ENDCHAR
STARTCHAR uni026B
ENCODING 619
SWIDTH 600 0
DWIDTH 7 0
BBX 5 9 1 0
BITMAP
4FF900
007600
04A320
7CF390
A2FE30
058000
085000
096110
04EE40
ENDCHAR
STARTCHAR uni026C
ENCODING 620
SWIDTH 600 0
DWIDTH 7 0
BBX 5 9 1 0
BITMAP
4FF900
008500
ACD200
C4E000
8FFF70
058000
085000
097110
04EE40
ENDCHAR
STARTCHAR uni026D
ENCODING 621
SWIDTH 600 0
DWIDTH 7 0
BBX 4 11 1 -2
BITMAP
4FF9
0076
00A3
00D0
02B0
0580
0850
0B20
0D00
1E12
0AEB
ENDCHAR
STARTCHAR uni026E
ENCODING 622
SWIDTH 600 0
DWIDTH 7 0
BBX 7 11 0 -2
BITMAP
02C00000
05900000
08600000
0BFFFFE0
0D102920
1D049100
4A2FF900
77012E10
A4000D00
07318900
05DE9100
ENDCHAR
STARTCHAR uni026F
ENCODING 623
SWIDTH 600 0
DWIDTH 7 0
BBX 7 6 0 0
BITMAP
1D0851D0
3A0B24A0
670D0770
943B0A40
C3A94E10
AD7E9C00
ENDCHAR
STARTCHAR uni0270
ENCODING 624
SWIDTH 600 0
DWIDTH 7 0
BBX 7 8 0 -2
BITMAP
1D0851C0
4A0C2490
770D0760
A43A0A30
C3A94E00
AD7E9B00
00004900
00007600
ENDCHAR
STARTCHAR uni0271
ENCODING 625
SWIDTH 600 0
DWIDTH 7 0
BBX 7 8 0 -2
BITMAP
0CAE7D90
2E4AA4B0
590B2590
860D0850
B33B0C20
D0670E00
00005B00
0006E400
ENDCHAR
STARTCHAR uni0272
ENCODING 626
SWIDTH 600 0
DWIDTH 7 0
BBX 8 8 -1 -2
BITMAP
00859ED1
00BC41B5
00E200A3
02D000D1
05A001C0
08600490
1C300000
EA000000
ENDCHAR
STARTCHAR uni0273
ENCODING 627
SWIDTH 600 0
DWIDTH 7 0
BBX 7 8 0 -2
BITMAP
0659ED20
0AC41B50
0D200A30
1D000D00
4A001C00
77005800
00007700
00005E30
ENDCHAR
STARTCHAR uni0274
ENCODING 628
SWIDTH 600 0
DWIDTH 7 0
BBX 7 6 0 0
BITMAP
05D00B30
08D40D00
0B5A1C00
0D0C5900
2C06D600
4901E400
ENDCHAR
STARTCHAR uni0275
ENCODING 629
SWIDTH 600 0
DWIDTH 7 0
BBX 7 6 0 0
BITMAP
019ED600
0A411C20
4FFFFF50
67000C30
3D219A00
07EE9100
ENDCHAR
STARTCHAR uni0276
ENCODING 630
SWIDTH 600 0
DWIDTH 7 0
BBX 8 6 0 0
BITMAP
05DFE994
4D32A000
B305FF80
E0085000
D50B2000
4DFFFF80
ENDCHAR
STARTCHAR uni0278
ENCODING 632
SWIDTH 600 0
DWIDTH 7 0
BBX 7 11 0 -2
BITMAP
0000E100
0001D000
0004A000
03BEE900
2D5A6B60
960D15A0
B42D0780
8A695D10
1AFFB300
00B30000
00E00000
ENDCHAR
STARTCHAR uni0279
ENCODING 633
SWIDTH 600 0
DWIDTH 7 0
BBX 6 6 0 0
BITMAP
00002C
000059
000076
0001D3
113AD1
6EB2C0
ENDCHAR
STARTCHAR uni027A
ENCODING 634
SWIDTH 600 0
DWIDTH 7 0
BBX 7 9 0 0
BITMAP
00000770
00000A40
00000D10
00001D00
00004A00
00007700
0001D400
113AD100
6EB2C000
ENDCHAR
STARTCHAR uni027B
ENCODING 635
SWIDTH 600 0
DWIDTH 7 0
BBX 5 8 0 -2
BITMAP
0000D0
0002B0
000580
000850
114E20
6E9C00
001C10
000DD0
ENDCHAR
STARTCHAR uni027D
ENCODING 637
SWIDTH 600 0
DWIDTH 7 0
BBX 6 8 1 -2
BITMAP
0B2BE7
0DA311
3D1000
680000
950000
C20000
D41200
6ED400
ENDCHAR
STARTCHAR uni027E
ENCODING 638
SWIDTH 600 0
DWIDTH 7 0
BBX 6 6 1 0
BITMAP
02AEE6
0B8111
2D0000
590000
860000
B30000
ENDCHAR
STARTCHAR uni0280
ENCODING 640
SWIDTH 600 0
DWIDTH 7 0
BBX 7 6 0 0
BITMAP
01FFF900
04A01E10
07703D00
0AFFD400
0D22C000
1D00A400
ENDCHAR
STARTCHAR uni0281
ENCODING 641
SWIDTH 600 0
DWIDTH 7 0
BBX 6 6 0 0
BITMAP
05900D
00C22C
04DFF9
1D3087
2D10B4
0AFFF1
ENDCHAR
STARTCHAR uni0282
ENCODING 642
SWIDTH 600 0
DWIDTH 7 0
BBX 6 8 0 -2
BITMAP
01BED5
069139
02C820
0015B6
3A3169
8BEFC2
A40000
6E3000
ENDCHAR
STARTCHAR uni0283
ENCODING 643
SWIDTH 600 0
DWIDTH 7 0
BBX 9 11 -1 -2
BITMAP
000006ED30
00001E2220
00004B0000
0000870000
0000B40000
0000E10000
0002D00000
0005A00000
0008700000
031D300000
1CE8000000
ENDCHAR
STARTCHAR uni0284
ENCODING 644
SWIDTH 600 0
DWIDTH 7 0
BBX 9 11 -1 -2
BITMAP
000006ED30
00001E2220
00004A0000
0000870000
0000B40000
00DFFFF200
0001D00000
0004A00000
0008700000
031C300000
1CE9000000
ENDCHAR
STARTCHAR uni0287
ENCODING 647
SWIDTH 600 0
DWIDTH 7 0
BBX 6 8 0 -2
BITMAP
06DE80
0312E0
0000D0
0003A0
000670
7FFFFE
000C10
000C00
ENDCHAR
STARTCHAR uni0288
ENCODING 648
SWIDTH 600 0
DWIDTH 7 0
BBX 7 10 0 -2
BITMAP
000C0000
002B0000
1EFFFF70
00860000
00B20000
00D00000
02B00000
06700000
07913100
02DEB200
ENDCHAR
STARTCHAR uni0289
ENCODING 649
SWIDTH 600 0
DWIDTH 7 0
BBX 7 6 0 0
BITMAP
04900C20
07600E00
AFFFFFC0
0D105900
0E24D600
0AE9A300
ENDCHAR
STARTCHAR uni028A
ENCODING 650
SWIDTH 600 0
DWIDTH 7 0
BBX 7 6 0 0
BITMAP
0CF57FA0
03802A00
0C000D00
3A001D00
3D22B700
08EE7000
ENDCHAR
STARTCHAR uni028B
ENCODING 651
SWIDTH 600 0
DWIDTH 7 0
BBX 7 6 0 0
BITMAP
0950CC10
0C101B50
0D000A30
3B001D10
3D22B600
09EE6000
ENDCHAR
STARTCHAR uni028C
ENCODING 652
SWIDTH 600 0
DWIDTH 7 0
BBX 6 6 0 0
BITMAP
000BB0
0067D0
01C1B2
085086
2B0059
B3002C
ENDCHAR
STARTCHAR uni028D
ENCODING 653
SWIDTH 600 0
DWIDTH 7 0
BBX 8 6 -1 0
BITMAP
004F22F4
00AB28B5
01B93B85
07688685
0C18C186
49056086
ENDCHAR
STARTCHAR uni028E
ENCODING 654
SWIDTH 600 0
DWIDTH 7 0
BBX 8 9 0 0
BITMAP
000009E6
00008811
0003A000
000BA000
0057C000
01C1B200
08608500
2B005900
B3001C00
ENDCHAR
STARTCHAR uni028F
ENCODING 655
SWIDTH 600 0
DWIDTH 7 0
BBX 6 6 1 0
BITMAP
870096
3D06A0
0C6C10
06F300
04A000
077000
ENDCHAR
STARTCHAR uni0290
ENCODING 656
SWIDTH 600 0
DWIDTH 7 0
BBX 7 8 0 -2
BITMAP
08FFFF50
00007900
00088000
00A60000
1A500000
8FFFF900
00007700
00005E50
ENDCHAR
STARTCHAR uni0291
ENCODING 657
SWIDTH 600 0
DWIDTH 7 0
BBX 7 7 0 -1
BITMAP
08FFFF40
00008700
00096000
00A54E80
1B42B490
8FFFFC20
00190000
ENDCHAR
STARTCHAR uni0292
ENCODING 658
SWIDTH 600 0
DWIDTH 7 0
BBX 8 8 -1 -2
BITMAP
005FFFE3
00001720
00048100
004FFB10
00111A70
00000770
19214D10
05DEB300
ENDCHAR
STARTCHAR uni0294
ENCODING 660
SWIDTH 600 0
DWIDTH 7 0
BBX 6 9 1 0
BITMAP
07DEA1
3821B7
000077
0000B2
002A40
03C100
067000
094000
0C1000
ENDCHAR
STARTCHAR uni0295
ENCODING 661
SWIDTH 600 0
DWIDTH 7 0
BBX 6 9 1 0
BITMAP
03CEC2
1D5149
3B0000
2C0000
097000
00C400
00D100
01D000
04A000
ENDCHAR
STARTCHAR uni0298
ENCODING 664
SWIDTH 600 0
DWIDTH 7 0
BBX 7 9 0 0
BITMAP
003CE900
01D51B50
08700490
0D100480
1C0B4670
2B000A40
2B001D00
0D32B600
05DE7000
ENDCHAR
STARTCHAR uni0299
ENCODING 665
SWIDTH 600 0
DWIDTH 7 0
BBX 7 6 0 0
BITMAP
02FFFB00
05802D10
08FFF500
0B204C00
0D006B00
2FFEB200
ENDCHAR
STARTCHAR uni029C
ENCODING 668
SWIDTH 600 0
DWIDTH 7 0
BBX 7 6 0 0
BITMAP
08600860
0B200C30
0EFFFF00
1C002C00
49005900
76008600
ENDCHAR
STARTCHAR uni029D
ENCODING 669
SWIDTH 600 0
DWIDTH 7 0
BBX 6 11 0 -3
BITMAP
000079
000000
05FFF3
0000C0
0002B0
000580
000950
7ECD10
D29E10
9EB960
000370
ENDCHAR
STARTCHAR uni029E
ENCODING 670
SWIDTH 600 0
DWIDTH 7 0
BBX 7 8 0 -2
BITMAP
0D100A40
06800C10
00D3BD00
008D6A00
06B17700
7900A300
0000D000
0001C000
ENDCHAR
STARTCHAR uni029F
ENCODING 671
SWIDTH 600 0
DWIDTH 7 0
BBX 5 6 1 0
BITMAP
0A4000
0D1000
1D0000
4A0000
760000
AFFFD0
ENDCHAR
STARTCHAR uni02A1
ENCODING 673
SWIDTH 600 0
DWIDTH 7 0
BBX 6 9 1 0
BITMAP
07DEA1
3821B7
000077
0001B1
005A20
DFFFE0
068000
095000
0C2000
ENDCHAR
STARTCHAR uni02A2
ENCODING 674
SWIDTH 600 0
DWIDTH 7 0
BBX 6 9 1 0
BITMAP
03CEC2
1D5149
3B0000
2D0000
079000
CFFFF1
00C200
01D000
04A000
ENDCHAR
STARTCHAR uni02A4
ENCODING 676
SWIDTH 600 0
DWIDTH 7 0
BBX 9 11 -1 -2
BITMAP
00000D0000
00002C0000
0000490000
01AEAFFFB0
0981D41920
0D00C29100
2B01C9F800
2D19912E00
0AD9601D00
0002519800
0001BE9000
ENDCHAR
STARTCHAR uni02A6
ENCODING 678
SWIDTH 600 0
DWIDTH 7 0
BBX 7 8 0 0
BITMAP
00900000
03A00000
4FFFFE70
0A43B130
0D11C600
1C001C30
3D202B40
09EFD700
ENDCHAR
STARTCHAR uni02A7
ENCODING 679
SWIDTH 600 0
DWIDTH 7 0
BBX 7 11 1 -2
BITMAP
00000BE0
08406A00
0C10A500
DFFFF200
3B00D000
6703A000
A4077000
C31A4000
8E6D1000
004C0000
08E40000
ENDCHAR
STARTCHAR h.sups
ENCODING 688
SWIDTH 600 0
DWIDTH 7 0
BBX 5 7 2 4
BITMAP
070000
0B0000
0BBD10
3B1920
650A10
920B00
300300
ENDCHAR
STARTCHAR j.sups
ENCODING 690
SWIDTH 600 0
DWIDTH 7 0
BBX 5 7 1 3
BITMAP
000390
03FF30
000900
000A00
001A00
117600
4EC100
ENDCHAR
STARTCHAR r.sups
ENCODING 691
SWIDTH 600 0
DWIDTH 7 0
BBX 5 5 2 4
BITMAP
078E50
0A9100
0B0000
0B0000
130000
ENDCHAR
STARTCHAR w.sups
ENCODING 695
SWIDTH 600 0
DWIDTH 7 0
BBX 6 4 1 5
BITMAP
282C0A
199A37
0B99A1
0E3890
ENDCHAR
STARTCHAR y.sups
ENCODING 696
SWIDTH 600 0
DWIDTH 7 0
BBX 6 6 1 3
BITMAP
047083
01A2A0
00A920
009900
01C200
4E5000
ENDCHAR
STARTCHAR uni02B9
ENCODING 697
SWIDTH 600 0
DWIDTH 7 0
BBX 3 3 3 5
BITMAP
0C10
1A00
6400
ENDCHAR
STARTCHAR uni02BB
ENCODING 699
SWIDTH 600 0
DWIDTH 7 0
BBX 3 5 3 4
BITMAP
0590
4C20
B300
DC00
AB00
ENDCHAR
STARTCHAR uni02BC
ENCODING 700
SWIDTH 600 0
DWIDTH 7 0
BBX 4 5 2 3
BITMAP
05E2
06F5
00C2
08A0
4910
ENDCHAR
STARTCHAR uni02BE
ENCODING 702
SWIDTH 600 0
DWIDTH 7 0
BBX 3 4 3 6
BITMAP
6C10
0760
0660
8800
ENDCHAR
STARTCHAR uni02BF
ENCODING 703
SWIDTH 600 0
DWIDTH 7 0
BBX 3 4 3 6
BITMAP
0870
7500
7600
1C50
ENDCHAR
STARTCHAR uni02C1
ENCODING 705
SWIDTH 600 0
DWIDTH 7 0
BBX 4 6 3 5
BITMAP
4DC1
B133
B000
7700
2900
0100
ENDCHAR
STARTCHAR circumflex
ENCODING 710
SWIDTH 600 0
DWIDTH 7 0
BBX 4 2 2 7
BITMAP
07D6
560A
ENDCHAR
STARTCHAR caron
ENCODING 711
SWIDTH 600 0
DWIDTH 7 0
BBX 5 2 2 7
BITMAP
190830
08D500
ENDCHAR
STARTCHAR uni02C8
ENCODING 712
SWIDTH 600 0
DWIDTH 7 0
BBX 3 4 3 5
BITMAP
1F10
3B00
5700
5300
ENDCHAR
STARTCHAR uni02C9
ENCODING 713
SWIDTH 600 0
DWIDTH 7 0
BBX 4 1 2 7
BITMAP
3FFD
ENDCHAR
STARTCHAR uni02CA
ENCODING 714
SWIDTH 600 0
DWIDTH 7 0
BBX 3 2 3 7
BITMAP
03A0
3910
ENDCHAR
STARTCHAR uni02CB
ENCODING 715
SWIDTH 600 0
DWIDTH 7 0
BBX 3 3 3 7
BITMAP
9200
5A00
0910
ENDCHAR
STARTCHAR uni02CC
ENCODING 716
SWIDTH 600 0
DWIDTH 7 0
BBX 3 4 1 -3
BITMAP
0640
0A20
0E10
3E00
ENDCHAR
STARTCHAR uni02D0
ENCODING 720
SWIDTH 600 0
DWIDTH 7 0
BBX 3 6 2 0
BITMAP
0DA0
0810
0000
0000
3600
CB00
ENDCHAR
STARTCHAR uni02D1
ENCODING 721
SWIDTH 600 0
DWIDTH 7 0
BBX 2 2 3 4
BITMAP
DA
81
ENDCHAR
STARTCHAR breve
ENCODING 728
SWIDTH 600 0
DWIDTH 7 0
BBX 5 2 2 7
BITMAP
481940
1BE800
ENDCHAR
STARTCHAR dotaccent
ENCODING 729
SWIDTH 600 0
DWIDTH 7 0
BBX 3 1 3 7
BITMAP
3D10
ENDCHAR
STARTCHAR ring
ENCODING 730
SWIDTH 600 0
DWIDTH 7 0
BBX 3 3 3 6
BITMAP
6E70
B3A0
9E40
ENDCHAR
STARTCHAR ogonek
ENCODING 731
SWIDTH 600 0
DWIDTH 7 0
BBX 3 3 1 -3
BITMAP
0710
6510
5E60
ENDCHAR
STARTCHAR tilde
ENCODING 732
SWIDTH 600 0
DWIDTH 7 0
BBX 5 2 2 7
BITMAP
3B8370
817D20
ENDCHAR
STARTCHAR hungarumlaut
ENCODING 733
SWIDTH 600 0
DWIDTH 7 0
BBX 4 2 3 7
BITMAP
1A29
7391
ENDCHAR
STARTCHAR uni02DE
ENCODING 734
SWIDTH 600 0
DWIDTH 7 0
BBX 4 3 2 3
BITMAP
0220
6B60
01D4
ENDCHAR
STARTCHAR uni02E0
ENCODING 736
SWIDTH 600 0
DWIDTH 7 0
BBX 5 6 2 3
BITMAP
460650
191900
0A9200
088000
179000
2E5000
ENDCHAR
STARTCHAR l.sups
ENCODING 737
SWIDTH 600 0
DWIDTH 7 0
BBX 3 7 3 4
BITMAP
6F30
0900
0A00
0A00
3700
5610
3E60
ENDCHAR
STARTCHAR s.sups
ENCODING 738
SWIDTH 600 0
DWIDTH 7 0
BBX 4 5 2 4
BITMAP
0AE7
0B14
0471
4258
3DD3
ENDCHAR
STARTCHAR x.sups
ENCODING 739
SWIDTH 600 0
DWIDTH 7 0
BBX 4 4 2 5
BITMAP
0B1A
07B2
1AB0
8354
ENDCHAR
STARTCHAR uni02E4
ENCODING 740
SWIDTH 600 0
DWIDTH 7 0
BBX 4 7 3 4
BITMAP
4DC1
B133
B000
7600
2900
5600
1100
ENDCHAR
STARTCHAR uni0300
ENCODING 768
SWIDTH 600 0
DWIDTH 7 0
BBX 3 3 3 7
BITMAP
9200
5A00
0910
ENDCHAR
STARTCHAR uni0301
ENCODING 769
SWIDTH 600 0
DWIDTH 7 0
BBX 3 2 3 7
BITMAP
03A0
3910
ENDCHAR
STARTCHAR uni0302
ENCODING 770
SWIDTH 600 0
DWIDTH 7 0
BBX 4 2 2 7
BITMAP
07D6
560A
ENDCHAR
STARTCHAR uni0303
ENCODING 771
SWIDTH 600 0
DWIDTH 7 0
BBX 5 2 2 7
BITMAP
3B8370
817D20
ENDCHAR
STARTCHAR uni0304
ENCODING 772
SWIDTH 600 0
DWIDTH 7 0
BBX 4 1 2 7
BITMAP
3FFD
ENDCHAR
STARTCHAR uni0305
ENCODING 773
SWIDTH 600 0
DWIDTH 7 0
BBX 4 1 2 7
BITMAP
3FFD
ENDCHAR
STARTCHAR uni0306
ENCODING 774
SWIDTH 600 0
DWIDTH 7 0
BBX 5 2 2 7
BITMAP
481940
1BE800
ENDCHAR
STARTCHAR uni0307
ENCODING 775
SWIDTH 600 0
DWIDTH 7 0
BBX 3 1 3 7
BITMAP
3D10
ENDCHAR
STARTCHAR uni0308
ENCODING 776
SWIDTH 600 0
DWIDTH 7 0
BBX 4 1 2 7
BITMAP
3A0C
ENDCHAR
STARTCHAR uni0309
ENCODING 777
SWIDTH 600 0
DWIDTH 7 0
BBX 3 3 3 7
BITMAP
3D30
0950
2B10
ENDCHAR
STARTCHAR uni030A
ENCODING 778
SWIDTH 600 0
DWIDTH 7 0
BBX 3 3 3 6
BITMAP
6E70
B3A0
9E40
ENDCHAR
STARTCHAR uni030B
ENCODING 779
SWIDTH 600 0
DWIDTH 7 0
BBX 4 2 3 7
BITMAP
1A29
7391
ENDCHAR
STARTCHAR uni030C
ENCODING 780
SWIDTH 600 0
DWIDTH 7 0
BBX 5 2 2 7
BITMAP
190830
08D500
ENDCHAR
STARTCHAR uni030F
ENCODING 783
SWIDTH 600 0
DWIDTH 7 0
BBX 4 2 2 7
BITMAP
A1A0
5572
ENDCHAR
STARTCHAR uni0310
ENCODING 784
SWIDTH 600 0
DWIDTH 7 0
BBX 5 3 2 7
BITMAP
009300
473750
1CE800
ENDCHAR
STARTCHAR uni0311
ENCODING 785
SWIDTH 600 0
DWIDTH 7 0
BBX 5 2 2 7
BITMAP
0AE900
661B10
ENDCHAR
STARTCHAR uni0312
ENCODING 786
SWIDTH 600 0
DWIDTH 7 0
BBX 2 2 3 7
BITMAP
28
4A
ENDCHAR
STARTCHAR uni0313
ENCODING 787
SWIDTH 600 0
DWIDTH 7 0
BBX 3 2 3 7
BITMAP
1D10
2700
ENDCHAR
STARTCHAR uni0318
ENCODING 792
SWIDTH 600 0
DWIDTH 7 0
BBX 3 3 1 -3
BITMAP
0080
6F70
0340
ENDCHAR
STARTCHAR uni0319
ENCODING 793
SWIDTH 600 0
DWIDTH 7 0
BBX 3 3 1 -3
BITMAP
5300
8F60
8000
ENDCHAR
STARTCHAR uni031A
ENCODING 794
SWIDTH 600 0
DWIDTH 7 0
BBX 2 3 4 6
BITMAP
DF
09
01
ENDCHAR
STARTCHAR uni031B
ENCODING 795
SWIDTH 600 0
DWIDTH 7 0
BBX 3 3 3 5
BITMAP
00A0
03C0
1D40
ENDCHAR
STARTCHAR uni031C
ENCODING 796
SWIDTH 600 0
DWIDTH 7 0
BBX 3 2 1 -3
BITMAP
2D40
4C00
ENDCHAR
STARTCHAR uni031D
ENCODING 797
SWIDTH 600 0
DWIDTH 7 0
BBX 3 2 1 -2
BITMAP
0900
BF80
ENDCHAR
STARTCHAR uni031E
ENCODING 798
SWIDTH 600 0
DWIDTH 7 0
BBX 3 2 1 -3
BITMAP
8FA0
0900
ENDCHAR
STARTCHAR uni031F
ENCODING 799
SWIDTH 600 0
DWIDTH 7 0
BBX 3 3 1 -3
BITMAP
0800
AF90
0800
ENDCHAR
STARTCHAR uni0320
ENCODING 800
SWIDTH 600 0
DWIDTH 7 0
BBX 3 1 1 -2
BITMAP
AF90
ENDCHAR
STARTCHAR uni0323
ENCODING 803
SWIDTH 600 0
DWIDTH 7 0
BBX 3 1 1 -3
BITMAP
2D10
ENDCHAR
STARTCHAR uni0324
ENCODING 804
SWIDTH 600 0
DWIDTH 7 0
BBX 5 1 0 -3
BITMAP
1B0B10
ENDCHAR
STARTCHAR uni0325
ENCODING 805
SWIDTH 600 0
DWIDTH 7 0
BBX 3 3 1 -4
BITMAP
5E70
A2A0
8E50
ENDCHAR
STARTCHAR uni0326
ENCODING 806
SWIDTH 600 0
DWIDTH 7 0
BBX 3 3 1 -3
BITMAP
0D30
0860
AA10
ENDCHAR
STARTCHAR uni0327
ENCODING 807
SWIDTH 600 0
DWIDTH 7 0
BBX 3 4 1 -4
BITMAP
0810
0E40
0950
BA00
ENDCHAR
STARTCHAR uni0328
ENCODING 808
SWIDTH 600 0
DWIDTH 7 0
BBX 3 3 1 -3
BITMAP
0710
6510
5E60
ENDCHAR
STARTCHAR uni0329
ENCODING 809
SWIDTH 600 0
DWIDTH 7 0
BBX 2 2 1 -3
BITMAP
0A
1B
ENDCHAR
STARTCHAR uni032A
ENCODING 810
SWIDTH 600 0
DWIDTH 7 0
BBX 4 3 1 -4
BITMAP
DFF1
8080
1010
ENDCHAR
STARTCHAR uni032C
ENCODING 812
SWIDTH 600 0
DWIDTH 7 0
BBX 4 2 1 -3
BITMAP
9074
6D60
ENDCHAR
STARTCHAR uni032E
ENCODING 814
SWIDTH 600 0
DWIDTH 7 0
BBX 5 2 0 -3
BITMAP
2A1760
0AE900
ENDCHAR
STARTCHAR uni032F
ENCODING 815
SWIDTH 600 0
DWIDTH 7 0
BBX 5 2 0 -3
BITMAP
08EB00
581A20
ENDCHAR
STARTCHAR uni0330
ENCODING 816
SWIDTH 600 0
DWIDTH 7 0
BBX 5 2 0 -3
BITMAP
1BA290
636E40
ENDCHAR
STARTCHAR uni0331
ENCODING 817
SWIDTH 600 0
DWIDTH 7 0
BBX 4 1 0 -2
BITMAP
1FFF
ENDCHAR
STARTCHAR uni0334
ENCODING 820
SWIDTH 600 0
DWIDTH 7 0
BBX 5 3 1 2
BITMAP
040020
7CA390
A07E30
ENDCHAR
STARTCHAR uni0339
ENCODING 825
SWIDTH 600 0
DWIDTH 7 0
BBX 3 2 1 -3
BITMAP
0D30
5D20
ENDCHAR
STARTCHAR uni033A
ENCODING 826
SWIDTH 600 0
DWIDTH 7 0
BBX 3 3 1 -3
BITMAP
1010
8080
FFD0
ENDCHAR
STARTCHAR uni033B
ENCODING 827
SWIDTH 600 0
DWIDTH 7 0
BBX 4 2 0 -3
BITMAP
0DFF
1FFC
ENDCHAR
STARTCHAR uni033C
ENCODING 828
SWIDTH 600 0
DWIDTH 7 0
BBX 5 2 0 -3
BITMAP
2D9E30
83B550
ENDCHAR
STARTCHAR uni033D
ENCODING 829
SWIDTH 600 0
DWIDTH 7 0
BBX 3 2 3 7
BITMAP
4930
6A10
ENDCHAR
STARTCHAR uni0342
ENCODING 834
SWIDTH 600 0
DWIDTH 7 0
BBX 5 2 2 7
BITMAP
3B8370
817D20
ENDCHAR
STARTCHAR uni0345
ENCODING 837
SWIDTH 600 0
DWIDTH 7 0
BBX 2 2 2 -3
BITMAP
B0
A7
ENDCHAR
STARTCHAR uni035F
ENCODING 863
SWIDTH 600 0
DWIDTH 7 0
BBX 13 1 -4 -2
BITMAP
5FFFFFFFFFFF60
ENDCHAR
STARTCHAR uni0361
ENCODING 865
SWIDTH 600 0
DWIDTH 7 0
BBX 11 2 -1 7
BITMAP
038BEFEC9300
895320135960
ENDCHAR
STARTCHAR pi
ENCODING 960
SWIDTH 600 0
DWIDTH 7 0
BBX 8 6 0 0
BITMAP
2FFFFFF1
02A01C00
06704800
09408400
0D00B200
2B009D00
ENDCHAR
STARTCHAR a.sups
ENCODING 7491
SWIDTH 600 0
DWIDTH 7 0
BBX 5 5 2 4
BITMAP
1AEB10
871B00
B00A00
C25800
7E7300
ENDCHAR
STARTCHAR b.sups
ENCODING 7495
SWIDTH 600 0
DWIDTH 7 0
BBX 5 7 2 4
BITMAP
030000
0B0000
1CDB00
491B20
740A10
A33C00
6CD300
ENDCHAR
STARTCHAR d.sups
ENCODING 7496
SWIDTH 600 0
DWIDTH 7 0
BBX 5 7 2 4
BITMAP
000120
000650
1BEB20
961C00
B00B00
C16800
7E8300
ENDCHAR
STARTCHAR e.sups
ENCODING 7497
SWIDTH 600 0
DWIDTH 7 0
BBX 4 5 2 4
BITMAP
09E8
581A
9FFE
9323
3DD3
ENDCHAR
STARTCHAR g.sups
ENCODING 7501
SWIDTH 600 0
DWIDTH 7 0
BBX 6 6 1 3
BITMAP
01BEB1
0951B0
0C23A0
07EB80
041A40
1BEA00
ENDCHAR
STARTCHAR k.sups
ENCODING 7503
SWIDTH 600 0
DWIDTH 7 0
BBX 5 6 2 5
BITMAP
062000
0A0000
0B1930
2AC200
5A6600
730A00
ENDCHAR
STARTCHAR m.sups
ENCODING 7504
SWIDTH 600 0
DWIDTH 7 0
BBX 6 5 1 4
BITMAP
39D9CA
692C1B
83370A
A06428
302112
ENDCHAR
STARTCHAR o.sups
ENCODING 7506
SWIDTH 600 0
DWIDTH 7 0
BBX 4 5 2 4
BITMAP
09E8
781D
A00B
B24B
4EC2
ENDCHAR
STARTCHAR p.sups
ENCODING 7510
SWIDTH 600 0
DWIDTH 7 0
BBX 5 7 2 2
BITMAP
1BDC00
4A1A40
750830
942C00
BBD400
B00000
200000
ENDCHAR
STARTCHAR t.sups
ENCODING 7511
SWIDTH 600 0
DWIDTH 7 0
BBX 5 7 2 4
BITMAP
003000
019000
4FFF30
074000
091000
0B1100
08E700
ENDCHAR
STARTCHAR u.sups
ENCODING 7512
SWIDTH 600 0
DWIDTH 7 0
BBX 5 5 2 4
BITMAP
470920
640B00
920B00
A26A00
7E8700
ENDCHAR
STARTCHAR v.sups
ENCODING 7515
SWIDTH 600 0
DWIDTH 7 0
BBX 5 5 2 4
BITMAP
560A20
382A00
1A9300
0AB000
0C5000
ENDCHAR
STARTCHAR c.sups
ENCODING 7580
SWIDTH 600 0
DWIDTH 7 0
BBX 4 5 2 4
BITMAP
06EA
3B13
7400
7712
2DD3
ENDCHAR
STARTCHAR f.sups
ENCODING 7584
SWIDTH 600 0
DWIDTH 7 0
BBX 4 7 3 4
BITMAP
05EA
0C21
FFF4
2800
5500
8200
3000
ENDCHAR
STARTCHAR z.sups
ENCODING 7611
SWIDTH 600 0
DWIDTH 7 0
BBX 5 4 2 5
BITMAP
3FFC10
004100
041000
9FF800
ENDCHAR
STARTCHAR uni1E06
ENCODING 7686
SWIDTH 600 0
DWIDTH 7 0
BBX 7 10 0 -2
BITMAP
01FFEB10
03B01970
06700A50
09DCE600
0C436C10
0D000B30
3A015D00
6FFEB300
00000000
0DFF3000
ENDCHAR
STARTCHAR uni1E07
ENCODING 7687
SWIDTH 600 0
DWIDTH 7 0
BBX 7 11 0 -2
BITMAP
00E00000
02C00000
05900000
088BEA00
0BB31C50
0D100860
1C000B30
4D318B00
78CEA100
00000000
0CFF4000
ENDCHAR
STARTCHAR uni1E0C
ENCODING 7692
SWIDTH 600 0
DWIDTH 7 0
BBX 7 11 0 -3
BITMAP
04FFD600
07804D40
0A400690
0D1005A0
1D000780
4A000D30
7703C900
AFFD7000
00000000
00000000
03D00000
ENDCHAR
STARTCHAR uni1E0D
ENCODING 7693
SWIDTH 600 0
DWIDTH 7 0
BBX 8 12 0 -3
BITMAP
000000C2
000000D0
000003B0
009ED980
0A922D50
2D000B20
59000E00
4D12AB00
09EC7800
00000000
00000000
00D40000
ENDCHAR
STARTCHAR uni1E0E
ENCODING 7694
SWIDTH 600 0
DWIDTH 7 0
BBX 7 10 0 -2
BITMAP
04FFD600
07804D40
0A400690
0D1005A0
1D000780
4A000D30
7703C900
AFFD7000
00000000
2FFE0000
ENDCHAR
STARTCHAR uni1E0F
ENCODING 7695
SWIDTH 600 0
DWIDTH 7 0
BBX 8 11 0 -2
BITMAP
000000C2
000000D0
000003B0
009ED980
0A922D50
2D000B20
59000E00
4D12AB00
09EC7800
00000000
0DFF3000
ENDCHAR
STARTCHAR uni1E10
ENCODING 7696
SWIDTH 600 0
DWIDTH 7 0
BBX 7 12 0 -4
BITMAP
04FFD600
07804D40
0A400690
0D1005A0
1D000780
4A000D30
7703C900
AFFD7000
00800000
02E10000
01B20000
0D800000
ENDCHAR
STARTCHAR uni1E11
ENCODING 7697
SWIDTH 600 0
DWIDTH 7 0
BBX 8 13 0 -4
BITMAP
000000C2
000000D0
000003B0
009ED980
0A922D50
2D000B20
59000E00
4D12AB00
09EC7800
00810000
01E30000
00950000
0B900000
ENDCHAR
STARTCHAR uni1E16
ENCODING 7702
SWIDTH 600 0
DWIDTH 7 0
BBX 8 13 0 0
BITMAP
00000380
00000910
00000000
0007FF90
00000000
00CFFFF1
00E00000
03A00000
06FFFB00
09500000
0C200000
0D000000
3FFFFB00
ENDCHAR
STARTCHAR uni1E17
ENCODING 7703
SWIDTH 600 0
DWIDTH 7 0
BBX 7 11 0 0
BITMAP
00001900
00006300
00000000
001FFF00
00000000
008EE800
08711B30
1FFFFF40
3B000000
1E414600
05DEA200
ENDCHAR
STARTCHAR uni1E20
ENCODING 7712
SWIDTH 600 0
DWIDTH 7 0
BBX 7 10 0 0
BITMAP
0009FF70
00000000
002BED30
02E61470
0A600000
1E000000
4B01FF60
3C000930
0D612D00
03CED600
ENDCHAR
STARTCHAR uni1E21
ENCODING 7713
SWIDTH 600 0
DWIDTH 7 0
BBX 7 10 0 -2
BITMAP
000FFF10
00000000
019ED880
0A912D50
2C000B20
5A002D00
2E89DA00
03757700
5303D200
4DFC5000
ENDCHAR
STARTCHAR uni1E24
ENCODING 7716
SWIDTH 600 0
DWIDTH 7 0
BBX 7 11 0 -3
BITMAP
059000E0
086003C0
0B200790
0EFFFF60
1C000C30
49000E00
76003C00
A4005900
00000000
00000000
02D10000
ENDCHAR
STARTCHAR uni1E25
ENCODING 7717
SWIDTH 600 0
DWIDTH 7 0
BBX 7 12 0 -3
BITMAP
00E00000
02C00000
05900000
0879ED10
0BC41B50
0D200A30
1D000D10
4A001C00
77004900
00000000
00000000
00C40000
ENDCHAR
STARTCHAR uni1E26
ENCODING 7718
SWIDTH 600 0
DWIDTH 7 0
BBX 7 10 0 0
BITMAP
000B0830
00000000
059000E0
086003C0
0B200790
0EFFFF60
1C000C30
49000E00
76003C00
A4005900
ENDCHAR
STARTCHAR uni1E27
ENCODING 7719
SWIDTH 600 0
DWIDTH 7 0
BBX 7 11 0 0
BITMAP
09265000
00000000
00E00000
02C00000
05900000
0879ED10
0BC41B50
0D200A30
1D000D10
4A001C00
77004900
ENDCHAR
STARTCHAR uni1E28
ENCODING 7720
SWIDTH 600 0
DWIDTH 7 0
BBX 8 12 -1 -4
BITMAP
0059000E
0086003C
00B20079
00EFFFF6
01C000C3
049000E0
076003C0
0A400590
08000000
2E200000
1A300000
C8000000
ENDCHAR
STARTCHAR uni1E29
ENCODING 7721
SWIDTH 600 0
DWIDTH 7 0
BBX 8 13 -1 -4
BITMAP
000E0000
002C0000
00590000
00879ED1
00BC41B5
00D200A3
01D000D1
04A001C0
07700490
07100000
0D400000
08600000
AA100000
ENDCHAR
STARTCHAR uni1E2A
ENCODING 7722
SWIDTH 600 0
DWIDTH 7 0
BBX 7 11 0 -3
BITMAP
059000E0
086003C0
0B200790
0EFFFF60
1C000C30
49000E00
76003C00
A4005900
00000000
2A176000
0AE90000
ENDCHAR
STARTCHAR uni1E2B
ENCODING 7723
SWIDTH 600 0
DWIDTH 7 0
BBX 7 12 0 -3
BITMAP
00E00000
02C00000
05900000
0879ED10
0BC41B50
0D200A30
1D000D10
4A001C00
77004900
00001000
0B149000
07EB2000
ENDCHAR
STARTCHAR uni1E32
ENCODING 7730
SWIDTH 600 0
DWIDTH 7 0
BBX 8 11 0 -3
BITMAP
01D003B1
03B03B10
0683B100
098E5000
0CC6B000
0E10D200
3B007900
68001E10
00000000
00000000
007A0000
ENDCHAR
STARTCHAR uni1E33
ENCODING 7731
SWIDTH 600 0
DWIDTH 7 0
BBX 7 12 0 -3
BITMAP
00C20000
00E00000
03B00000
06801A70
0852B400
0B6D7000
0EB3C000
2D009500
59002C00
00000000
00000000
00880000
ENDCHAR
STARTCHAR uni1E34
ENCODING 7732
SWIDTH 600 0
DWIDTH 7 0
BBX 8 10 0 -2
BITMAP
01D003B1
03B03B10
0683B100
098E5000
0CC6B000
0E10D200
3B007900
68001E10
00000000
06FFA000
ENDCHAR
STARTCHAR uni1E35
ENCODING 7733
SWIDTH 600 0
DWIDTH 7 0
BBX 7 11 0 -2
BITMAP
00C20000
00E00000
03B00000
06801A70
0852B400
0B6D7000
0EB3C000
2D009500
59002C00
00000000
08FF8000
ENDCHAR
STARTCHAR uni1E36
ENCODING 7734
SWIDTH 600 0
DWIDTH 7 0
BBX 6 11 1 -3
BITMAP
059000
086000
0B3000
0D0000
2C0000
590000
860000
BFFFF2
000000
000000
04C000
ENDCHAR
STARTCHAR uni1E37
ENCODING 7735
SWIDTH 600 0
DWIDTH 7 0
BBX 5 12 1 -3
BITMAP
4FF900
007600
00A300
00D000
01B000
058000
085000
096110
04EE40
000000
000000
01D200
ENDCHAR
STARTCHAR uni1E38
ENCODING 7736
SWIDTH 600 0
DWIDTH 7 0
BBX 6 13 1 -3
BITMAP
0FFF10
000000
059000
086000
0B3000
0D0000
2C0000
590000
860000
BFFFF2
000000
000000
04C000
ENDCHAR
STARTCHAR uni1E39
ENCODING 7737
SWIDTH 600 0
DWIDTH 7 0
BBX 5 14 1 -3
BITMAP
02FFE0
000000
4FF900
007600
00A300
00D000
01B000
058000
085000
096110
04EE40
000000
000000
01D200
ENDCHAR
STARTCHAR uni1E3A
ENCODING 7738
SWIDTH 600 0
DWIDTH 7 0
BBX 6 10 1 -2
BITMAP
059000
086000
0B3000
0D0000
2C0000
590000
860000
BFFFF2
000000
3FFD00
ENDCHAR
STARTCHAR uni1E3B
ENCODING 7739
SWIDTH 600 0
DWIDTH 7 0
BBX 5 11 1 -2
BITMAP
4FF900
007600
00A300
00D000
01B000
058000
085000
096110
04EE40
000000
0FFF10
ENDCHAR
STARTCHAR uni1E3E
ENCODING 7742
SWIDTH 600 0
DWIDTH 7 0
BBX 7 10 0 0
BITMAP
00001A20
0000A400
05E005E0
08D10BB0
0BA36990
0D65B760
2B4C5A30
582B0D00
85001C00
B2004900
ENDCHAR
STARTCHAR uni1E3F
ENCODING 7743
SWIDTH 600 0
DWIDTH 7 0
BBX 7 9 0 0
BITMAP
00002B10
0002A200
00000000
0CAE7D90
2E4AA4C0
590B2590
860D0860
B33B0B30
D0670D00
ENDCHAR
STARTCHAR uni1E40
ENCODING 7744
SWIDTH 600 0
DWIDTH 7 0
BBX 7 10 0 0
BITMAP
0000B300
00000000
05E005E0
08D10BB0
0BA36990
0D65B760
2B4C5A30
582B0D00
85001C00
B2004900
ENDCHAR
STARTCHAR uni1E41
ENCODING 7745
SWIDTH 600 0
DWIDTH 7 0
BBX 7 8 0 0
BITMAP
0001D200
00000000
0CAE7D90
2E4AA4C0
590B2590
860D0860
B33B0B30
D0670D00
ENDCHAR
STARTCHAR uni1E42
ENCODING 7746
SWIDTH 600 0
DWIDTH 7 0
BBX 7 11 0 -3
BITMAP
05E005E0
08D10BB0
0BA36990
0D65B760
2B4C5A30
582B0D00
85001C00
B2004900
00000000
00000000
02D10000
ENDCHAR
STARTCHAR uni1E43
ENCODING 7747
SWIDTH 600 0
DWIDTH 7 0
BBX 7 9 0 -3
BITMAP
0CAE7D90
2E4AA4C0
590B2590
860D0860
B33B0B30
D0670D00
00000000
00000000
01D30000
ENDCHAR
STARTCHAR uni1E44
ENCODING 7748
SWIDTH 600 0
DWIDTH 7 0
BBX 7 10 0 0
BITMAP
0000B300
00000000
03E000D0
06C403B0
09690580
0C1C0850
0D093B20
3A048D00
6700CB00
9400A800
ENDCHAR
STARTCHAR uni1E45
ENCODING 7749
SWIDTH 600 0
DWIDTH 7 0
BBX 7 8 0 0
BITMAP
0001D200
00000000
0859ED10
0AC41B50
0D200A30
1D000D10
4A001C00
77004900
ENDCHAR
STARTCHAR uni1E46
ENCODING 7750
SWIDTH 600 0
DWIDTH 7 0
BBX 7 11 0 -3
BITMAP
03E000D0
06C403B0
09690580
0C1C0850
0D093B20
3A048D00
6700CB00
9400A800
00000000
00000000
00D40000
ENDCHAR
STARTCHAR uni1E47
ENCODING 7751
SWIDTH 600 0
DWIDTH 7 0
BBX 7 9 0 -3
BITMAP
0859ED10
0AC41B50
0D200A30
1D000D10
4A001C00
77004900
00000000
00000000
00C40000
ENDCHAR
STARTCHAR uni1E48
ENCODING 7752
SWIDTH 600 0
DWIDTH 7 0
BBX 7 10 0 -2
BITMAP
03E000D0
06C403B0
09690580
0C1C0850
0D093B20
3A048D00
6700CB00
9400A800
00000000
0DFF3000
ENDCHAR
STARTCHAR uni1E49
ENCODING 7753
SWIDTH 600 0
DWIDTH 7 0
BBX 7 8 0 -2
BITMAP
0859ED10
0AC41B50
0D200A30
1D000D10
4A001C00
77004900
00000000
0CFF4000
ENDCHAR
STARTCHAR uni1E52
ENCODING 7762
SWIDTH 600 0
DWIDTH 7 0
BBX 7 13 0 0
BITMAP
00000920
00005600
00000000
000DFF30
00000000
006DE900
06C21A70
1D2003B0
5A0003B0
77000690
78000C30
3D219B00
06DE9100
ENDCHAR
STARTCHAR uni1E53
ENCODING 7763
SWIDTH 600 0
DWIDTH 7 0
BBX 7 11 0 0
BITMAP
00001900
00007200
00000000
003FFD00
00000000
019ED600
0B813D20
4B000950
68000C30
3D219A00
07EE9100
ENDCHAR
STARTCHAR uni1E58
ENCODING 7768
SWIDTH 600 0
DWIDTH 7 0
BBX 7 10 0 0
BITMAP
0000B200
00000000
02FFEB10
05A01A70
08700680
0B403D30
0DFFC400
1E078000
4A01D100
77009700
ENDCHAR
STARTCHAR uni1E59
ENCODING 7769
SWIDTH 600 0
DWIDTH 7 0
BBX 6 8 1 0
BITMAP
000A60
000000
0B2BE7
0DA311
2D1000
580000
850000
B30000
ENDCHAR
STARTCHAR uni1E5A
ENCODING 7770
SWIDTH 600 0
DWIDTH 7 0
BBX 7 11 0 -3
BITMAP
02FFEB10
05A01A70
08700680
0B403D30
0DFFC400
1E078000
4A01D100
77009700
00000000
00000000
00B50000
ENDCHAR
STARTCHAR uni1E5B
ENCODING 7771
SWIDTH 600 0
DWIDTH 7 0
BBX 7 9 0 -3
BITMAP
00B2BE70
00DA3110
02D10000
05800000
08500000
0B300000
00000000
00000000
4C000000
ENDCHAR
STARTCHAR uni1E5C
ENCODING 7772
SWIDTH 600 0
DWIDTH 7 0
BBX 7 13 0 -3
BITMAP
000DFF30
00000000
02FFEB10
05A01A70
08700680
0B403D30
0DFFC400
1E078000
4A01D100
77009700
00000000
00000000
00B50000
ENDCHAR
STARTCHAR uni1E5D
ENCODING 7773
SWIDTH 600 0
DWIDTH 7 0
BBX 7 11 0 -3
BITMAP
000BFF50
00000000
00B2BE70
00DA3110
02D10000
05800000
08500000
0B300000
00000000
00000000
4C000000
ENDCHAR
STARTCHAR uni1E5E
ENCODING 7774
SWIDTH 600 0
DWIDTH 7 0
BBX 7 10 0 -2
BITMAP
02FFEB10
05A01A70
08700680
0B403D30
0DFFC400
1E078000
4A01D100
77009700
00000000
0BFF5000
ENDCHAR
STARTCHAR uni1E5F
ENCODING 7775
SWIDTH 600 0
DWIDTH 7 0
BBX 8 8 -1 -2
BITMAP
000B2BE7
000DA311
002D1000
00580000
00850000
00B30000
00000000
3FFD0000
ENDCHAR
STARTCHAR uni1E60
ENCODING 7776
SWIDTH 600 0
DWIDTH 7 0
BBX 7 10 0 0
BITMAP
0000C100
00000000
006DE800
02D21930
03C00000
009C4000
0004D500
00003B00
4A219900
07EEA100
ENDCHAR
STARTCHAR uni1E61
ENCODING 7777
SWIDTH 600 0
DWIDTH 7 0
BBX 6 8 0 0
BITMAP
0003D1
000000
01BED5
069139
02C820
0015B6
2A3169
06DFC2
ENDCHAR
STARTCHAR uni1E62
ENCODING 7778
SWIDTH 600 0
DWIDTH 7 0
BBX 7 11 0 -3
BITMAP
006DE800
02D21930
03C00000
009C4000
0004D500
00003B00
4A219900
07EEA100
00000000
00000000
00B50000
ENDCHAR
STARTCHAR uni1E63
ENCODING 7779
SWIDTH 600 0
DWIDTH 7 0
BBX 6 9 0 -3
BITMAP
01BED5
069139
02C820
0015B6
2A3169
06DFC2
000000
000000
00B500
ENDCHAR
STARTCHAR uni1E6C
ENCODING 7788
SWIDTH 600 0
DWIDTH 7 0
BBX 7 11 1 -3
BITMAP
BFFFFF60
00590000
00860000
00B30000
00D00000
02C00000
05900000
08600000
00000000
00000000
2D100000
ENDCHAR
STARTCHAR uni1E6D
ENCODING 7789
SWIDTH 600 0
DWIDTH 7 0
BBX 7 11 0 -3
BITMAP
000C0000
002B0000
1EFFFF70
00860000
00B20000
00D00000
01E21300
009ED500
00000000
00000000
003D0000
ENDCHAR
STARTCHAR uni1E6E
ENCODING 7790
SWIDTH 600 0
DWIDTH 7 0
BBX 8 10 0 -2
BITMAP
0BFFFFF6
00059000
00086000
000B3000
000D0000
002C0000
00590000
00860000
00000000
1FFF1000
ENDCHAR
STARTCHAR uni1E6F
ENCODING 7791
SWIDTH 600 0
DWIDTH 7 0
BBX 7 10 0 -2
BITMAP
000C0000
002B0000
1EFFFF70
00860000
00B20000
00D00000
01E21300
009ED500
00000000
02FFE000
ENDCHAR
STARTCHAR uni1E7E
ENCODING 7806
SWIDTH 600 0
DWIDTH 7 0
BBX 7 11 1 -3
BITMAP
77000A50
68003C00
4900A400
3B03B000
1C0B3000
0D3A0000
0DA30000
0C900000
00000000
00000000
2D100000
ENDCHAR
STARTCHAR uni1E7F
ENCODING 7807
SWIDTH 600 0
DWIDTH 7 0
BBX 6 9 1 -3
BITMAP
D1004A
9400C2
670680
3A1C10
0C8500
0BA000
000000
000000
1D2000
ENDCHAR
STARTCHAR Wgrave
ENCODING 7808
SWIDTH 600 0
DWIDTH 7 0
BBX 8 10 0 0
BITMAP
00085000
0001A100
0D000058
0D0000A4
0C0750D0
1B1C7390
2A678850
39B19C10
4C70BA00
5E10E600
ENDCHAR
STARTCHAR wgrave
ENCODING 7809
SWIDTH 600 0
DWIDTH 7 0
BBX 8 10 0 0
BITMAP
000A1000
00079000
0000A000
00000000
77074094
671D71C0
67687670
57B38B10
5B83BA00
5F22F400
ENDCHAR
STARTCHAR Wacute
ENCODING 7810
SWIDTH 600 0
DWIDTH 7 0
BBX 8 10 0 0
BITMAP
00001B20
0000A400
0D000058
0D0000A4
0C0750D0
1B1C7390
2A678850
39B19C10
4C70BA00
5E10E600
ENDCHAR
STARTCHAR wacute
ENCODING 7811
SWIDTH 600 0
DWIDTH 7 0
BBX 8 9 0 0
BITMAP
00004A00
00049100
00000000
77074094
671D71C0
67687670
57B38B10
5B83BA00
5F22F400
ENDCHAR
STARTCHAR Wdieresis
ENCODING 7812
SWIDTH 600 0
DWIDTH 7 0
BBX 8 10 0 0
BITMAP
000B0930
00000000
0D000058
0D0000A4
0C0750D0
1B1C7390
2A678850
39B19C10
4C70BA00
5E10E600
ENDCHAR
STARTCHAR wdieresis
ENCODING 7813
SWIDTH 600 0
DWIDTH 7 0
BBX 8 8 0 0
BITMAP
00491C00
00000000
77074094
671D71C0
67687670
57B38B10
5B83BA00
5F22F400
ENDCHAR
STARTCHAR uni1E8E
ENCODING 7822
SWIDTH 600 0
DWIDTH 7 0
BBX 7 10 1 0
BITMAP
000C1000
00000000
86000C30
4B008800
0D13C000
0A5C3000
05D80000
02D00000
04A00000
08600000
ENDCHAR
STARTCHAR uni1E8F
ENCODING 7823
SWIDTH 600 0
DWIDTH 7 0
BBX 8 10 -1 -2
BITMAP
00004C00
00000000
00C1004A
009501C1
00580860
001C2B00
000CA200
00097000
005B0000
5EB10000
ENDCHAR
STARTCHAR uni1E90
ENCODING 7824
SWIDTH 600 0
DWIDTH 7 0
BBX 7 10 0 0
BITMAP
0005D800
00280910
06FFFFE0
00000B50
0000A700
00089000
005B0000
04C10000
2C200000
BFFFFD00
ENDCHAR
STARTCHAR uni1E91
ENCODING 7825
SWIDTH 600 0
DWIDTH 7 0
BBX 7 9 0 0
BITMAP
0007D500
00560A00
00000000
08FFFF50
00007900
00088000
00A60000
1A500000
8FFFFA00
ENDCHAR
STARTCHAR uni1E92
ENCODING 7826
SWIDTH 600 0
DWIDTH 7 0
BBX 7 11 0 -3
BITMAP
06FFFFE0
00000B50
0000A700
00089000
005B0000
04C10000
2C200000
BFFFFD00
00000000
00000000
00A60000
ENDCHAR
STARTCHAR uni1E93
ENCODING 7827
SWIDTH 600 0
DWIDTH 7 0
BBX 7 9 0 -3
BITMAP
08FFFF50
00007900
00088000
00A60000
1A500000
8FFFFA00
00000000
00000000
00B50000
ENDCHAR
STARTCHAR uni1E94
ENCODING 7828
SWIDTH 600 0
DWIDTH 7 0
BBX 7 10 0 -2
BITMAP
06FFFFE0
00000B50
0000A700
00089000
005B0000
04C10000
2C200000
BFFFFD00
00000000
0AFF6000
ENDCHAR
STARTCHAR uni1E95
ENCODING 7829
SWIDTH 600 0
DWIDTH 7 0
BBX 7 8 0 -2
BITMAP
08FFFF50
00007900
00088000
00A60000
1A500000
8FFFFA00
00000000
0BFF5000
ENDCHAR
STARTCHAR uni1E96
ENCODING 7830
SWIDTH 600 0
DWIDTH 7 0
BBX 7 11 0 -2
BITMAP
00E00000
02C00000
05900000
0879ED10
0BC41B50
0D200A30
1D000D10
4A001C00
77004900
00000000
0CFF4000
ENDCHAR
STARTCHAR uni1E97
ENCODING 7831
SWIDTH 600 0
DWIDTH 7 0
BBX 7 10 0 0
BITMAP
00936700
00000000
000C0000
002B0000
1EFFFF70
00860000
00B20000
00D00000
01E21300
009ED500
ENDCHAR
STARTCHAR uni1E9E
ENCODING 7838
SWIDTH 600 0
DWIDTH 7 0
BBX 7 8 0 0
BITMAP
005CEC20
03E41970
09607800
0D13E500
1D004D40
4A000770
77522C40
A44DE800
ENDCHAR
STARTCHAR uni1EA0
ENCODING 7840
SWIDTH 600 0
DWIDTH 7 0
BBX 7 11 -1 -3
BITMAP
00004F20
0000B940
00058750
000C2670
00690490
01EFFFB0
07A001D0
1D2000E0
00000000
00000000
000C4000
ENDCHAR
STARTCHAR uni1EA1
ENCODING 7841
SWIDTH 600 0
DWIDTH 7 0
BBX 7 9 0 -3
BITMAP
009ED780
0A922D50
2D000B20
59000E00
4D12AB00
09EC7900
00000000
00000000
00D40000
ENDCHAR
STARTCHAR uni1EA2
ENCODING 7842
SWIDTH 600 0
DWIDTH 7 0
BBX 7 11 -1 0
BITMAP
00001E30
00000870
00001C10
00004F20
0000B940
00058750
000C2670
00690490
01EFFFB0
07A001D0
1D2000E0
ENDCHAR
STARTCHAR uni1EA3
ENCODING 7843
SWIDTH 600 0
DWIDTH 7 0
BBX 7 10 0 0
BITMAP
0000E500
00006800
0000C200
00000000
009ED780
0A922D50
2D000B20
59000E00
4D12AB00
09EC7900
ENDCHAR
STARTCHAR uni1EA4
ENCODING 7844
SWIDTH 600 0
DWIDTH 7 0
BBX 9 10 -1 0
BITMAP
0000589720
0000000000
00004F2000
0000B94000
0005875000
000C267000
0069049000
01EFFFB000
07A001D000
1D2000E000
ENDCHAR
STARTCHAR uni1EA5
ENCODING 7845
SWIDTH 600 0
DWIDTH 7 0
BBX 8 10 0 0
BITMAP
00000065
0004E790
000A1900
00000000
009ED780
0A922D50
2D000B20
59000E00
4D12AB00
09EC7900
ENDCHAR
STARTCHAR uni1EA6
ENCODING 7846
SWIDTH 600 0
DWIDTH 7 0
BBX 7 10 -1 0
BITMAP
0004A890
00000000
00004F20
0000B940
00058750
000C2670
00690490
01EFFFB0
07A001D0
1D2000E0
ENDCHAR
STARTCHAR uni1EA7
ENCODING 7847
SWIDTH 600 0
DWIDTH 7 0
BBX 7 10 0 0
BITMAP
01900000
0076E600
000A1900
00000000
009ED780
0A922D50
2D000B20
59000E00
4D12AB00
09EC7900
ENDCHAR
STARTCHAR uni1EA8
ENCODING 7848
SWIDTH 600 0
DWIDTH 7 0
BBX 9 12 -1 0
BITMAP
0000001D20
0000000940
0000589C00
0000000000
00004F2000
0000B94000
0005875000
000C267000
0069049000
01EFFFB000
07A001D000
1D2000E000
ENDCHAR
STARTCHAR uni1EA9
ENCODING 7849
SWIDTH 600 0
DWIDTH 7 0
BBX 8 10 0 0
BITMAP
000002D1
0004E7A3
000A1AA0
00000000
009ED780
0A922D50
2D000B20
59000E00
4D12AB00
09EC7900
ENDCHAR
STARTCHAR uni1EAA
ENCODING 7850
SWIDTH 600 0
DWIDTH 7 0
BBX 8 12 -1 0
BITMAP
00006D38
000084E5
00005890
00000000
00004F20
0000B940
00058750
000C2670
00690490
01EFFFB0
07A001D0
1D2000E0
ENDCHAR
STARTCHAR uni1EAB
ENCODING 7851
SWIDTH 600 0
DWIDTH 7 0
BBX 7 10 0 0
BITMAP
0006B360
00086E20
00078800
00000000
009ED780
0A922D50
2D000B20
59000E00
4D12AB00
09EC7900
ENDCHAR
STARTCHAR uni1EAC
ENCODING 7852
SWIDTH 600 0
DWIDTH 7 0
BBX 8 13 -1 -3
BITMAP
00003CA0
00019173
00004F20
0000B940
00058750
000C2670
00690490
01EFFFB0
07A001D0
1D2000E0
00000000
00000000
000C4000
ENDCHAR
STARTCHAR uni1EAD
ENCODING 7853
SWIDTH 600 0
DWIDTH 7 0
BBX 7 12 0 -3
BITMAP
0004C900
00280820
00000000
009ED780
0A922D50
2D000B20
59000E00
4D12AB00
09EC7900
00000000
00000000
00D40000
ENDCHAR
STARTCHAR uni1EAE
ENCODING 7854
SWIDTH 600 0
DWIDTH 7 0
BBX 8 12 -1 0
BITMAP
000000A1
00000650
0000B166
00007EA0
00004F20
0000B940
00058750
000C2670
00690490
01EFFFB0
07A001D0
1D2000E0
ENDCHAR
STARTCHAR uni1EAF
ENCODING 7855
SWIDTH 600 0
DWIDTH 7 0
BBX 7 11 0 0
BITMAP
00000A00
00007400
001A1670
0009EA00
00000000
009ED780
0A922D50
2D000B20
59000E00
4D12AB00
09EC7900
ENDCHAR
STARTCHAR uni1EB0
ENCODING 7856
SWIDTH 600 0
DWIDTH 7 0
BBX 8 12 -1 0
BITMAP
00001A00
00000720
0000B166
00007EA0
00004F20
0000B940
00058750
000C2670
00690490
01EFFFB0
07A001D0
1D2000E0
ENDCHAR
STARTCHAR uni1EB1
ENCODING 7857
SWIDTH 600 0
DWIDTH 7 0
BBX 7 11 0 0
BITMAP
00019000
00008100
001A1670
0009EA00
00000000
009ED780
0A922D50
2D000B20
59000E00
4D12AB00
09EC7900
ENDCHAR
STARTCHAR uni1EB2
ENCODING 7858
SWIDTH 600 0
DWIDTH 7 0
BBX 8 13 -1 0
BITMAP
00000970
000002B0
00000740
0000B166
00007EA0
00004F20
0000B940
00058750
000C2670
00690490
01EFFFB0
07A001D0
1D2000E0
ENDCHAR
STARTCHAR uni1EB3
ENCODING 7859
SWIDTH 600 0
DWIDTH 7 0
BBX 7 12 0 0
BITMAP
0000A700
00003B00
00009400
001A1670
0009EA00
00000000
009ED780
0A922D50
2D000B20
59000E00
4D12AB00
09EC7900
ENDCHAR
STARTCHAR uni1EB4
ENCODING 7860
SWIDTH 600 0
DWIDTH 7 0
BBX 8 12 -1 0
BITMAP
00006D38
000094E5
0000B175
00007EA0
00004F20
0000B940
00058750
000C2670
00690490
01EFFFB0
07A001D0
1D2000E0
ENDCHAR
STARTCHAR uni1EB5
ENCODING 7861
SWIDTH 600 0
DWIDTH 7 0
BBX 7 10 0 0
BITMAP
0006B370
000F6F60
0009E800
00000000
009ED780
0A922D50
2D000B20
59000E00
4D12AB00
09EC7900
ENDCHAR
STARTCHAR uni1EB6
ENCODING 7862
SWIDTH 600 0
DWIDTH 7 0
BBX 8 13 -1 -3
BITMAP
0000A166
00008EA0
00004F20
0000B940
00058750
000C2670
00690490
01EFFFB0
07A001D0
1D2000E0
00000000
00000000
000C4000
ENDCHAR
STARTCHAR uni1EB7
ENCODING 7863
SWIDTH 600 0
DWIDTH 7 0
BBX 7 13 0 -3
BITMAP
00000010
001B1670
0009EA00
00000000
009ED780
0A922D50
2D000B20
59000E00
4D12AB00
09EC7900
00000000
00000000
00D40000
ENDCHAR
STARTCHAR uni1EB8
ENCODING 7864
SWIDTH 600 0
DWIDTH 7 0
BBX 8 11 0 -3
BITMAP
00CFFFF1
00E00000
03A00000
06FFFB00
09500000
0C200000
0D000000
3FFFFB00
00000000
00000000
00880000
ENDCHAR
STARTCHAR uni1EB9
ENCODING 7865
SWIDTH 600 0
DWIDTH 7 0
BBX 7 9 0 -3
BITMAP
008EE800
08711B30
1FFFFF40
3B000000
1E414600
05DEA200
00000000
00000000
00B60000
ENDCHAR
STARTCHAR uni1EBA
ENCODING 7866
SWIDTH 600 0
DWIDTH 7 0
BBX 8 11 0 0
BITMAP
0000A900
00002C00
00009500
00CFFFF1
00E00000
03A00000
06FFFB00
09500000
0C200000
0D000000
3FFFFB00
ENDCHAR
STARTCHAR uni1EBB
ENCODING 7867
SWIDTH 600 0
DWIDTH 7 0
BBX 7 10 0 0
BITMAP
0001E300
00008700
0001C100
00000000
008EE800
08711B30
1FFFFF40
3B000000
1E414600
05DEA200
ENDCHAR
STARTCHAR uni1EBC
ENCODING 7868
SWIDTH 600 0
DWIDTH 7 0
BBX 8 11 0 0
BITMAP
00001000
0008E583
00091DA0
00CFFFF1
00E00000
03A00000
06FFFB00
09500000
0C200000
0D000000
3FFFFB00
ENDCHAR
STARTCHAR uni1EBD
ENCODING 7869
SWIDTH 600 0
DWIDTH 7 0
BBX 7 9 0 0
BITMAP
002B9290
00736E30
00000000
008EE800
08711B30
1FFFFF40
3B000000
1E414600
05DEA200
ENDCHAR
STARTCHAR uni1EBE
ENCODING 7870
SWIDTH 600 0
DWIDTH 7 0
BBX 8 10 0 0
BITMAP
00028975
00000000
00CFFFF1
00E00000
03A00000
06FFFB00
09500000
0C200000
0D000000
3FFFFB00
ENDCHAR
STARTCHAR uni1EBF
ENCODING 7871
SWIDTH 600 0
DWIDTH 7 0
BBX 8 10 0 0
BITMAP
00000073
0005E780
00191900
00000000
008EE800
08711B30
1FFFFF40
3B000000
1E414600
05DEA200
ENDCHAR
STARTCHAR uni1EC0
ENCODING 7872
SWIDTH 600 0
DWIDTH 7 0
BBX 8 10 0 0
BITMAP
001A8930
00000000
00CFFFF1
00E00000
03A00000
06FFFB00
09500000
0C200000
0D000000
3FFFFB00
ENDCHAR
STARTCHAR uni1EC1
ENCODING 7873
SWIDTH 600 0
DWIDTH 7 0
BBX 7 10 0 0
BITMAP
02900000
0086E500
00191900
00000000
008EE800
08711B30
1FFFFF40
3B000000
1E414600
05DEA200
ENDCHAR
STARTCHAR uni1EC2
ENCODING 7874
SWIDTH 600 0
DWIDTH 7 0
BBX 8 12 0 0
BITMAP
000000A6
0000003A
000289B4
00000000
00CFFFF1
00E00000
03A00000
06FFFB00
09500000
0C200000
0D000000
3FFFFB00
ENDCHAR
STARTCHAR uni1EC3
ENCODING 7875
SWIDTH 600 0
DWIDTH 7 0
BBX 8 10 0 0
BITMAP
000004C0
0005E5B1
00191C90
00000000
008EE800
08711B30
1FFFFF40
3B000000
1E414600
05DEA200
ENDCHAR
STARTCHAR uni1EC4
ENCODING 7876
SWIDTH 600 0
DWIDTH 7 0
BBX 8 12 0 0
BITMAP
0001D781
00054BA0
00028930
00000000
00CFFFF1
00E00000
03A00000
06FFFB00
09500000
0C200000
0D000000
3FFFFB00
ENDCHAR
STARTCHAR uni1EC5
ENCODING 7877
SWIDTH 600 0
DWIDTH 7 0
BBX 7 10 0 0
BITMAP
0007A350
00097D10
00078700
00000000
008EE800
08711B30
1FFFFF40
3B000000
1E414600
05DEA200
ENDCHAR
STARTCHAR uni1EC6
ENCODING 7878
SWIDTH 600 0
DWIDTH 7 0
BBX 8 13 0 -3
BITMAP
0001BD20
00083280
00CFFFF1
00E00000
03A00000
06FFFB00
09500000
0C200000
0D000000
3FFFFB00
00000000
00000000
00880000
ENDCHAR
STARTCHAR uni1EC7
ENCODING 7879
SWIDTH 600 0
DWIDTH 7 0
BBX 7 12 0 -3
BITMAP
0006D700
00480910
00000000
008EE800
08711B30
1FFFFF40
3B000000
1E414600
05DEA200
00000000
00000000
00B60000
ENDCHAR
STARTCHAR uni1EC8
ENCODING 7880
SWIDTH 600 0
DWIDTH 7 0
BBX 7 11 0 0
BITMAP
0001E300
00008700
0001C100
01FFFFC0
00059000
00086000
000B3000
000E0000
002C0000
00580000
7FFFF500
ENDCHAR
STARTCHAR uni1EC9
ENCODING 7881
SWIDTH 600 0
DWIDTH 7 0
BBX 5 10 1 0
BITMAP
006C10
001C20
005800
000000
AFF500
00B200
00C000
03A000
05A120
02DE70
ENDCHAR
STARTCHAR uni1ECA
ENCODING 7882
SWIDTH 600 0
DWIDTH 7 0
BBX 7 11 0 -3
BITMAP
01FFFFC0
00059000
00086000
000B3000
000E0000
002C0000
00580000
7FFFF500
00000000
00000000
02D10000
ENDCHAR
STARTCHAR uni1ECB
ENCODING 7883
SWIDTH 600 0
DWIDTH 7 0
BBX 5 11 1 -3
BITMAP
005B00
000000
AFF500
00B200
00C000
03A000
05A120
02DE70
000000
000000
00D400
ENDCHAR
STARTCHAR uni1ECC
ENCODING 7884
SWIDTH 600 0
DWIDTH 7 0
BBX 7 11 0 -3
BITMAP
006DE900
06C21A70
1D2003B0
5A0003B0
77000690
78000C30
3D219B00
06DE9100
00000000
00000000
02D10000
ENDCHAR
STARTCHAR uni1ECD
ENCODING 7885
SWIDTH 600 0
DWIDTH 7 0
BBX 7 9 0 -3
BITMAP
019ED600
0B813D20
4B000950
68000C30
3D219A00
07EE9100
00000000
00000000
02D10000
ENDCHAR
STARTCHAR uni1ECE
ENCODING 7886
SWIDTH 600 0
DWIDTH 7 0
BBX 7 11 0 0
BITMAP
0001E300
00008700
0001C100
006DE900
06C21A70
1D2003B0
5A0003B0
77000690
78000C30
3D219B00
06DE9100
ENDCHAR
STARTCHAR uni1ECF
ENCODING 7887
SWIDTH 600 0
DWIDTH 7 0
BBX 7 10 0 0
BITMAP
0003D300
00009500
0002B100
00000000
019ED600
0B813D20
4B000950
68000C30
3D219A00
07EE9100
ENDCHAR
STARTCHAR uni1ED0
ENCODING 7888
SWIDTH 600 0
DWIDTH 7 0
BBX 8 10 0 0
BITMAP
00058972
00000000
006DE900
06C21A70
1D2003B0
5A0003B0
77000690
78000C30
3D219B00
06DE9100
ENDCHAR
STARTCHAR uni1ED1
ENCODING 7889
SWIDTH 600 0
DWIDTH 7 0
BBX 8 10 0 0
BITMAP
00000082
0006E760
00291900
00000000
019ED600
0B813D20
4B000950
68000C30
3D219A00
07EE9100
ENDCHAR
STARTCHAR uni1ED2
ENCODING 7890
SWIDTH 600 0
DWIDTH 7 0
BBX 7 10 0 0
BITMAP
004A8900
00000000
006DE900
06C21A70
1D2003B0
5A0003B0
77000690
78000C30
3D219B00
06DE9100
ENDCHAR
STARTCHAR uni1ED3
ENCODING 7891
SWIDTH 600 0
DWIDTH 7 0
BBX 7 10 0 0
BITMAP
03800000
0097E300
00291900
00000000
019ED600
0B813D20
4B000950
68000C30
3D219A00
07EE9100
ENDCHAR
STARTCHAR uni1ED4
ENCODING 7892
SWIDTH 600 0
DWIDTH 7 0
BBX 8 12 0 0
BITMAP
000001D2
00000094
000589C0
00000000
006DE900
06C21A70
1D2003B0
5A0003B0
77000690
78000C30
3D219B00
06DE9100
ENDCHAR
STARTCHAR uni1ED5
ENCODING 7893
SWIDTH 600 0
DWIDTH 7 0
BBX 7 10 0 0
BITMAP
000005B0
0006E4C0
00281C80
00000000
019ED600
0B813D20
4B000950
68000C30
3D219A00
07EE9100
ENDCHAR
STARTCHAR uni1ED6
ENCODING 7894
SWIDTH 600 0
DWIDTH 7 0
BBX 7 12 0 0
BITMAP
0006D380
00084E50
00058900
00000000
006DE900
06C21A70
1D2003B0
5A0003B0
77000690
78000C30
3D219B00
06DE9100
ENDCHAR
STARTCHAR uni1ED7
ENCODING 7895
SWIDTH 600 0
DWIDTH 7 0
BBX 7 10 0 0
BITMAP
0008A430
00098D00
00178600
00000000
019ED600
0B813D20
4B000950
68000C30
3D219A00
07EE9100
ENDCHAR
STARTCHAR uni1ED8
ENCODING 7896
SWIDTH 600 0
DWIDTH 7 0
BBX 7 13 0 -3
BITMAP
0003CA00
00191730
006DE900
06C21A70
1D2003B0
5A0003B0
77000690
78000C30
3D219B00
06DE9100
00000000
00000000
02D10000
ENDCHAR
STARTCHAR uni1ED9
ENCODING 7897
SWIDTH 600 0
DWIDTH 7 0
BBX 7 12 0 -3
BITMAP
0007D600
00560A00
00000000
019ED600
0B813D20
4B000950
68000C30
3D219A00
07EE9100
00000000
00000000
02D10000
ENDCHAR
STARTCHAR uni1EDA
ENCODING 7898
SWIDTH 600 0
DWIDTH 7 0
BBX 8 10 0 0
BITMAP
00001A58
0000A448
006DEBA1
06C21A60
1D2003A0
5A0003C0
77000690
78000C40
3D219B00
06DE9000
ENDCHAR
STARTCHAR uni1EDB
ENCODING 7899
SWIDTH 600 0
DWIDTH 7 0
BBX 8 9 0 0
BITMAP
00003A00
00039191
000000B1
019EEC50
0B813D10
4B000950
68000C30
3D219B00
07EE9100
ENDCHAR
STARTCHAR uni1EDC
ENCODING 7900
SWIDTH 600 0
DWIDTH 7 0
BBX 8 10 0 0
BITMAP
00075038
0001A248
006DEBA1
06C21A60
1D2003A0
5A0003C0
77000690
78000C40
3D219B00
06DE9000
ENDCHAR
STARTCHAR uni1EDD
ENCODING 7901
SWIDTH 600 0
DWIDTH 7 0
BBX 8 10 0 0
BITMAP
00092000
0005A000
00009191
000000B1
019EEC50
0B813D10
4B000950
68000C30
3D219B00
07EE9100
ENDCHAR
STARTCHAR uni1EDE
ENCODING 7902
SWIDTH 600 0
DWIDTH 7 0
BBX 8 11 0 0
BITMAP
0001E300
00008738
0001C148
006DEBA1
06C21A60
1D2003A0
5A0003C0
77000690
78000C40
3D219B00
06DE9000
ENDCHAR
STARTCHAR uni1EDF
ENCODING 7903
SWIDTH 600 0
DWIDTH 7 0
BBX 8 10 0 0
BITMAP
0003D300
00009500
0002B191
000000B1
019EEC50
0B813D10
4B000950
68000C30
3D219B00
07EE9100
ENDCHAR
STARTCHAR uni1EE0
ENCODING 7904
SWIDTH 600 0
DWIDTH 7 0
BBX 8 11 0 0
BITMAP
00010000
006E8588
0091BC58
006DEBA1
06C21A60
1D2003A0
5A0003C0
77000690
78000C40
3D219B00
06DE9000
ENDCHAR
STARTCHAR uni1EE1
ENCODING 7905
SWIDTH 600 0
DWIDTH 7 0
BBX 8 9 0 0
BITMAP
008B4920
0091CA91
000000B1
019EEC50
0B813D10
4B000950
68000C30
3D219B00
07EE9100
ENDCHAR
STARTCHAR uni1EE2
ENCODING 7906
SWIDTH 600 0
DWIDTH 7 0
BBX 8 13 0 -3
BITMAP
00000038
00000048
006DEBA1
06C21A60
1D2003A0
5A0003C0
77000690
78000C40
3D219B00
06DE9000
00000000
00000000
02D10000
ENDCHAR
STARTCHAR uni1EE3
ENCODING 7907
SWIDTH 600 0
DWIDTH 7 0
BBX 8 11 0 -3
BITMAP
00000091
000000B1
019EEC50
0B813D10
4B000950
68000C30
3D219B00
07EE9100
00000000
00000000
02D10000
ENDCHAR
STARTCHAR uni1EE4
ENCODING 7908
SWIDTH 600 0
DWIDTH 7 0
BBX 7 11 0 -3
BITMAP
059000E0
086002B0
0B300680
0D000950
1C000C20
3B001E00
1E31A800
06EE9000
00000000
00000000
02D10000
ENDCHAR
STARTCHAR uni1EE5
ENCODING 7909
SWIDTH 600 0
DWIDTH 7 0
BBX 7 9 0 -3
BITMAP
09500770
0C100A50
0D000D20
3A002E00
5C14CB00
1DE95800
00000000
00000000
00D40000
ENDCHAR
STARTCHAR uni1EE6
ENCODING 7910
SWIDTH 600 0
DWIDTH 7 0
BBX 7 11 0 0
BITMAP
0001E300
00008700
0001C100
059000E0
086002B0
0B300680
0D000950
1C000C20
3B001E00
1E31A800
06EE9000
ENDCHAR
STARTCHAR uni1EE7
ENCODING 7911
SWIDTH 600 0
DWIDTH 7 0
BBX 7 10 0 0
BITMAP
0003D200
00009500
0002B100
00000000
09500770
0C100A50
0D000D20
3A002E00
5C14CB00
1DE95800
ENDCHAR
STARTCHAR uni1EE8
ENCODING 7912
SWIDTH 600 0
DWIDTH 7 0
BBX 9 10 0 0
BITMAP
00001A2370
0000A40850
059000E400
086002B000
0B30068000
0D00096000
1C000C3000
3B001E0000
1E31A80000
06EE900000
ENDCHAR
STARTCHAR uni1EE9
ENCODING 7913
SWIDTH 600 0
DWIDTH 7 0
BBX 8 9 0 0
BITMAP
00004A00
0003910A
0000004B
095007E4
0C100A60
0D000D30
3A002E00
5C14CB00
1DE95800
ENDCHAR
STARTCHAR uni1EEA
ENCODING 7914
SWIDTH 600 0
DWIDTH 7 0
BBX 9 10 0 0
BITMAP
0007500370
0001A20850
059000E400
086002B000
0B30068000
0D00096000
1C000C3000
3B001E0000
1E31A80000
06EE900000
ENDCHAR
STARTCHAR uni1EEB
ENCODING 7915
SWIDTH 600 0
DWIDTH 7 0
BBX 8 10 0 0
BITMAP
00092000
0006A000
0000A10A
0000004B
095007E4
0C100A60
0D000D30
3A002E00
5C14CB00
1DE95800
ENDCHAR
STARTCHAR uni1EEC
ENCODING 7916
SWIDTH 600 0
DWIDTH 7 0
BBX 9 11 0 0
BITMAP
0001E30000
0000870370
0001C10850
059000E400
086002B000
0B30068000
0D00096000
1C000C3000
3B001E0000
1E31A80000
06EE900000
ENDCHAR
STARTCHAR uni1EED
ENCODING 7917
SWIDTH 600 0
DWIDTH 7 0
BBX 8 10 0 0
BITMAP
0003D200
00009500
0002B10A
0000004B
095007E4
0C100A60
0D000D30
3A002E00
5C14CB00
1DE95800
ENDCHAR
STARTCHAR uni1EEE
ENCODING 7918
SWIDTH 600 0
DWIDTH 7 0
BBX 9 11 0 0
BITMAP
0001000000
001DD2A370
00546E5850
059000E400
086002B000
0B30068000
0D00096000
1C000C3000
3B001E0000
1E31A80000
06EE900000
ENDCHAR
STARTCHAR uni1EEF
ENCODING 7919
SWIDTH 600 0
DWIDTH 7 0
BBX 8 9 0 0
BITMAP
004C7560
00909D1A
0000004B
095007E4
0C100A60
0D000D30
3A002E00
5C14CB00
1DE95800
ENDCHAR
STARTCHAR uni1EF0
ENCODING 7920
SWIDTH 600 0
DWIDTH 7 0
BBX 9 13 0 -3
BITMAP
0000000370
0000000850
059000E400
086002B000
0B30068000
0D00096000
1C000C3000
3B001E0000
1E31A80000
06EE900000
0000000000
0000000000
02D1000000
ENDCHAR
STARTCHAR uni1EF1
ENCODING 7921
SWIDTH 600 0
DWIDTH 7 0
BBX 8 11 0 -3
BITMAP
0000000A
0000004B
095007E4
0C100A60
0D000D30
3A002E00
5C14CB00
1DE95800
00000000
00000000
00D40000
ENDCHAR
STARTCHAR Ygrave
ENCODING 7922
SWIDTH 600 0
DWIDTH 7 0
BBX 7 10 1 0
BITMAP
00930000
001A0000
86000C30
4B008800
0D13C000
0A5C3000
05D80000
02D00000
04A00000
08600000
ENDCHAR
STARTCHAR ygrave
ENCODING 7923
SWIDTH 600 0
DWIDTH 7 0
BBX 8 12 -1 -2
BITMAP
0000A100
00007900
00000A00
00000000
00C1004A
009501C1
00580860
001C2B00
000CA200
00097000
005B0000
5EB10000
ENDCHAR
STARTCHAR uni1EF4
ENCODING 7924
SWIDTH 600 0
DWIDTH 7 0
BBX 7 11 1 -3
BITMAP
86000C30
4B008800
0D13C000
0A5C3000
05D80000
02D00000
04A00000
08600000
00000000
00000000
2D100000
ENDCHAR
STARTCHAR uni1EF5
ENCODING 7925
SWIDTH 600 0
DWIDTH 7 0
BBX 8 9 -1 -3
BITMAP
00C1004A
009501C1
00580860
001C2B00
000CA200
00097000
005B0000
5EB10000
00001D20
ENDCHAR
STARTCHAR uni1EF6
ENCODING 7926
SWIDTH 600 0
DWIDTH 7 0
BBX 7 11 1 0
BITMAP
003D2000
000A4000
003A0000
86000C30
4B008800
0D13C000
0A5C3000
05D80000
02D00000
04A00000
08600000
ENDCHAR
STARTCHAR uni1EF7
ENCODING 7927
SWIDTH 600 0
DWIDTH 7 0
BBX 8 12 -1 -2
BITMAP
00004D20
00000A40
00004A00
00000000
00C1004A
009501C1
00580860
001C2B00
000CA200
00097000
005B0000
5EB10000
ENDCHAR
STARTCHAR uni1EF8
ENCODING 7928
SWIDTH 600 0
DWIDTH 7 0
BBX 7 11 1 0
BITMAP
00100000
02EB2900
0727E300
86000C30
4B008800
0D13C000
0A5C3000
05D80000
02D00000
04A00000
08600000
ENDCHAR
STARTCHAR uni1EF9
ENCODING 7929
SWIDTH 600 0
DWIDTH 7 0
BBX 8 11 -1 -2
BITMAP
0004C756
000909D1
00000000
00C1004A
009501C1
00580860
001C2B00
000CA200
00097000
005B0000
5EB10000
ENDCHAR
STARTCHAR uni2007
ENCODING 8199
SWIDTH 600 0
DWIDTH 7 0
BBX 1 1 0 0
BITMAP
00
ENDCHAR
STARTCHAR uni2010
ENCODING 8208
SWIDTH 600 0
DWIDTH 7 0
BBX 6 1 1 3
BITMAP
EFFFF2
ENDCHAR
STARTCHAR figuredash
ENCODING 8210
SWIDTH 600 0
DWIDTH 7 0
BBX 7 1 0 3
BITMAP
3FFFFF20
ENDCHAR
STARTCHAR endash
ENCODING 8211
SWIDTH 600 0
DWIDTH 7 0
BBX 7 1 0 3
BITMAP
3FFFFF20
ENDCHAR
STARTCHAR emdash
ENCODING 8212
SWIDTH 600 0
DWIDTH 7 0
BBX 9 1 -1 3
BITMAP
2FFFFFFF10
ENDCHAR
STARTCHAR uni2015
ENCODING 8213
SWIDTH 600 0
DWIDTH 7 0
BBX 9 1 -1 3
BITMAP
2FFFFFFF10
ENDCHAR
STARTCHAR uni2016
ENCODING 8214
SWIDTH 600 0
DWIDTH 7 0
BBX 5 12 1 -3
BITMAP
1B0840
1B0840
1B0840
1B0840
1B0840
1B0840
1B0840
1B0840
1B0840
1B0840
1B0840
1B0840
ENDCHAR
STARTCHAR underscoredbl
ENCODING 8215
SWIDTH 600 0
DWIDTH 7 0
BBX 7 2 -1 -3
BITMAP
4FFFFF80
8FFFFF30
ENDCHAR
STARTCHAR quoteleft
ENCODING 8216
SWIDTH 600 0
DWIDTH 7 0
BBX 3 5 3 4
BITMAP
0590
4C20
B300
DC00
AB00
ENDCHAR
STARTCHAR quoteright
ENCODING 8217
SWIDTH 600 0
DWIDTH 7 0
BBX 4 5 2 3
BITMAP
05E2
06F5
00C2
08A0
4910
ENDCHAR
STARTCHAR quotesinglbase
ENCODING 8218
SWIDTH 600 0
DWIDTH 7 0
BBX 4 5 1 -4
BITMAP
03E4
04F7
0095
06C0
1B20
ENDCHAR
STARTCHAR quotereversed
ENCODING 8219
SWIDTH 600 0
DWIDTH 7 0
BBX 3 5 2 3
BITMAP
0AA0
2F90
3A00
0D40
0380
ENDCHAR
STARTCHAR quotedblleft
ENCODING 8220
SWIDTH 600 0
DWIDTH 7 0
BBX 7 5 1 4
BITMAP
00952B10
0991C600
2C059000
4F78F300
2E55E200
ENDCHAR
STARTCHAR quotedblright
ENCODING 8221
SWIDTH 600 0
DWIDTH 7 0
BBX 6 5 1 3
BITMAP
0AB1D7
0CE1EA
03C068
2C54D2
850B30
ENDCHAR
STARTCHAR quotedblbase
ENCODING 8222
SWIDTH 600 0
DWIDTH 7 0
BBX 6 5 1 -4
BITMAP
0AB1D7
0CE1EA
03C068
2C54D2
850B30
ENDCHAR
STARTCHAR dagger
ENCODING 8224
SWIDTH 600 0
DWIDTH 7 0
BBX 5 10 2 -1
BITMAP
00B000
129100
DFFF10
164100
091000
0B0000
1A0000
480000
750000
920000
ENDCHAR
STARTCHAR daggerdbl
ENCODING 8225
SWIDTH 600 0
DWIDTH 7 0
BBX 6 10 1 -1
BITMAP
000C00
011A10
0DFFF2
016510
00A200
00B000
11A100
DFFF20
165100
093000
ENDCHAR
STARTCHAR bullet
ENCODING 8226
SWIDTH 600 0
DWIDTH 7 0
BBX 5 3 1 2
BITMAP
09EC10
3FFF30
1CE800
ENDCHAR
STARTCHAR ellipsis
ENCODING 8230
SWIDTH 600 0
DWIDTH 7 0
BBX 8 2 -1 0
BITMAP
0D58B3E2
1E4A94D1
ENDCHAR
STARTCHAR uni202F
ENCODING 8239
SWIDTH 600 0
DWIDTH 7 0
BBX 1 1 0 0
BITMAP
00
ENDCHAR
STARTCHAR perthousand
ENCODING 8240
SWIDTH 600 0
DWIDTH 7 0
BBX 8 8 0 0
BITMAP
04E90000
0A1A0000
0A2A05A1
0AFB8400
05400000
5EA3DD10
A2A93920
AE57E800
ENDCHAR
STARTCHAR uni2032
ENCODING 8242
SWIDTH 600 0
DWIDTH 7 0
BBX 3 3 3 5
BITMAP
0C10
1A00
6400
ENDCHAR
STARTCHAR uni2033
ENCODING 8243
SWIDTH 600 0
DWIDTH 7 0
BBX 5 3 2 5
BITMAP
0C1B20
2A1B00
635500
ENDCHAR
STARTCHAR uni2035
ENCODING 8245
SWIDTH 600 0
DWIDTH 7 0
BBX 3 3 3 5
BITMAP
7700
1B00
0910
ENDCHAR
STARTCHAR guilsinglleft
ENCODING 8249
SWIDTH 600 0
DWIDTH 7 0
BBX 3 5 2 1
BITMAP
0280
2C20
B500
5900
0900
ENDCHAR
STARTCHAR guilsinglright
ENCODING 8250
SWIDTH 600 0
DWIDTH 7 0
BBX 3 5 2 1
BITMAP
3700
0C20
0870
4B10
9000
ENDCHAR
STARTCHAR exclamdbl
ENCODING 8252
SWIDTH 600 0
DWIDTH 7 0
BBX 7 8 0 0
BITMAP
00950960
00C20B20
00C00C00
02901A00
05504600
00000000
2D31D400
3E32E300
ENDCHAR
STARTCHAR uni203D
ENCODING 8253
SWIDTH 600 0
DWIDTH 7 0
BBX 5 8 2 0
BITMAP
4DEA00
921C30
093A00
0B8100
0C0000
000000
A90000
C70000
ENDCHAR
STARTCHAR uni203E
ENCODING 8254
SWIDTH 600 0
DWIDTH 7 0
BBX 7 1 1 7
BITMAP
7FFFFF10
ENDCHAR
STARTCHAR uni203F
ENCODING 8255
SWIDTH 600 0
DWIDTH 7 0
BBX 11 3 -3 -3
BITMAP
200000000020
3A7310137940
005BEFD94000
ENDCHAR
STARTCHAR fraction
ENCODING 8260
SWIDTH 600 0
DWIDTH 7 0
BBX 9 7 -1 0
BITMAP
0000000920
0000008400
0000042000
0000000000
0034000000
0480000000
2900000000
ENDCHAR
STARTCHAR uni2047
ENCODING 8263
SWIDTH 600 0
DWIDTH 7 0
BBX 8 8 0 0
BITMAP
09E95ED2
042E41A5
003901A1
03901A20
0B007500
00000000
7C02E300
8B03E200
ENDCHAR
STARTCHAR uni2048
ENCODING 8264
SWIDTH 600 0
DWIDTH 7 0
BBX 7 8 0 0
BITMAP
09E90680
042E0940
00390C10
03900B00
0B002800
00000000
7C00C600
8B01E500
ENDCHAR
STARTCHAR uni2049
ENCODING 8265
SWIDTH 600 0
DWIDTH 7 0
BBX 8 8 0 0
BITMAP
00C35ED2
00D041A5
02A001A1
05701A20
07307500
00000000
4E12E300
5D13E200
ENDCHAR
STARTCHAR zero.sups
ENCODING 8304
SWIDTH 600 0
DWIDTH 7 0
BBX 4 5 2 5
BITMAP
0AE6
681C
A00A
B268
4EB1
ENDCHAR
STARTCHAR i.sups
ENCODING 8305
SWIDTH 600 0
DWIDTH 7 0
BBX 4 6 2 4
BITMAP
00C0
6FA0
0270
0540
0841
05E6
ENDCHAR
STARTCHAR four.sups
ENCODING 8308
SWIDTH 600 0
DWIDTH 7 0
BBX 4 5 2 5
BITMAP
0090
0741
4764
BFFC
00A0
ENDCHAR
STARTCHAR five.sups
ENCODING 8309
SWIDTH 600 0
DWIDTH 7 0
BBX 4 5 2 5
BITMAP
09FE
0900
0EE4
6458
3EC2
ENDCHAR
STARTCHAR six.sups
ENCODING 8310
SWIDTH 600 0
DWIDTH 7 0
BBX 4 5 2 5
BITMAP
06EA
3A12
7DE5
7648
2DD2
ENDCHAR
STARTCHAR seven.sups
ENCODING 8311
SWIDTH 600 0
DWIDTH 7 0
BBX 4 5 3 5
BITMAP
FFF2
0370
0A00
6400
B000
ENDCHAR
STARTCHAR eight.sups
ENCODING 8312
SWIDTH 600 0
DWIDTH 7 0
BBX 4 5 2 5
BITMAP
09E7
0B2B
2DF4
9476
5ED2
ENDCHAR
STARTCHAR nine.sups
ENCODING 8313
SWIDTH 600 0
DWIDTH 7 0
BBX 4 5 2 5
BITMAP
09E5
382B
572A
3DD7
7E90
ENDCHAR
STARTCHAR parenleft.sups
ENCODING 8317
SWIDTH 600 0
DWIDTH 7 0
BBX 3 7 3 4
BITMAP
0360
0A00
4600
8300
9100
8200
4400
ENDCHAR
STARTCHAR parenright.sups
ENCODING 8318
SWIDTH 600 0
DWIDTH 7 0
BBX 3 7 2 4
BITMAP
0180
00A0
00A0
00A0
0280
0820
2700
ENDCHAR
STARTCHAR n.sups
ENCODING 8319
SWIDTH 600 0
DWIDTH 7 0
BBX 5 5 2 4
BITMAP
1CDD00
4B1A20
750A00
920B00
400300
ENDCHAR
STARTCHAR zero.subs
ENCODING 8320
SWIDTH 600 0
DWIDTH 7 0
BBX 4 5 1 -2
BITMAP
09E7
581C
A10A
A359
4EC1
ENDCHAR
STARTCHAR one.subs
ENCODING 8321
SWIDTH 600 0
DWIDTH 7 0
BBX 4 5 1 -2
BITMAP
07D2
00A0
00A0
0280
CFFC
ENDCHAR
STARTCHAR two.subs
ENCODING 8322
SWIDTH 600 0
DWIDTH 7 0
BBX 4 5 1 -2
BITMAP
07E7
051B
0054
1730
BFF6
ENDCHAR
STARTCHAR three.subs
ENCODING 8323
SWIDTH 600 0
DWIDTH 7 0
BBX 4 5 1 -2
BITMAP
08E7
033B
06E2
6267
3DD3
ENDCHAR
STARTCHAR four.subs
ENCODING 8324
SWIDTH 600 0
DWIDTH 7 0
BBX 4 5 1 -2
BITMAP
0090
0752
3755
AFFC
0090
ENDCHAR
STARTCHAR five.subs
ENCODING 8325
SWIDTH 600 0
DWIDTH 7 0
BBX 4 5 1 -2
BITMAP
08FF
0900
0EE5
6459
3DD2
ENDCHAR
STARTCHAR six.subs
ENCODING 8326
SWIDTH 600 0
DWIDTH 7 0
BBX 4 5 1 -2
BITMAP
06EB
2B12
6DE5
7739
2DD3
ENDCHAR
STARTCHAR seven.subs
ENCODING 8327
SWIDTH 600 0
DWIDTH 7 0
BBX 4 5 2 -2
BITMAP
EFF3
0380
0A00
5500
A000
ENDCHAR
STARTCHAR eight.subs
ENCODING 8328
SWIDTH 600 0
DWIDTH 7 0
BBX 4 5 1 -2
BITMAP
08E8
0B2B
1CF4
8567
5ED3
ENDCHAR
STARTCHAR nine.subs
ENCODING 8329
SWIDTH 600 0
DWIDTH 7 0
BBX 4 5 1 -2
BITMAP
09E5
292B
482A
3DD7
6EA1
ENDCHAR
STARTCHAR parenleft.subs
ENCODING 8333
SWIDTH 600 0
DWIDTH 7 0
BBX 3 7 2 -3
BITMAP
0360
0A00
3700
7300
8200
7300
3500
ENDCHAR
STARTCHAR parenright.subs
ENCODING 8334
SWIDTH 600 0
DWIDTH 7 0
BBX 3 7 1 -3
BITMAP
0080
00A0
00A0
00A0
0290
0820
2700
ENDCHAR
STARTCHAR uni0259.sups
ENCODING 8340
SWIDTH 600 0
DWIDTH 7 0
BBX 4 5 2 4
BITMAP
1BE6
132B
AFFD
A149
4EB1
ENDCHAR
STARTCHAR colonmonetary
ENCODING 8353
SWIDTH 600 0
DWIDTH 7 0
BBX 6 12 1 -2
BITMAP
000011
000554
019EF5
0C9789
6A3450
C36610
E06700
E34500
AB65A0
2EFB20
256000
111000
ENDCHAR
STARTCHAR franc
ENCODING 8355
SWIDTH 600 0
DWIDTH 7 0
BBX 8 8 0 0
BITMAP
009FFFF1
00C20000
01E00000
04FFFC00
07800000
9FFF3000
0C200000
0E000000
ENDCHAR
STARTCHAR lira
ENCODING 8356
SWIDTH 600 0
DWIDTH 7 0
BBX 7 8 0 0
BITMAP
001AEC20
00881560
00B20000
0BFFF800
00A30000
1EFFF400
02910000
8FFFFA00
ENDCHAR
STARTCHAR uni20A6
ENCODING 8358
SWIDTH 600 0
DWIDTH 7 0
BBX 7 8 0 0
BITMAP
00C50560
00A80830
03790A00
3FFFFFB0
07490A00
7FFFFF80
0B068600
1A02F100
ENDCHAR
STARTCHAR peseta
ENCODING 8359
SWIDTH 600 0
DWIDTH 7 0
BBX 8 8 0 0
BITMAP
00AFEB10
00D01A50
0EFFFFF2
03903C20
06FFC400
09400000
0C100000
1C000000
ENDCHAR
STARTCHAR uni20A9
ENCODING 8361
SWIDTH 600 0
DWIDTH 7 0
BBX 8 8 0 0
BITMAP
067160B1
076692A0
08488750
5FFFFFB0
0A638A00
0A719800
0A72C300
0C43E000
ENDCHAR
STARTCHAR dong
ENCODING 8363
SWIDTH 600 0
DWIDTH 7 0
BBX 8 9 0 0
BITMAP
00000840
0008FFE1
00000B00
01AEBB00
09715900
0C319500
06EDC200
00000000
4FFFF300
ENDCHAR
STARTCHAR Euro
ENCODING 8364
SWIDTH 600 0
DWIDTH 7 0
BBX 8 8 0 0
BITMAP
0007DE60
009B2191
03C00000
4FFFFC00
09500000
7FFFF100
09812A10
02BED400
ENDCHAR
STARTCHAR uni20AE
ENCODING 8366
SWIDTH 600 0
DWIDTH 7 0
BBX 6 8 1 0
BITMAP
4FFFFE
005A00
008870
05D820
44E950
69D000
04A000
077000
ENDCHAR
STARTCHAR uni20B1
ENCODING 8369
SWIDTH 600 0
DWIDTH 7 0
BBX 8 8 0 0
BITMAP
00BFE800
00D02C30
0DFFFFF3
04C44A70
2CDBBFB0
0795AA00
0BCB7000
1D000000
ENDCHAR
STARTCHAR uni20B2
ENCODING 8370
SWIDTH 600 0
DWIDTH 7 0
BBX 7 10 0 -1
BITMAP
00005500
002BFD20
02E61470
09700000
0E100000
2D01FF30
1D000C00
0D613C00
04DFC400
00370000
ENDCHAR
STARTCHAR uni20B4
ENCODING 8372
SWIDTH 600 0
DWIDTH 7 0
BBX 7 8 0 0
BITMAP
002CE900
00631D20
00002C00
0DFFFF80
005D4000
2FFFFF40
0B515500
06EE9100
ENDCHAR
STARTCHAR uni20B5
ENCODING 8373
SWIDTH 600 0
DWIDTH 7 0
BBX 6 12 1 -2
BITMAP
000010
000270
019EE5
0C9938
6A0900
B40900
E12700
D16300
A89390
2BFC30
009000
001000
ENDCHAR
STARTCHAR uni20B8
ENCODING 8376
SWIDTH 600 0
DWIDTH 7 0
BBX 6 8 1 0
BITMAP
4FFFFF
000000
8FFFFB
009600
00C200
01E000
04B000
077000
ENDCHAR
STARTCHAR uni20B9
ENCODING 8377
SWIDTH 600 0
DWIDTH 7 0
BBX 6 8 1 0
BITMAP
1FFFFE
001770
5FFFF9
002980
CFD800
078000
00D200
004B00
ENDCHAR
STARTCHAR uni20BA
ENCODING 8378
SWIDTH 600 0
DWIDTH 7 0
BBX 7 8 0 0
BITMAP
00590000
00887500
05D83300
14E86100
39D00530
04900B20
07739A00
0AEC6000
ENDCHAR
STARTCHAR uni20BD
ENCODING 8381
SWIDTH 600 0
DWIDTH 7 0
BBX 8 8 0 0
BITMAP
001FFE70
004A02D2
007700B2
00A416C0
6EFFEA20
00D00000
AFFFFE00
05900000
ENDCHAR
STARTCHAR uni2105
ENCODING 8453
SWIDTH 600 0
DWIDTH 7 0
BBX 9 8 -1 0
BITMAP
03DB000210
0B23002A10
0C11038000
09E5010000
00002CE400
0064A34800
0850B17600
14007EA000
ENDCHAR
STARTCHAR uni2113
ENCODING 8467
SWIDTH 600 0
DWIDTH 7 0
BBX 6 9 1 0
BITMAP
002CD2
00A684
00D092
03B290
069A10
09C100
7E2000
1D3320
07EB10
ENDCHAR
STARTCHAR uni2116
ENCODING 8470
SWIDTH 600 0
DWIDTH 7 0
BBX 9 8 -1 0
BITMAP
00E31D0000
02D4588E60
05A586A480
0867B2DC20
0B38C00000
0C0AA5FB00
3A0D700000
950D400000
ENDCHAR
STARTCHAR uni2117
ENCODING 8471
SWIDTH 600 0
DWIDTH 7 0
BBX 7 8 0 0
BITMAP
006DEB10
089215A0
393FE590
71655880
809FC280
80B00460
59117B00
08EE9100
ENDCHAR
STARTCHAR uni2120
ENCODING 8480
SWIDTH 600 0
DWIDTH 7 0
BBX 8 4 0 4
BITMAP
0AE2B277
0942C8C5
23A37D72
2DC63090
ENDCHAR
STARTCHAR trademark
ENCODING 8482
SWIDTH 600 0
DWIDTH 7 0
BBX 8 4 0 4
BITMAP
1FFDA55B
0280A9B8
05519C65
08236072
ENDCHAR
STARTCHAR uni2126
ENCODING 8486
SWIDTH 600 0
DWIDTH 7 0
BBX 8 8 -1 0
BITMAP
0005DEB1
007C21A9
01E1002D
0690002C
07700059
058000B2
01C00850
4FF35FF2
ENDCHAR
STARTCHAR estimated
ENCODING 8494
SWIDTH 600 0
DWIDTH 7 0
BBX 7 8 0 0
BITMAP
02BFC200
0C413B00
6D000A60
9D000AB0
9FFFFFD0
6D000210
0C303800
02BEA000
ENDCHAR
STARTCHAR uni2150
ENCODING 8528
SWIDTH 600 0
DWIDTH 7 0
BBX 9 8 -1 0
BITMAP
03C6000000
0073000920
00A1008400
00B0042000
00002FFB00
0034008200
0480065000
29000B0000
ENDCHAR
STARTCHAR uni2151
ENCODING 8529
SWIDTH 600 0
DWIDTH 7 0
BBX 9 8 -1 0
BITMAP
03C6000000
0073000920
00A1008400
00B0042000
00002DD200
0034757600
04806ED400
29008E9000
ENDCHAR
STARTCHAR uni2152
ENCODING 8530
SWIDTH 600 0
DWIDTH 7 0
BBX 8 8 0 0
BITMAP
05F60000
00830000
00A005A1
00378400
0542CC00
4F683820
073A1A10
0A16E600
ENDCHAR
STARTCHAR onethird
ENCODING 8531
SWIDTH 600 0
DWIDTH 7 0
BBX 9 8 -1 0
BITMAP
03C6000000
0073000920
00A1008400
00B0042000
000009E300
0034038400
048048C000
29004ED100
ENDCHAR
STARTCHAR twothirds
ENCODING 8532
SWIDTH 600 0
DWIDTH 7 0
BBX 9 8 -1 0
BITMAP
04EA000000
0419000920
0361008400
2FFC042000
000009E300
0034038400
048048C000
29004ED100
ENDCHAR
STARTCHAR uni2155
ENCODING 8533
SWIDTH 600 0
DWIDTH 7 0
BBX 9 8 -1 0
BITMAP
03C6000000
0073000920
00A1008400
00B0042000
00000EF700
00342EE200
0480539400
29005EB000
ENDCHAR
STARTCHAR uni2156
ENCODING 8534
SWIDTH 600 0
DWIDTH 7 0
BBX 9 8 -1 0
BITMAP
04EA000000
0419000920
0361008400
2FFC042000
00000EF700
00342EE200
0480539400
29005EB000
ENDCHAR
STARTCHAR uni2157
ENCODING 8535
SWIDTH 600 0
DWIDTH 7 0
BBX 9 8 -1 0
BITMAP
02DC000000
022B000920
04D7008400
08E8042000
00000EF700
00342EE200
0480539400
29005EB000
ENDCHAR
STARTCHAR uni2158
ENCODING 8536
SWIDTH 600 0
DWIDTH 7 0
BBX 9 8 -1 0
BITMAP
0071000000
0738000920
2FFF108400
0055042000
00000EF700
00342EE200
0480539400
29005EB000
ENDCHAR
STARTCHAR uni2159
ENCODING 8537
SWIDTH 600 0
DWIDTH 7 0
BBX 9 8 -1 0
BITMAP
03C6000000
0073000920
00A1008400
00B0042000
00000AE600
00346DE400
0480858500
29004EC100
ENDCHAR
STARTCHAR uni215A
ENCODING 8538
SWIDTH 600 0
DWIDTH 7 0
BBX 9 8 -1 0
BITMAP
04FF100000
08EA000920
062C008400
0AE6042000
00000AE600
00346DE400
0480858500
29004EC100
ENDCHAR
STARTCHAR oneeighth
ENCODING 8539
SWIDTH 600 0
DWIDTH 7 0
BBX 9 8 -1 0
BITMAP
03C6000000
0073000920
00A1008400
00B0042000
00000BE400
00342A6600
04802EE100
29007FD200
ENDCHAR
STARTCHAR threeeighths
ENCODING 8540
SWIDTH 600 0
DWIDTH 7 0
BBX 9 8 -1 0
BITMAP
02DC000000
022B000920
04D7008400
08E8042000
00000BE400
00342A6600
04802EE100
29007FD200
ENDCHAR
STARTCHAR fiveeighths
ENCODING 8541
SWIDTH 600 0
DWIDTH 7 0
BBX 9 8 -1 0
BITMAP
04FF100000
08EA000920
062C008400
0AE6042000
00000BE400
00342A6600
04802EE100
29007FD200
ENDCHAR
STARTCHAR seveneighths
ENCODING 8542
SWIDTH 600 0
DWIDTH 7 0
BBX 9 8 -1 0
BITMAP
08FF500000
0028000920
00A1008400
0390042000
00000BE400
00342A6600
04802EE100
29007FD200
ENDCHAR
STARTCHAR uni2189
ENCODING 8585
SWIDTH 600 0
DWIDTH 7 0
BBX 9 8 -1 0
BITMAP
04DD200000
0B27500920
1B1A308400
0AE7042000
000009E300
0034038400
048048C000
29004ED100
ENDCHAR
STARTCHAR uni2190
ENCODING 8592
SWIDTH 600 0
DWIDTH 7 0
BBX 7 7 0 0
BITMAP
00180000
01A30000
1A200000
9FFFFFC0
1A200000
01A30000
00180000
ENDCHAR
STARTCHAR arrowup
ENCODING 8593
SWIDTH 600 0
DWIDTH 7 0
BBX 7 7 0 0
BITMAP
001B3000
01ADB200
0A4C1B20
550C0270
000C0000
000C0000
000C0000
ENDCHAR
STARTCHAR uni2192
ENCODING 8594
SWIDTH 600 0
DWIDTH 7 0
BBX 7 7 0 0
BITMAP
00062000
0001B200
00001A20
AFFFFFB0
00001A20
0001B200
00062000
ENDCHAR
STARTCHAR arrowdown
ENCODING 8595
SWIDTH 600 0
DWIDTH 7 0
BBX 7 7 0 0
BITMAP
000C0000
000C0000
000C0000
550C0260
0A4C1B20
01BDB200
001B3000
ENDCHAR
STARTCHAR arrowboth
ENCODING 8596
SWIDTH 600 0
DWIDTH 7 0
BBX 8 5 0 1
BITMAP
08401A00
56000480
EFFFFFF2
56000480
08401A00
ENDCHAR
STARTCHAR arrowupdn
ENCODING 8597
SWIDTH 600 0
DWIDTH 7 0
BBX 5 7 1 0
BITMAP
02C400
4AC870
50C050
00C000
50C050
59C870
03C400
ENDCHAR
STARTCHAR uni2196
ENCODING 8598
SWIDTH 600 0
DWIDTH 7 0
BBX 5 6 1 0
BITMAP
565540
CC5540
A89000
A08900
B00890
200050
ENDCHAR
STARTCHAR uni2197
ENCODING 8599
SWIDTH 600 0
DWIDTH 7 0
BBX 5 6 1 0
BITMAP
355550
355BE0
0079A0
0790A0
7900A0
500020
ENDCHAR
STARTCHAR uni2198
ENCODING 8600
SWIDTH 600 0
DWIDTH 7 0
BBX 5 6 1 0
BITMAP
500020
5A00B0
05A0A0
005AA0
365AF0
245550
ENDCHAR
STARTCHAR uni2199
ENCODING 8601
SWIDTH 600 0
DWIDTH 7 0
BBX 6 6 1 0
BITMAP
200051
A00790
A07900
A79000
BD5650
455540
ENDCHAR
STARTCHAR arrowupdnbse
ENCODING 8616
SWIDTH 600 0
DWIDTH 7 0
BBX 7 9 0 -2
BITMAP
00081000
01ADA300
082C1900
000C0000
000C0000
092C1900
01ADA200
00071000
4FFFFF70
ENDCHAR
STARTCHAR uni21D0
ENCODING 8656
SWIDTH 600 0
DWIDTH 7 0
BBX 7 8 0 -1
BITMAP
00070000
00930000
08FFFFC0
67000000
67000000
08FFFFC0
00930000
00070000
ENDCHAR
STARTCHAR uni21D1
ENCODING 8657
SWIDTH 600 0
DWIDTH 7 0
BBX 7 7 0 0
BITMAP
001B2000
01C8D200
0BB09B10
54909270
00909000
00909000
00909000
ENDCHAR
STARTCHAR uni21D2
ENCODING 8658
SWIDTH 600 0
DWIDTH 7 0
BBX 7 8 0 -1
BITMAP
00061000
00019100
AFFFFA00
00000580
00000580
AFFFFA00
00019100
00061000
ENDCHAR
STARTCHAR uni21D3
ENCODING 8659
SWIDTH 600 0
DWIDTH 7 0
BBX 7 7 0 0
BITMAP
00909000
00909000
00909000
54909270
0BB09B10
01C8D200
001B2000
ENDCHAR
STARTCHAR uni2200
ENCODING 8704
SWIDTH 600 0
DWIDTH 7 0
BBX 7 8 1 0
BITMAP
C3000C30
A4006A00
8DCCE200
69489000
480C2000
3A580000
1BB10000
0E700000
ENDCHAR
STARTCHAR partialdiff
ENCODING 8706
SWIDTH 600 0
DWIDTH 7 0
BBX 7 8 0 0
BITMAP
001AEB10
00141A60
00000680
03BEC970
1D514E40
59002C00
5B13C400
0BEC4000
ENDCHAR
STARTCHAR uni2203
ENCODING 8707
SWIDTH 600 0
DWIDTH 7 0
BBX 7 8 0 0
BITMAP
07FFFF60
00000B30
00000E00
07FFFC00
00006900
00009600
0000B300
FFFFF000
ENDCHAR
STARTCHAR uni2206
ENCODING 8710
SWIDTH 600 0
DWIDTH 7 0
BBX 8 8 -1 0
BITMAP
00005F10
0000BA30
00076760
001C0580
009403B0
03B001D0
0B3000D0
2FFFFFF1
ENDCHAR
STARTCHAR product
ENCODING 8719
SWIDTH 600 0
DWIDTH 7 0
BBX 7 9 0 -1
BITMAP
6FFFFF80
68000680
68000680
68000680
68000680
68000680
68000680
68000680
68000680
ENDCHAR
STARTCHAR summation
ENCODING 8721
SWIDTH 600 0
DWIDTH 7 0
BBX 7 10 0 -2
BITMAP
2FFFFF20
0A500000
01C10000
005A0000
000A5000
000A4000
00690000
02C10000
0B300000
4FFFFF70
ENDCHAR
STARTCHAR minus
ENCODING 8722
SWIDTH 600 0
DWIDTH 7 0
BBX 6 1 1 3
BITMAP
EFFFF2
ENDCHAR
STARTCHAR uni2215
ENCODING 8725
SWIDTH 600 0
DWIDTH 7 0
BBX 9 7 -1 0
BITMAP
0000000920
0000008400
0000042000
0000000000
0034000000
0480000000
2900000000
ENDCHAR
STARTCHAR uni2219
ENCODING 8729
SWIDTH 600 0
DWIDTH 7 0
BBX 2 2 2 3
BITMAP
9B
B9
ENDCHAR
STARTCHAR radical
ENCODING 8730
SWIDTH 600 0
DWIDTH 7 0
BBX 7 11 0 -1
BITMAP
000000A0
00000190
00000460
00000820
00000A00
18700A00
01B03700
00927300
0047A000
000AA000
00087000
ENDCHAR
STARTCHAR infinity
ENCODING 8734
SWIDTH 600 0
DWIDTH 7 0
BBX 8 4 0 2
BITMAP
6EA1BE80
C17C41B2
C16D51B2
7E91BE80
ENDCHAR
STARTCHAR orthogonal
ENCODING 8735
SWIDTH 600 0
DWIDTH 7 0
BBX 6 6 1 1
BITMAP
800000
B00000
B00000
B00000
B00000
EFFFF2
ENDCHAR
STARTCHAR intersection
ENCODING 8745
SWIDTH 600 0
DWIDTH 7 0
BBX 5 6 1 1
BITMAP
1AEB20
8815B0
B000C0
B000B0
B000B0
B000B0
ENDCHAR
STARTCHAR integral
ENCODING 8747
SWIDTH 600 0
DWIDTH 7 0
BBX 4 12 2 -2
BITMAP
05E3
0C30
0D00
0D00
0C00
0B20
0930
0750
0660
0660
0940
AB10
ENDCHAR
STARTCHAR uni2237
ENCODING 8759
SWIDTH 600 0
DWIDTH 7 0
BBX 7 6 0 1
BITMAP
04E31C70
05D21E60
00000000
00000000
2D50BA00
3E30C800
ENDCHAR
STARTCHAR approxequal
ENCODING 8776
SWIDTH 600 0
DWIDTH 7 0
BBX 6 4 1 2
BITMAP
6E9192
A18E90
6E9192
A18E90
ENDCHAR
STARTCHAR notequal
ENCODING 8800
SWIDTH 600 0
DWIDTH 7 0
BBX 6 8 1 0
BITMAP
000290
000820
EFFFF2
007400
019000
EFFFF2
0A0000
640000
ENDCHAR
STARTCHAR equivalence
ENCODING 8801
SWIDTH 600 0
DWIDTH 7 0
BBX 6 7 1 0
BITMAP
EFFFF2
000000
000000
EFFFF2
000000
000000
EFFFF2
ENDCHAR
STARTCHAR lessequal
ENCODING 8804
SWIDTH 600 0
DWIDTH 7 0
BBX 6 7 1 0
BITMAP
000382
28CB71
EA2000
28CB61
000382
000000
EFFFF2
ENDCHAR
STARTCHAR greaterequal
ENCODING 8805
SWIDTH 600 0
DWIDTH 7 0
BBX 6 7 1 0
BITMAP
940000
5AD930
0018F2
5AD930
940000
000000
EFFFF2
ENDCHAR
STARTCHAR house
ENCODING 8962
SWIDTH 600 0
DWIDTH 7 0
BBX 7 8 0 0
BITMAP
003F5000
01C5D200
09704B00
4B000860
66000390
66000390
66000390
6FFFFF90
ENDCHAR
STARTCHAR revlogicalnot
ENCODING 8976
SWIDTH 600 0
DWIDTH 7 0
BBX 6 4 1 0
BITMAP
EFFFF2
B00000
B00000
400000
ENDCHAR
STARTCHAR uni231C
ENCODING 8988
SWIDTH 600 0
DWIDTH 7 0
BBX 5 9 2 0
BITMAP
08FFC0
0A2000
0C0000
1B0000
480000
740000
A10000
B00000
A00000
ENDCHAR
STARTCHAR uni231D
ENCODING 8989
SWIDTH 600 0
DWIDTH 7 0
BBX 4 9 2 0
BITMAP
CFF6
0063
0091
00A0
01A0
0370
0640
0910
0A00
ENDCHAR
STARTCHAR uni231E
ENCODING 8990
SWIDTH 600 0
DWIDTH 7 0
BBX 5 9 1 -1
BITMAP
007100
00B000
00A000
038000
064000
091000
0A0000
0A0000
2FFF10
ENDCHAR
STARTCHAR uni231F
ENCODING 8991
SWIDTH 600 0
DWIDTH 7 0
BBX 6 9 0 -1
BITMAP
000053
000092
0000B0
0001B0
000380
000650
000920
000C00
8FFC00
ENDCHAR
STARTCHAR integraltp
ENCODING 8992
SWIDTH 600 0
DWIDTH 7 0
BBX 3 15 3 -5
BITMAP
3E50
9400
C100
C100
C100
C100
C100
C100
C100
C100
C100
C100
C100
C100
6000
ENDCHAR
STARTCHAR integralbt
ENCODING 8993
SWIDTH 600 0
DWIDTH 7 0
BBX 4 15 1 -2
BITMAP
0020
00C1
00C1
00C1
00C1
00C1
00C1
00C1
00C1
00C1
00C1
00C1
00C0
01C0
1E60
ENDCHAR
STARTCHAR uni2500
ENCODING 9472
SWIDTH 600 0
DWIDTH 7 0
BBX 9 1 -1 3
BITMAP
7FFFFFFFA0
ENDCHAR
STARTCHAR uni2501
ENCODING 9473
SWIDTH 600 0
DWIDTH 7 0
BBX 9 2 -1 3
BITMAP
7FFFFFFFA0
7FFFFFFFA0
ENDCHAR
STARTCHAR uni2502
ENCODING 9474
SWIDTH 600 0
DWIDTH 7 0
BBX 2 17 3 -5
BITMAP
D1
D1
D1
D1
D1
D1
D1
D1
D1
D1
D1
D1
D1
D1
D1
D1
D1
ENDCHAR
STARTCHAR uni2503
ENCODING 9475
SWIDTH 600 0
DWIDTH 7 0
BBX 3 17 2 -5
BITMAP
5F80
5F80
5F80
5F80
5F80
5F80
5F80
5F80
5F80
5F80
5F80
5F80
5F80
5F80
5F80
5F80
5F80
ENDCHAR
STARTCHAR uni2504
ENCODING 9476
SWIDTH 600 0
DWIDTH 7 0
BBX 7 1 0 3
BITMAP
9F3F6CC0
ENDCHAR
STARTCHAR uni2505
ENCODING 9477
SWIDTH 600 0
DWIDTH 7 0
BBX 7 2 0 3
BITMAP
9F3F6CC0
9F3F6CC0
ENDCHAR
STARTCHAR uni2506
ENCODING 9478
SWIDTH 600 0
DWIDTH 7 0
BBX 2 13 3 -3
BITMAP
D1
D1
D1
00
30
D1
D1
D1
00
50
D1
D1
A1
ENDCHAR
STARTCHAR uni2507
ENCODING 9479
SWIDTH 600 0
DWIDTH 7 0
BBX 3 13 2 -3
BITMAP
5F80
5F80
5F80
0000
0000
5F80
5F80
5F80
0000
0000
5F80
5F80
5F80
ENDCHAR
STARTCHAR uni2508
ENCODING 9480
SWIDTH 600 0
DWIDTH 7 0
BBX 7 1 0 3
BITMAP
C9F8F8F0
ENDCHAR
STARTCHAR uni2509
ENCODING 9481
SWIDTH 600 0
DWIDTH 7 0
BBX 7 2 0 3
BITMAP
C9F8F8F0
C9F8F8F0
ENDCHAR
STARTCHAR uni250A
ENCODING 9482
SWIDTH 600 0
DWIDTH 7 0
BBX 2 14 3 -3
BITMAP
D1
D1
D1
00
D1
D1
D1
00
D1
D1
D1
D1
D1
D1
ENDCHAR
STARTCHAR uni250B
ENCODING 9483
SWIDTH 600 0
DWIDTH 7 0
BBX 3 14 2 -3
BITMAP
5F80
5F80
5F80
0000
5F80
5F80
5F80
0000
5F80
5F80
5F80
5F80
5F80
5F80
ENDCHAR
STARTCHAR uni250C
ENCODING 9484
SWIDTH 600 0
DWIDTH 7 0
BBX 5 9 3 -5
BITMAP
DFFFA0
D10000
D10000
D10000
D10000
D10000
D10000
D10000
C10000
ENDCHAR
STARTCHAR uni250D
ENCODING 9485
SWIDTH 600 0
DWIDTH 7 0
BBX 5 10 3 -5
BITMAP
DFFFA0
DFFFA0
D10000
D10000
D10000
D10000
D10000
D10000
D10000
600000
ENDCHAR
STARTCHAR uni250E
ENCODING 9486
SWIDTH 600 0
DWIDTH 7 0
BBX 6 9 2 -5
BITMAP
5FFFFA
5F8000
5F8000
5F8000
5F8000
5F8000
5F8000
5F8000
5E7000
ENDCHAR
STARTCHAR uni250F
ENCODING 9487
SWIDTH 600 0
DWIDTH 7 0
BBX 6 10 2 -5
BITMAP
5FFFFA
5FFFFA
5F8000
5F8000
5F8000
5F8000
5F8000
5F8000
5F8000
274000
ENDCHAR
STARTCHAR uni2510
ENCODING 9488
SWIDTH 600 0
DWIDTH 7 0
BBX 6 9 -1 -5
BITMAP
7FFFF1
0000D1
0000D1
0000D1
0000D1
0000D1
0000D1
0000D1
0000C1
ENDCHAR
STARTCHAR uni2511
ENCODING 9489
SWIDTH 600 0
DWIDTH 7 0
BBX 6 10 -1 -5
BITMAP
7FFFF1
7FFFF1
0000D1
0000D1
0000D1
0000D1
0000D1
0000D1
0000D1
000060
ENDCHAR
STARTCHAR uni2512
ENCODING 9490
SWIDTH 600 0
DWIDTH 7 0
BBX 6 9 -1 -5
BITMAP
7FFFF8
0005F8
0005F8
0005F8
0005F8
0005F8
0005F8
0005F8
0005E7
ENDCHAR
STARTCHAR uni2513
ENCODING 9491
SWIDTH 600 0
DWIDTH 7 0
BBX 6 10 -1 -5
BITMAP
7FFFF8
7FFFF8
0005F8
0005F8
0005F8
0005F8
0005F8
0005F8
0005F8
000274
ENDCHAR
STARTCHAR uni2514
ENCODING 9492
SWIDTH 600 0
DWIDTH 7 0
BBX 5 9 3 3
BITMAP
C10000
D10000
D10000
D10000
D10000
D10000
D10000
D10000
DFFFA0
ENDCHAR
STARTCHAR uni2515
ENCODING 9493
SWIDTH 600 0
DWIDTH 7 0
BBX 5 10 3 3
BITMAP
600000
D10000
D10000
D10000
D10000
D10000
D10000
D10000
DFFFA0
DFFFA0
ENDCHAR
STARTCHAR uni2516
ENCODING 9494
SWIDTH 600 0
DWIDTH 7 0
BBX 6 9 2 3
BITMAP
5E7000
5F8000
5F8000
5F8000
5F8000
5F8000
5F8000
5F8000
5FFFFA
ENDCHAR
STARTCHAR uni2517
ENCODING 9495
SWIDTH 600 0
DWIDTH 7 0
BBX 6 10 2 3
BITMAP
274000
5F8000
5F8000
5F8000
5F8000
5F8000
5F8000
5F8000
5FFFFA
5FFFFA
ENDCHAR
STARTCHAR uni2518
ENCODING 9496
SWIDTH 600 0
DWIDTH 7 0
BBX 6 9 -1 3
BITMAP
0000C1
0000D1
0000D1
0000D1
0000D1
0000D1
0000D1
0000D1
7FFFF1
ENDCHAR
STARTCHAR uni2519
ENCODING 9497
SWIDTH 600 0
DWIDTH 7 0
BBX 6 10 -1 3
BITMAP
000060
0000D1
0000D1
0000D1
0000D1
0000D1
0000D1
0000D1
7FFFF1
7FFFF1
ENDCHAR
STARTCHAR uni251A
ENCODING 9498
SWIDTH 600 0
DWIDTH 7 0
BBX 6 9 -1 3
BITMAP
0005E7
0005F8
0005F8
0005F8
0005F8
0005F8
0005F8
0005F8
7FFFF8
ENDCHAR
STARTCHAR uni251B
ENCODING 9499
SWIDTH 600 0
DWIDTH 7 0
BBX 6 10 -1 3
BITMAP
000274
0005F8
0005F8
0005F8
0005F8
0005F8
0005F8
0005F8
7FFFF8
7FFFF8
ENDCHAR
STARTCHAR uni251C
ENCODING 9500
SWIDTH 600 0
DWIDTH 7 0
BBX 5 17 3 -5
BITMAP
C10000
D10000
D10000
D10000
D10000
D10000
D10000
D10000
DFFFA0
D10000
D10000
D10000
D10000
D10000
D10000
D10000
C10000
ENDCHAR
STARTCHAR uni251D
ENCODING 9501
SWIDTH 600 0
DWIDTH 7 0
BBX 5 18 3 -5
BITMAP
600000
D10000
D10000
D10000
D10000
D10000
D10000
D10000
DFFFA0
DFFFA0
D10000
D10000
D10000
D10000
D10000
D10000
D10000
600000
ENDCHAR
STARTCHAR uni251E
ENCODING 9502
SWIDTH 600 0
DWIDTH 7 0
BBX 6 17 2 -5
BITMAP
5E7000
5F8000
5F8000
5F8000
5F8000
5F8000
5F8000
5F8000
5FFFFA
0D1000
0D1000
0D1000
0D1000
0D1000
0D1000
0D1000
0C1000
ENDCHAR
STARTCHAR uni251F
ENCODING 9503
SWIDTH 600 0
DWIDTH 7 0
BBX 6 17 2 -5
BITMAP
0C1000
0D1000
0D1000
0D1000
0D1000
0D1000
0D1000
0D1000
5FFFFA
5F8000
5F8000
5F8000
5F8000
5F8000
5F8000
5F8000
5E7000
ENDCHAR
STARTCHAR uni2520
ENCODING 9504
SWIDTH 600 0
DWIDTH 7 0
BBX 6 17 2 -5
BITMAP
5E7000
5F8000
5F8000
5F8000
5F8000
5F8000
5F8000
5F8000
5FFFFA
5F8000
5F8000
5F8000
5F8000
5F8000
5F8000
5F8000
5E7000
ENDCHAR
STARTCHAR uni2521
ENCODING 9505
SWIDTH 600 0
DWIDTH 7 0
BBX 6 18 2 -5
BITMAP
274000
5F8000
5F8000
5F8000
5F8000
5F8000
5F8000
5F8000
5FFFFA
5FFFFA
0D1000
0D1000
0D1000
0D1000
0D1000
0D1000
0D1000
060000
ENDCHAR
STARTCHAR uni2522
ENCODING 9506
SWIDTH 600 0
DWIDTH 7 0
BBX 6 18 2 -5
BITMAP
060000
0D1000
0D1000
0D1000
0D1000
0D1000
0D1000
0D1000
5FFFFA
5FFFFA
5F8000
5F8000
5F8000
5F8000
5F8000
5F8000
5F8000
274000
ENDCHAR
STARTCHAR uni2523
ENCODING 9507
SWIDTH 600 0
DWIDTH 7 0
BBX 6 18 2 -5
BITMAP
274000
5F8000
5F8000
5F8000
5F8000
5F8000
5F8000
5F8000
5FFFFA
5FFFFA
5F8000
5F8000
5F8000
5F8000
5F8000
5F8000
5F8000
274000
ENDCHAR
STARTCHAR uni2524
ENCODING 9508
SWIDTH 600 0
DWIDTH 7 0
BBX 6 17 -1 -5
BITMAP
0000C1
0000D1
0000D1
0000D1
0000D1
0000D1
0000D1
0000D1
7FFFF1
0000D1
0000D1
0000D1
0000D1
0000D1
0000D1
0000D1
0000C1
ENDCHAR
STARTCHAR uni2525
ENCODING 9509
SWIDTH 600 0
DWIDTH 7 0
BBX 6 18 -1 -5
BITMAP
000060
0000D1
0000D1
0000D1
0000D1
0000D1
0000D1
0000D1
7FFFF1
7FFFF1
0000D1
0000D1
0000D1
0000D1
0000D1
0000D1
0000D1
000060
ENDCHAR
STARTCHAR uni2526
ENCODING 9510
SWIDTH 600 0
DWIDTH 7 0
BBX 6 17 -1 -5
BITMAP
0005E7
0005F8
0005F8
0005F8
0005F8
0005F8
0005F8
0005F8
7FFFF8
0000D1
0000D1
0000D1
0000D1
0000D1
0000D1
0000D1
0000C1
ENDCHAR
STARTCHAR uni2527
ENCODING 9511
SWIDTH 600 0
DWIDTH 7 0
BBX 6 17 -1 -5
BITMAP
0000C1
0000D1
0000D1
0000D1
0000D1
0000D1
0000D1
0000D1
7FFFF8
0005F8
0005F8
0005F8
0005F8
0005F8
0005F8
0005F8
0005E7
ENDCHAR
STARTCHAR uni2528
ENCODING 9512
SWIDTH 600 0
DWIDTH 7 0
BBX 6 17 -1 -5
BITMAP
0005E7
0005F8
0005F8
0005F8
0005F8
0005F8
0005F8
0005F8
7FFFF8
0005F8
0005F8
0005F8
0005F8
0005F8
0005F8
0005F8
0005E7
ENDCHAR
STARTCHAR uni2529
ENCODING 9513
SWIDTH 600 0
DWIDTH 7 0
BBX 6 18 -1 -5
BITMAP
000274
0005F8
0005F8
0005F8
0005F8
0005F8
0005F8
0005F8
7FFFF8
7FFFF8
0000D1
0000D1
0000D1
0000D1
0000D1
0000D1
0000D1
000060
ENDCHAR
STARTCHAR uni252A
ENCODING 9514
SWIDTH 600 0
DWIDTH 7 0
BBX 6 18 -1 -5
BITMAP
000060
0000D1
0000D1
0000D1
0000D1
0000D1
0000D1
0000D1
7FFFF8
7FFFF8
0005F8
0005F8
0005F8
0005F8
0005F8
0005F8
0005F8
000274
ENDCHAR
STARTCHAR uni252B
ENCODING 9515
SWIDTH 600 0
DWIDTH 7 0
BBX 6 18 -1 -5
BITMAP
000274
0005F8
0005F8
0005F8
0005F8
0005F8
0005F8
0005F8
7FFFF8
7FFFF8
0005F8
0005F8
0005F8
0005F8
0005F8
0005F8
0005F8
000274
ENDCHAR
STARTCHAR uni252C
ENCODING 9516
SWIDTH 600 0
DWIDTH 7 0
BBX 9 9 -1 -5
BITMAP
7FFFFFFFA0
0000D10000
0000D10000
0000D10000
0000D10000
0000D10000
0000D10000
0000D10000
0000C10000
ENDCHAR
STARTCHAR uni252D
ENCODING 9517
SWIDTH 600 0
DWIDTH 7 0
BBX 9 10 -1 -5
BITMAP
7FFFF10000
7FFFFFFFA0
0000D10000
0000D10000
0000D10000
0000D10000
0000D10000
0000D10000
0000D10000
0000600000
ENDCHAR
STARTCHAR uni252E
ENCODING 9518
SWIDTH 600 0
DWIDTH 7 0
BBX 9 10 -1 -5
BITMAP
0000DFFFA0
7FFFFFFFA0
0000D10000
0000D10000
0000D10000
0000D10000
0000D10000
0000D10000
0000D10000
0000600000
ENDCHAR
STARTCHAR uni252F
ENCODING 9519
SWIDTH 600 0
DWIDTH 7 0
BBX 9 10 -1 -5
BITMAP
7FFFFFFFA0
7FFFFFFFA0
0000D10000
0000D10000
0000D10000
0000D10000
0000D10000
0000D10000
0000D10000
0000600000
ENDCHAR
STARTCHAR uni2530
ENCODING 9520
SWIDTH 600 0
DWIDTH 7 0
BBX 9 9 -1 -5
BITMAP
7FFFFFFFA0
0005F80000
0005F80000
0005F80000
0005F80000
0005F80000
0005F80000
0005F80000
0005E70000
ENDCHAR
STARTCHAR uni2531
ENCODING 9521
SWIDTH 600 0
DWIDTH 7 0
BBX 9 10 -1 -5
BITMAP
7FFFF80000
7FFFFFFFA0
0005F80000
0005F80000
0005F80000
0005F80000
0005F80000
0005F80000
0005F80000
0002740000
ENDCHAR
STARTCHAR uni2532
ENCODING 9522
SWIDTH 600 0
DWIDTH 7 0
BBX 9 10 -1 -5
BITMAP
0005FFFFA0
7FFFFFFFA0
0005F80000
0005F80000
0005F80000
0005F80000
0005F80000
0005F80000
0005F80000
0002740000
ENDCHAR
STARTCHAR uni2533
ENCODING 9523
SWIDTH 600 0
DWIDTH 7 0
BBX 9 10 -1 -5
BITMAP
7FFFFFFFA0
7FFFFFFFA0
0005F80000
0005F80000
0005F80000
0005F80000
0005F80000
0005F80000
0005F80000
0002740000
ENDCHAR
STARTCHAR uni2534
ENCODING 9524
SWIDTH 600 0
DWIDTH 7 0
BBX 9 9 -1 3
BITMAP
0000C10000
0000D10000
0000D10000
0000D10000
0000D10000
0000D10000
0000D10000
0000D10000
7FFFFFFFA0
ENDCHAR
STARTCHAR uni2535
ENCODING 9525
SWIDTH 600 0
DWIDTH 7 0
BBX 9 10 -1 3
BITMAP
0000600000
0000D10000
0000D10000
0000D10000
0000D10000
0000D10000
0000D10000
0000D10000
7FFFF10000
7FFFFFFFA0
ENDCHAR
STARTCHAR uni2536
ENCODING 9526
SWIDTH 600 0
DWIDTH 7 0
BBX 9 10 -1 3
BITMAP
0000600000
0000D10000
0000D10000
0000D10000
0000D10000
0000D10000
0000D10000
0000D10000
0000DFFFA0
7FFFFFFFA0
ENDCHAR
STARTCHAR uni2537
ENCODING 9527
SWIDTH 600 0
DWIDTH 7 0
BBX 9 10 -1 3
BITMAP
0000600000
0000D10000
0000D10000
0000D10000
0000D10000
0000D10000
0000D10000
0000D10000
7FFFFFFFA0
7FFFFFFFA0
ENDCHAR
STARTCHAR uni2538
ENCODING 9528
SWIDTH 600 0
DWIDTH 7 0
BBX 9 9 -1 3
BITMAP
0005E70000
0005F80000
0005F80000
0005F80000
0005F80000
0005F80000
0005F80000
0005F80000
7FFFFFFFA0
ENDCHAR
STARTCHAR uni2539
ENCODING 9529
SWIDTH 600 0
DWIDTH 7 0
BBX 9 10 -1 3
BITMAP
0002740000
0005F80000
0005F80000
0005F80000
0005F80000
0005F80000
0005F80000
0005F80000
7FFFF80000
7FFFFFFFA0
ENDCHAR
STARTCHAR uni253A
ENCODING 9530
SWIDTH 600 0
DWIDTH 7 0
BBX 9 10 -1 3
BITMAP
0002740000
0005F80000
0005F80000
0005F80000
0005F80000
0005F80000
0005F80000
0005F80000
0005FFFFA0
7FFFFFFFA0
ENDCHAR
STARTCHAR uni253B
ENCODING 9531
SWIDTH 600 0
DWIDTH 7 0
BBX 9 10 -1 3
BITMAP
0002740000
0005F80000
0005F80000
0005F80000
0005F80000
0005F80000
0005F80000
0005F80000
7FFFFFFFA0
7FFFFFFFA0
ENDCHAR
STARTCHAR uni253C
ENCODING 9532
SWIDTH 600 0
DWIDTH 7 0
BBX 9 17 -1 -5
BITMAP
0000C10000
0000D10000
0000D10000
0000D10000
0000D10000
0000D10000
0000D10000
0000D10000
7FFFFFFFA0
0000D10000
0000D10000
0000D10000
0000D10000
0000D10000
0000D10000
0000D10000
0000C10000
ENDCHAR
STARTCHAR uni253D
ENCODING 9533
SWIDTH 600 0
DWIDTH 7 0
BBX 9 18 -1 -5
BITMAP
0000600000
0000D10000
0000D10000
0000D10000
0000D10000
0000D10000
0000D10000
0000D10000
7FFFF10000
7FFFFFFFA0
0000D10000
0000D10000
0000D10000
0000D10000
0000D10000
0000D10000
0000D10000
0000600000
ENDCHAR
STARTCHAR uni253E
ENCODING 9534
SWIDTH 600 0
DWIDTH 7 0
BBX 9 18 -1 -5
BITMAP
0000600000
0000D10000
0000D10000
0000D10000
0000D10000
0000D10000
0000D10000
0000D10000
0000DFFFA0
7FFFFFFFA0
0000D10000
0000D10000
0000D10000
0000D10000
0000D10000
0000D10000
0000D10000
0000600000
ENDCHAR
STARTCHAR uni253F
ENCODING 9535
SWIDTH 600 0
DWIDTH 7 0
BBX 9 18 -1 -5
BITMAP
0000600000
0000D10000
0000D10000
0000D10000
0000D10000
0000D10000
0000D10000
0000D10000
7FFFFFFFA0
7FFFFFFFA0
0000D10000
0000D10000
0000D10000
0000D10000
0000D10000
0000D10000
0000D10000
0000600000
ENDCHAR
STARTCHAR uni2540
ENCODING 9536
SWIDTH 600 0
DWIDTH 7 0
BBX 9 17 -1 -5
BITMAP
0005E70000
0005F80000
0005F80000
0005F80000
0005F80000
0005F80000
0005F80000
0005F80000
7FFFFFFFA0
0000D10000
0000D10000
0000D10000
0000D10000
0000D10000
0000D10000
0000D10000
0000C10000
ENDCHAR
STARTCHAR uni2541
ENCODING 9537
SWIDTH 600 0
DWIDTH 7 0
BBX 9 17 -1 -5
BITMAP
0000C10000
0000D10000
0000D10000
0000D10000
0000D10000
0000D10000
0000D10000
0000D10000
7FFFFFFFA0
0005F80000
0005F80000
0005F80000
0005F80000
0005F80000
0005F80000
0005F80000
0005E70000
ENDCHAR
STARTCHAR uni2542
ENCODING 9538
SWIDTH 600 0
DWIDTH 7 0
BBX 9 17 -1 -5
BITMAP
0005E70000
0005F80000
0005F80000
0005F80000
0005F80000
0005F80000
0005F80000
0005F80000
7FFFFFFFA0
0005F80000
0005F80000
0005F80000
0005F80000
0005F80000
0005F80000
0005F80000
0005E70000
ENDCHAR
STARTCHAR uni2543
ENCODING 9539
SWIDTH 600 0
DWIDTH 7 0
BBX 9 18 -1 -5
BITMAP
0002740000
0005F80000
0005F80000
0005F80000
0005F80000
0005F80000
0005F80000
0005F80000
7FFFF80000
7FFFFFFFA0
0000D10000
0000D10000
0000D10000
0000D10000
0000D10000
0000D10000
0000D10000
0000600000
ENDCHAR
STARTCHAR uni2544
ENCODING 9540
SWIDTH 600 0
DWIDTH 7 0
BBX 9 18 -1 -5
BITMAP
0002740000
0005F80000
0005F80000
0005F80000
0005F80000
0005F80000
0005F80000
0005F80000
0005FFFFA0
7FFFFFFFA0
0000D10000
0000D10000
0000D10000
0000D10000
0000D10000
0000D10000
0000D10000
0000600000
ENDCHAR
STARTCHAR uni2545
ENCODING 9541
SWIDTH 600 0
DWIDTH 7 0
BBX 9 18 -1 -5
BITMAP
0000600000
0000D10000
0000D10000
0000D10000
0000D10000
0000D10000
0000D10000
0000D10000
7FFFF80000
7FFFFFFFA0
0005F80000
0005F80000
0005F80000
0005F80000
0005F80000
0005F80000
0005F80000
0002740000
ENDCHAR
STARTCHAR uni2546
ENCODING 9542
SWIDTH 600 0
DWIDTH 7 0
BBX 9 18 -1 -5
BITMAP
0000600000
0000D10000
0000D10000
0000D10000
0000D10000
0000D10000
0000D10000
0000D10000
0005FFFFA0
7FFFFFFFA0
0005F80000
0005F80000
0005F80000
0005F80000
0005F80000
0005F80000
0005F80000
0002740000
ENDCHAR
STARTCHAR uni2547
ENCODING 9543
SWIDTH 600 0
DWIDTH 7 0
BBX 9 18 -1 -5
BITMAP
0002740000
0005F80000
0005F80000
0005F80000
0005F80000
0005F80000
0005F80000
0005F80000
7FFFFFFFA0
7FFFFFFFA0
0000D10000
0000D10000
0000D10000
0000D10000
0000D10000
0000D10000
0000D10000
0000600000
ENDCHAR
STARTCHAR uni2548
ENCODING 9544
SWIDTH 600 0
DWIDTH 7 0
BBX 9 18 -1 -5
BITMAP
0000600000
0000D10000
0000D10000
0000D10000
0000D10000
0000D10000
0000D10000
0000D10000
7FFFFFFFA0
7FFFFFFFA0
0005F80000
0005F80000
0005F80000
0005F80000
0005F80000
0005F80000
0005F80000
0002740000
ENDCHAR
STARTCHAR uni2549
ENCODING 9545
SWIDTH 600 0
DWIDTH 7 0
BBX 9 18 -1 -5
BITMAP
0002740000
0005F80000
0005F80000
0005F80000
0005F80000
0005F80000
0005F80000
0005F80000
7FFFF80000
7FFFFFFFA0
0005F80000
0005F80000
0005F80000
0005F80000
0005F80000
0005F80000
0005F80000
0002740000
ENDCHAR
STARTCHAR uni254A
ENCODING 9546
SWIDTH 600 0
DWIDTH 7 0
BBX 9 18 -1 -5
BITMAP
0002740000
0005F80000
0005F80000
0005F80000
0005F80000
0005F80000
0005F80000
0005F80000
0005FFFFA0
7FFFFFFFA0
0005F80000
0005F80000
0005F80000
0005F80000
0005F80000
0005F80000
0005F80000
0002740000
ENDCHAR
STARTCHAR uni254B
ENCODING 9547
SWIDTH 600 0
DWIDTH 7 0
BBX 9 18 -1 -5
BITMAP
0002740000
0005F80000
0005F80000
0005F80000
0005F80000
0005F80000
0005F80000
0005F80000
7FFFFFFFA0
7FFFFFFFA0
0005F80000
0005F80000
0005F80000
0005F80000
0005F80000
0005F80000
0005F80000
0002740000
ENDCHAR
STARTCHAR uni254C
ENCODING 9548
SWIDTH 600 0
DWIDTH 7 0
BBX 7 1 0 3
BITMAP
1FB08F40
ENDCHAR
STARTCHAR uni254D
ENCODING 9549
SWIDTH 600 0
DWIDTH 7 0
BBX 7 2 0 3
BITMAP
1FB08F40
1FB08F40
ENDCHAR
STARTCHAR uni254E
ENCODING 9550
SWIDTH 600 0
DWIDTH 7 0
BBX 2 11 3 -2
BITMAP
D1
D1
D1
81
00
00
00
81
D1
D1
D1
ENDCHAR
STARTCHAR uni254F
ENCODING 9551
SWIDTH 600 0
DWIDTH 7 0
BBX 3 11 2 -2
BITMAP
5F80
5F80
5F80
5F80
0000
0000
0000
4C60
5F80
5F80
4C60
ENDCHAR
STARTCHAR uni2550
ENCODING 9552
SWIDTH 600 0
DWIDTH 7 0
BBX 9 3 -1 2
BITMAP
7FFFFFFFA0
0000000000
7FFFFFFFA0
ENDCHAR
STARTCHAR uni2551
ENCODING 9553
SWIDTH 600 0
DWIDTH 7 0
BBX 3 17 2 -5
BITMAP
C2E0
C2E0
C2E0
C2E0
C2E0
C2E0
C2E0
C2E0
C2E0
C2E0
C2E0
C2E0
C2E0
C2E0
C2E0
C2E0
C2E0
ENDCHAR
STARTCHAR uni2552
ENCODING 9554
SWIDTH 600 0
DWIDTH 7 0
BBX 5 10 3 -5
BITMAP
DFFFA0
D10000
DFFFA0
D10000
D10000
D10000
D10000
D10000
D10000
D10000
ENDCHAR
STARTCHAR uni2553
ENCODING 9555
SWIDTH 600 0
DWIDTH 7 0
BBX 6 9 2 -5
BITMAP
CFFFFA
C2E000
C2E000
C2E000
C2E000
C2E000
C2E000
C2E000
B2D000
ENDCHAR
STARTCHAR uni2554
ENCODING 9556
SWIDTH 600 0
DWIDTH 7 0
BBX 6 10 2 -5
BITMAP
CFFFFA
C20000
C2EFFA
C2E000
C2E000
C2E000
C2E000
C2E000
C2E000
A2E000
ENDCHAR
STARTCHAR uni2555
ENCODING 9557
SWIDTH 600 0
DWIDTH 7 0
BBX 6 10 -1 -5
BITMAP
7FFFF1
0000D1
7FFFF1
0000D1
0000D1
0000D1
0000D1
0000D1
0000D1
0000D1
ENDCHAR
STARTCHAR uni2556
ENCODING 9558
SWIDTH 600 0
DWIDTH 7 0
BBX 6 9 -1 -5
BITMAP
7FFFFF
000C2E
000C2E
000C2E
000C2E
000C2E
000C2E
000C2E
000B2D
ENDCHAR
STARTCHAR uni2557
ENCODING 9559
SWIDTH 600 0
DWIDTH 7 0
BBX 6 10 -1 -5
BITMAP
7FFFFF
00000E
7FFF2E
000C2E
000C2E
000C2E
000C2E
000C2E
000C2E
000C2C
ENDCHAR
STARTCHAR uni2558
ENCODING 9560
SWIDTH 600 0
DWIDTH 7 0
BBX 5 10 3 2
BITMAP
D10000
D10000
D10000
D10000
D10000
D10000
D10000
DFFFA0
D10000
DFFFA0
ENDCHAR
STARTCHAR uni2559
ENCODING 9561
SWIDTH 600 0
DWIDTH 7 0
BBX 6 9 2 3
BITMAP
B2D000
C2E000
C2E000
C2E000
C2E000
C2E000
C2E000
C2E000
CFFFFA
ENDCHAR
STARTCHAR uni255A
ENCODING 9562
SWIDTH 600 0
DWIDTH 7 0
BBX 6 10 2 2
BITMAP
A2E000
C2E000
C2E000
C2E000
C2E000
C2E000
C2E000
C2EFFA
C20000
CFFFFA
ENDCHAR
STARTCHAR uni255B
ENCODING 9563
SWIDTH 600 0
DWIDTH 7 0
BBX 6 10 -1 2
BITMAP
0000D1
0000D1
0000D1
0000D1
0000D1
0000D1
0000D1
7FFFF1
0000D1
7FFFF1
ENDCHAR
STARTCHAR uni255C
ENCODING 9564
SWIDTH 600 0
DWIDTH 7 0
BBX 6 9 -1 3
BITMAP
000B2D
000C2E
000C2E
000C2E
000C2E
000C2E
000C2E
000C2E
7FFFFF
ENDCHAR
STARTCHAR uni255D
ENCODING 9565
SWIDTH 600 0
DWIDTH 7 0
BBX 6 10 -1 2
BITMAP
000C2C
000C2E
000C2E
000C2E
000C2E
000C2E
000C2E
7FFF2E
00000E
7FFFFF
ENDCHAR
STARTCHAR uni255E
ENCODING 9566
SWIDTH 600 0
DWIDTH 7 0
BBX 5 17 3 -5
BITMAP
D10000
D10000
D10000
D10000
D10000
D10000
D10000
DFFFA0
D10000
DFFFA0
D10000
D10000
D10000
D10000
D10000
D10000
D10000
ENDCHAR
STARTCHAR uni255F
ENCODING 9567
SWIDTH 600 0
DWIDTH 7 0
BBX 6 17 2 -5
BITMAP
C2D000
C2E000
C2E000
C2E000
C2E000
C2E000
C2E000
C2E000
C2EFFA
C2E000
C2E000
C2E000
C2E000
C2E000
C2E000
C2E000
A1D000
ENDCHAR
STARTCHAR uni2560
ENCODING 9568
SWIDTH 600 0
DWIDTH 7 0
BBX 6 17 2 -5
BITMAP
C2E000
C2E000
C2E000
C2E000
C2E000
C2E000
C2E000
C2EFFA
C20000
C2EFFA
C2E000
C2E000
C2E000
C2E000
C2E000
C2E000
A1E000
ENDCHAR
STARTCHAR uni2561
ENCODING 9569
SWIDTH 600 0
DWIDTH 7 0
BBX 6 17 -1 -5
BITMAP
0000D1
0000D1
0000D1
0000D1
0000D1
0000D1
0000D1
7FFFF1
0000D1
7FFFF1
0000D1
0000D1
0000D1
0000D1
0000D1
0000D1
0000D1
ENDCHAR
STARTCHAR uni2562
ENCODING 9570
SWIDTH 600 0
DWIDTH 7 0
BBX 6 17 -1 -5
BITMAP
000B2E
000C2E
000C2E
000C2E
000C2E
000C2E
000C2E
000C2E
7FFF2E
000C2E
000C2E
000C2E
000C2E
000C2E
000C2E
000C2E
000B2B
ENDCHAR
STARTCHAR uni2563
ENCODING 9571
SWIDTH 600 0
DWIDTH 7 0
BBX 6 17 -1 -5
BITMAP
000C2E
000C2E
000C2E
000C2E
000C2E
000C2E
000C2E
7FFF2E
00000E
7FFF2E
000C2E
000C2E
000C2E
000C2E
000C2E
000C2E
000C2B
ENDCHAR
STARTCHAR uni2564
ENCODING 9572
SWIDTH 600 0
DWIDTH 7 0
BBX 9 10 -1 -5
BITMAP
7FFFFFFFA0
0000000000
7FFFFFFFA0
0000D10000
0000D10000
0000D10000
0000D10000
0000D10000
0000D10000
0000D10000
ENDCHAR
STARTCHAR uni2565
ENCODING 9573
SWIDTH 600 0
DWIDTH 7 0
BBX 9 9 -1 -5
BITMAP
7FFFFFFFA0
000C2E0000
000C2E0000
000C2E0000
000C2E0000
000C2E0000
000C2E0000
000C2E0000
000B2D0000
ENDCHAR
STARTCHAR uni2566
ENCODING 9574
SWIDTH 600 0
DWIDTH 7 0
BBX 9 10 -1 -5
BITMAP
7FFFFFFFA0
0000000000
7FFF2EFFA0
000C2E0000
000C2E0000
000C2E0000
000C2E0000
000C2E0000
000C2E0000
000C2E0000
ENDCHAR
STARTCHAR uni2567
ENCODING 9575
SWIDTH 600 0
DWIDTH 7 0
BBX 9 10 -1 2
BITMAP
0000D10000
0000D10000
0000D10000
0000D10000
0000D10000
0000D10000
0000D10000
7FFFFFFFA0
0000000000
7FFFFFFFA0
ENDCHAR
STARTCHAR uni2568
ENCODING 9576
SWIDTH 600 0
DWIDTH 7 0
BBX 9 9 -1 3
BITMAP
000B2D0000
000C2E0000
000C2E0000
000C2E0000
000C2E0000
000C2E0000
000C2E0000
000C2E0000
7FFFFFFFA0
ENDCHAR
STARTCHAR uni2569
ENCODING 9577
SWIDTH 600 0
DWIDTH 7 0
BBX 9 10 -1 2
BITMAP
000C2E0000
000C2E0000
000C2E0000
000C2E0000
000C2E0000
000C2E0000
000C2E0000
7FFF2EFFA0
0000000000
7FFFFFFFA0
ENDCHAR
STARTCHAR uni256A
ENCODING 9578
SWIDTH 600 0
DWIDTH 7 0
BBX 9 17 -1 -5
BITMAP
0000D10000
0000D10000
0000D10000
0000D10000
0000D10000
0000D10000
0000D10000
7FFFFFFFA0
0000D10000
7FFFFFFFA0
0000D10000
0000D10000
0000D10000
0000D10000
0000D10000
0000D10000
0000D10000
ENDCHAR
STARTCHAR uni256B
ENCODING 9579
SWIDTH 600 0
DWIDTH 7 0
BBX 9 17 -1 -5
BITMAP
000B2D0000
000C2E0000
000C2E0000
000C2E0000
000C2E0000
000C2E0000
000C2E0000
000C2E0000
7FFFFFFFA0
000C2E0000
000C2E0000
000C2E0000
000C2E0000
000C2E0000
000C2E0000
000C2E0000
000B2D0000
ENDCHAR
STARTCHAR uni256C
ENCODING 9580
SWIDTH 600 0
DWIDTH 7 0
BBX 9 17 -1 -5
BITMAP
000C2E0000
000C2E0000
000C2E0000
000C2E0000
000C2E0000
000C2E0000
000C2E0000
7FFF2EFFA0
0000000000
7FFF2EFFA0
000C2E0000
000C2E0000
000C2E0000
000C2E0000
000C2E0000
000C2E0000
000C2E0000
ENDCHAR
STARTCHAR uni256D
ENCODING 9581
SWIDTH 600 0
DWIDTH 7 0
BBX 5 9 3 -5
BITMAP
018EA0
0C9200
790000
C30000
D10000
D10000
D10000
D10000
C10000
ENDCHAR
STARTCHAR uni256E
ENCODING 9582
SWIDTH 600 0
DWIDTH 7 0
BBX 6 9 -1 -5
BITMAP
7EA100
027D20
0006A0
0000E0
0000D1
0000D1
0000D1
0000D1
0000C1
ENDCHAR
STARTCHAR uni256F
ENCODING 9583
SWIDTH 600 0
DWIDTH 7 0
BBX 6 9 -1 3
BITMAP
0000C1
0000D1
0000D1
0000D1
0000D1
0000E0
0006A0
027D20
7EA200
ENDCHAR
STARTCHAR uni2570
ENCODING 9584
SWIDTH 600 0
DWIDTH 7 0
BBX 5 9 3 3
BITMAP
C10000
D10000
D10000
D10000
D10000
C30000
790000
0C9200
019EA0
ENDCHAR
STARTCHAR uni2571
ENCODING 9585
SWIDTH 600 0
DWIDTH 7 0
BBX 8 14 0 -3
BITMAP
00000093
000002D1
00000970
00002D00
0000A600
0002D000
000A6000
003D0000
00A50000
03C00000
0B500000
4C000000
B4000000
C0000000
ENDCHAR
STARTCHAR uni2572
ENCODING 9586
SWIDTH 600 0
DWIDTH 7 0
BBX 8 14 0 -3
BITMAP
C0000000
B4000000
4C000000
0B500000
03C00000
00A50000
003D0000
000A6000
0002D000
0000A600
00002D00
00000970
000002D1
00000093
ENDCHAR
STARTCHAR uni2573
ENCODING 9587
SWIDTH 600 0
DWIDTH 7 0
BBX 8 14 0 -3
BITMAP
B0000083
B40001D1
4B000970
0B402D00
03B09600
00A6D000
003F6000
003F6000
00A6D000
03B09600
0B402D00
4B000970
B40002D1
B0000083
ENDCHAR
STARTCHAR uni2574
ENCODING 9588
SWIDTH 600 0
DWIDTH 7 0
BBX 6 1 -1 3
BITMAP
7FFFF1
ENDCHAR
STARTCHAR uni2575
ENCODING 9589
SWIDTH 600 0
DWIDTH 7 0
BBX 2 9 3 3
BITMAP
D1
D1
D1
D1
D1
D1
D1
D1
D1
ENDCHAR
STARTCHAR uni2576
ENCODING 9590
SWIDTH 600 0
DWIDTH 7 0
BBX 5 1 3 3
BITMAP
DFFFA0
ENDCHAR
STARTCHAR uni2577
ENCODING 9591
SWIDTH 600 0
DWIDTH 7 0
BBX 2 9 3 -5
BITMAP
D1
D1
D1
D1
D1
D1
D1
D1
D1
ENDCHAR
STARTCHAR uni2578
ENCODING 9592
SWIDTH 600 0
DWIDTH 7 0
BBX 6 2 -1 3
BITMAP
7FFFF1
7FFFF1
ENDCHAR
STARTCHAR uni2579
ENCODING 9593
SWIDTH 600 0
DWIDTH 7 0
BBX 3 9 2 3
BITMAP
5F80
5F80
5F80
5F80
5F80
5F80
5F80
5F80
5F80
ENDCHAR
STARTCHAR uni257A
ENCODING 9594
SWIDTH 600 0
DWIDTH 7 0
BBX 5 2 3 3
BITMAP
DFFFA0
DFFFA0
ENDCHAR
STARTCHAR uni257B
ENCODING 9595
SWIDTH 600 0
DWIDTH 7 0
BBX 3 9 2 -5
BITMAP
5F80
5F80
5F80
5F80
5F80
5F80
5F80
5F80
5F80
ENDCHAR
STARTCHAR uni257C
ENCODING 9596
SWIDTH 600 0
DWIDTH 7 0
BBX 9 3 -1 2
BITMAP
0000677750
7FFFFFFFA0
0000677750
ENDCHAR
STARTCHAR uni257D
ENCODING 9597
SWIDTH 600 0
DWIDTH 7 0
BBX 3 17 2 -5
BITMAP
0D10
0D10
0D10
0D10
0D10
0D10
0D10
0D10
5F80
5F80
5F80
5F80
5F80
5F80
5F80
5F80
5F80
ENDCHAR
STARTCHAR uni257E
ENCODING 9598
SWIDTH 600 0
DWIDTH 7 0
BBX 9 3 -1 2
BITMAP
3777700000
7FFFFFFFA0
3777700000
ENDCHAR
STARTCHAR uni257F
ENCODING 9599
SWIDTH 600 0
DWIDTH 7 0
BBX 3 17 2 -5
BITMAP
5F80
5F80
5F80
5F80
5F80
5F80
5F80
5F80
5F80
0D10
0D10
0D10
0D10
0D10
0D10
0D10
0D10
ENDCHAR
STARTCHAR uni2580
ENCODING 9600
SWIDTH 600 0
DWIDTH 7 0
BBX 8 8 0 4
BITMAP
FFFFFFF3
FFFFFFF3
FFFFFFF3
FFFFFFF3
FFFFFFF3
FFFFFFF3
FFFFFFF3
FFFFFFF3
ENDCHAR
STARTCHAR uni2581
ENCODING 9601
SWIDTH 600 0
DWIDTH 7 0
BBX 8 2 0 -5
BITMAP
FFFFFFF3
FFFFFFF3
ENDCHAR
STARTCHAR uni2582
ENCODING 9602
SWIDTH 600 0
DWIDTH 7 0
BBX 8 4 0 -5
BITMAP
FFFFFFF3
FFFFFFF3
FFFFFFF3
FFFFFFF3
ENDCHAR
STARTCHAR uni2583
ENCODING 9603
SWIDTH 600 0
DWIDTH 7 0
BBX 8 7 0 -5
BITMAP
FFFFFFF3
FFFFFFF3
FFFFFFF3
FFFFFFF3
FFFFFFF3
FFFFFFF3
FFFFFFF3
ENDCHAR
STARTCHAR uni2584
ENCODING 9604
SWIDTH 600 0
DWIDTH 7 0
BBX 8 9 0 -5
BITMAP
FFFFFFF3
FFFFFFF3
FFFFFFF3
FFFFFFF3
FFFFFFF3
FFFFFFF3
FFFFFFF3
FFFFFFF3
FFFFFFF3
ENDCHAR
STARTCHAR uni2585
ENCODING 9605
SWIDTH 600 0
DWIDTH 7 0
BBX 8 11 0 -5
BITMAP
FFFFFFF3
FFFFFFF3
FFFFFFF3
FFFFFFF3
FFFFFFF3
FFFFFFF3
FFFFFFF3
FFFFFFF3
FFFFFFF3
FFFFFFF3
FFFFFFF3
ENDCHAR
STARTCHAR uni2586
ENCODING 9606
SWIDTH 600 0
DWIDTH 7 0
BBX 8 13 0 -5
BITMAP
FFFFFFF3
FFFFFFF3
FFFFFFF3
FFFFFFF3
FFFFFFF3
FFFFFFF3
FFFFFFF3
FFFFFFF3
FFFFFFF3
FFFFFFF3
FFFFFFF3
FFFFFFF3
FFFFFFF3
ENDCHAR
STARTCHAR uni2587
ENCODING 9607
SWIDTH 600 0
DWIDTH 7 0
BBX 8 15 0 -5
BITMAP
FFFFFFF3
FFFFFFF3
FFFFFFF3
FFFFFFF3
FFFFFFF3
FFFFFFF3
FFFFFFF3
FFFFFFF3
FFFFFFF3
FFFFFFF3
FFFFFFF3
FFFFFFF3
FFFFFFF3
FFFFFFF3
FFFFFFF3
ENDCHAR
STARTCHAR uni2588
ENCODING 9608
SWIDTH 600 0
DWIDTH 7 0
BBX 8 17 0 -5
BITMAP
FFFFFFF3
FFFFFFF3
FFFFFFF3
FFFFFFF3
FFFFFFF3
FFFFFFF3
FFFFFFF3
FFFFFFF3
FFFFFFF3
FFFFFFF3
FFFFFFF3
FFFFFFF3
FFFFFFF3
FFFFFFF3
FFFFFFF3
FFFFFFF3
FFFFFFF3
ENDCHAR
STARTCHAR uni2589
ENCODING 9609
SWIDTH 600 0
DWIDTH 7 0
BBX 7 17 0 -5
BITMAP
FFFFFF40
FFFFFF40
FFFFFF40
FFFFFF40
FFFFFF40
FFFFFF40
FFFFFF40
FFFFFF40
FFFFFF40
FFFFFF40
FFFFFF40
FFFFFF40
FFFFFF40
FFFFFF40
FFFFFF40
FFFFFF40
FFFFFF40
ENDCHAR
STARTCHAR uni258A
ENCODING 9610
SWIDTH 600 0
DWIDTH 7 0
BBX 6 17 0 -5
BITMAP
FFFFF6
FFFFF6
FFFFF6
FFFFF6
FFFFF6
FFFFF6
FFFFF6
FFFFF6
FFFFF6
FFFFF6
FFFFF6
FFFFF6
FFFFF6
FFFFF6
FFFFF6
FFFFF6
FFFFF6
ENDCHAR
STARTCHAR uni258B
ENCODING 9611
SWIDTH 600 0
DWIDTH 7 0
BBX 5 17 0 -5
BITMAP
FFFF80
FFFF80
FFFF80
FFFF80
FFFF80
FFFF80
FFFF80
FFFF80
FFFF80
FFFF80
FFFF80
FFFF80
FFFF80
FFFF80
FFFF80
FFFF80
FFFF80
ENDCHAR
STARTCHAR uni258C
ENCODING 9612
SWIDTH 600 0
DWIDTH 7 0
BBX 4 17 0 -5
BITMAP
FFF9
FFF9
FFF9
FFF9
FFF9
FFF9
FFF9
FFF9
FFF9
FFF9
FFF9
FFF9
FFF9
FFF9
FFF9
FFF9
FFF9
ENDCHAR
STARTCHAR uni258D
ENCODING 9613
SWIDTH 600 0
DWIDTH 7 0
BBX 3 17 0 -5
BITMAP
FFB0
FFB0
FFB0
FFB0
FFB0
FFB0
FFB0
FFB0
FFB0
FFB0
FFB0
FFB0
FFB0
FFB0
FFB0
FFB0
FFB0
ENDCHAR
STARTCHAR uni258E
ENCODING 9614
SWIDTH 600 0
DWIDTH 7 0
BBX 2 17 0 -5
BITMAP
FC
FC
FC
FC
FC
FC
FC
FC
FC
FC
FC
FC
FC
FC
FC
FC
FC
ENDCHAR
STARTCHAR uni258F
ENCODING 9615
SWIDTH 600 0
DWIDTH 7 0
BBX 1 17 0 -5
BITMAP
E0
E0
E0
E0
E0
E0
E0
E0
E0
E0
E0
E0
E0
E0
E0
E0
E0
ENDCHAR
STARTCHAR uni2590
ENCODING 9616
SWIDTH 600 0
DWIDTH 7 0
BBX 5 17 3 -5
BITMAP
6FFF30
6FFF30
6FFF30
6FFF30
6FFF30
6FFF30
6FFF30
6FFF30
6FFF30
6FFF30
6FFF30
6FFF30
6FFF30
6FFF30
6FFF30
6FFF30
6FFF30
ENDCHAR
STARTCHAR uni2591
ENCODING 9617
SWIDTH 600 0
DWIDTH 7 0
BBX 8 16 -1 -5
BITMAP
02608044
22040300
02608044
22030300
01304022
01304022
22030300
02608044
22040300
01506033
11122211
11122211
01506033
22040300
02608044
22040300
ENDCHAR
STARTCHAR uni2592
ENCODING 9618
SWIDTH 600 0
DWIDTH 7 0
BBX 8 16 -1 -5
BITMAP
05A0D287
45283631
05B0E288
34262521
13628254
14628254
34262521
05B0E288
44080620
0490B266
24445443
24445443
0490B266
44080620
05B0E288
44282631
ENDCHAR
STARTCHAR uni2593
ENCODING 9619
SWIDTH 600 0
DWIDTH 7 0
BBX 8 17 -1 -5
BITMAP
08D4E6BB
19C6D7BA
8A6E5C83
0BF7F8EE
6A9C8B95
3BD9E9CB
3BD9E9CB
6A9C8B95
0BF7F8EE
8A7E7C94
1BF7F9DD
4ABABAB8
4ABABAB8
1BF7F9DD
8A7E7C94
1CF9FAEE
8B9E8DA5
ENDCHAR
STARTCHAR uni2594
ENCODING 9620
SWIDTH 600 0
DWIDTH 7 0
BBX 8 2 0 10
BITMAP
FFFFFFF3
FFFFFFF3
ENDCHAR
STARTCHAR uni2595
ENCODING 9621
SWIDTH 600 0
DWIDTH 7 0
BBX 2 17 6 -5
BITMAP
B3
B3
B3
B3
B3
B3
B3
B3
B3
B3
B3
B3
B3
B3
B3
B3
B3
ENDCHAR
STARTCHAR uni2596
ENCODING 9622
SWIDTH 600 0
DWIDTH 7 0
BBX 4 9 0 -5
BITMAP
FFF9
FFF9
FFF9
FFF9
FFF9
FFF9
FFF9
FFF9
FFF9
ENDCHAR
STARTCHAR uni2597
ENCODING 9623
SWIDTH 600 0
DWIDTH 7 0
BBX 5 9 3 -5
BITMAP
6FFF30
6FFF30
6FFF30
6FFF30
6FFF30
6FFF30
6FFF30
6FFF30
6FFF30
ENDCHAR
STARTCHAR uni2598
ENCODING 9624
SWIDTH 600 0
DWIDTH 7 0
BBX 4 8 0 4
BITMAP
FFF9
FFF9
FFF9
FFF9
FFF9
FFF9
FFF9
FFF9
ENDCHAR
STARTCHAR uni2599
ENCODING 9625
SWIDTH 600 0
DWIDTH 7 0
BBX 8 17 0 -5
BITMAP
FFF90000
FFF90000
FFF90000
FFF90000
FFF90000
FFF90000
FFF90000
FFF90000
FFFFFFF3
FFFFFFF3
FFFFFFF3
FFFFFFF3
FFFFFFF3
FFFFFFF3
FFFFFFF3
FFFFFFF3
FFFFFFF3
ENDCHAR
STARTCHAR uni259A
ENCODING 9626
SWIDTH 600 0
DWIDTH 7 0
BBX 8 17 0 -5
BITMAP
FFF90000
FFF90000
FFF90000
FFF90000
FFF90000
FFF90000
FFF90000
FFF90000
0006FFF3
0006FFF3
0006FFF3
0006FFF3
0006FFF3
0006FFF3
0006FFF3
0006FFF3
0006FFF3
ENDCHAR
STARTCHAR uni259B
ENCODING 9627
SWIDTH 600 0
DWIDTH 7 0
BBX 8 17 0 -5
BITMAP
FFFFFFF3
FFFFFFF3
FFFFFFF3
FFFFFFF3
FFFFFFF3
FFFFFFF3
FFFFFFF3
FFFFFFF3
FFF90000
FFF90000
FFF90000
FFF90000
FFF90000
FFF90000
FFF90000
FFF90000
FFF90000
ENDCHAR
STARTCHAR uni259C
ENCODING 9628
SWIDTH 600 0
DWIDTH 7 0
BBX 8 17 0 -5
BITMAP
FFFFFFF3
FFFFFFF3
FFFFFFF3
FFFFFFF3
FFFFFFF3
FFFFFFF3
FFFFFFF3
FFFFFFF3
0006FFF3
0006FFF3
0006FFF3
0006FFF3
0006FFF3
0006FFF3
0006FFF3
0006FFF3
0006FFF3
ENDCHAR
STARTCHAR uni259D
ENCODING 9629
SWIDTH 600 0
DWIDTH 7 0
BBX 5 8 3 4
BITMAP
6FFF30
6FFF30
6FFF30
6FFF30
6FFF30
6FFF30
6FFF30
6FFF30
ENDCHAR
STARTCHAR uni259E
ENCODING 9630
SWIDTH 600 0
DWIDTH 7 0
BBX 8 17 0 -5
BITMAP
0006FFF3
0006FFF3
0006FFF3
0006FFF3
0006FFF3
0006FFF3
0006FFF3
0006FFF3
FFF90000
FFF90000
FFF90000
FFF90000
FFF90000
FFF90000
FFF90000
FFF90000
FFF90000
ENDCHAR
STARTCHAR uni259F
ENCODING 9631
SWIDTH 600 0
DWIDTH 7 0
BBX 8 17 0 -5
BITMAP
0006FFF3
0006FFF3
0006FFF3
0006FFF3
0006FFF3
0006FFF3
0006FFF3
0006FFF3
FFFFFFF3
FFFFFFF3
FFFFFFF3
FFFFFFF3
FFFFFFF3
FFFFFFF3
FFFFFFF3
FFFFFFF3
FFFFFFF3
ENDCHAR
STARTCHAR uni25A0
ENCODING 9632
SWIDTH 600 0
DWIDTH 7 0
BBX 6 5 1 1
BITMAP
EFFFF2
EFFFF2
EFFFF2
EFFFF2
EFFFF2
ENDCHAR
STARTCHAR uni25A1
ENCODING 9633
SWIDTH 600 0
DWIDTH 7 0
BBX 7 6 0 1
BITMAP
2FFFFF50
28000550
28000550
28000550
28000550
2FFFFF50
ENDCHAR
STARTCHAR uni25AA
ENCODING 9642
SWIDTH 600 0
DWIDTH 7 0
BBX 4 3 2 2
BITMAP
FFF3
FFF3
FFF3
ENDCHAR
STARTCHAR uni25AB
ENCODING 9643
SWIDTH 600 0
DWIDTH 7 0
BBX 5 4 1 1
BITMAP
2FFF50
260350
260350
2FFF50
ENDCHAR
STARTCHAR filledrect
ENCODING 9644
SWIDTH 600 0
DWIDTH 7 0
BBX 8 1 0 3
BITMAP
FFFFFFF3
ENDCHAR
STARTCHAR triagup
ENCODING 9650
SWIDTH 600 0
DWIDTH 7 0
BBX 7 6 0 1
BITMAP
00070000
002F5000
009FC000
02FFF400
08FFFB00
1EFFFF30
ENDCHAR
STARTCHAR uni25B3
ENCODING 9651
SWIDTH 600 0
DWIDTH 7 0
BBX 7 6 0 1
BITMAP
00060000
00244000
00505000
01402400
06000600
1EFFFF30
ENDCHAR
STARTCHAR uni25B4
ENCODING 9652
SWIDTH 600 0
DWIDTH 7 0
BBX 5 4 1 1
BITMAP
007000
02F500
09FC00
2FFF40
ENDCHAR
STARTCHAR uni25B5
ENCODING 9653
SWIDTH 600 0
DWIDTH 7 0
BBX 5 4 1 1
BITMAP
005000
032400
050410
5FFF80
ENDCHAR
STARTCHAR uni25B6
ENCODING 9654
SWIDTH 600 0
DWIDTH 7 0
BBX 7 6 0 1
BITMAP
4A300000
4FFA3000
4FFFFB30
4FFFD710
4FD60000
25000000
ENDCHAR
STARTCHAR uni25B7
ENCODING 9655
SWIDTH 600 0
DWIDTH 7 0
BBX 7 6 0 1
BITMAP
4A300000
45693000
44006930
44039710
48960000
25000000
ENDCHAR
STARTCHAR uni25B8
ENCODING 9656
SWIDTH 600 0
DWIDTH 7 0
BBX 4 4 2 1
BITMAP
B300
FF91
FF91
B300
ENDCHAR
STARTCHAR uni25B9
ENCODING 9657
SWIDTH 600 0
DWIDTH 7 0
BBX 5 4 1 1
BITMAP
2A3000
265820
265820
2A3000
ENDCHAR
STARTCHAR triagrt
ENCODING 9658
SWIDTH 600 0
DWIDTH 7 0
BBX 8 6 0 1
BITMAP
98200000
BFFB5000
BFFFFE82
BFFFFA40
BFD71000
63000000
ENDCHAR
STARTCHAR triagdn
ENCODING 9660
SWIDTH 600 0
DWIDTH 7 0
BBX 7 6 0 1
BITMAP
1EFFFF30
08FFFB00
01FFF400
009FC000
002F4000
00060000
ENDCHAR
STARTCHAR uni25BD
ENCODING 9661
SWIDTH 600 0
DWIDTH 7 0
BBX 7 6 0 1
BITMAP
1EFFFF30
05000500
01402300
00505000
00244000
00060000
ENDCHAR
STARTCHAR uni25BE
ENCODING 9662
SWIDTH 600 0
DWIDTH 7 0
BBX 5 4 1 1
BITMAP
2FFF40
09FC00
02F500
007000
ENDCHAR
STARTCHAR uni25BF
ENCODING 9663
SWIDTH 600 0
DWIDTH 7 0
BBX 5 4 1 1
BITMAP
5FFF80
050410
032400
005000
ENDCHAR
STARTCHAR uni25C0
ENCODING 9664
SWIDTH 600 0
DWIDTH 7 0
BBX 7 6 0 1
BITMAP
00002860
0029FF70
2AFFFF70
05CFFF70
0005CF70
00000440
ENDCHAR
STARTCHAR uni25C1
ENCODING 9665
SWIDTH 600 0
DWIDTH 7 0
BBX 7 6 0 1
BITMAP
00002860
00287370
29710170
05950170
00059770
00000440
ENDCHAR
STARTCHAR uni25C2
ENCODING 9666
SWIDTH 600 0
DWIDTH 7 0
BBX 4 4 2 1
BITMAP
0193
7EF3
7EF3
0193
ENDCHAR
STARTCHAR uni25C3
ENCODING 9667
SWIDTH 600 0
DWIDTH 7 0
BBX 5 4 1 1
BITMAP
002850
176350
176350
002850
ENDCHAR
STARTCHAR triaglf
ENCODING 9668
SWIDTH 600 0
DWIDTH 7 0
BBX 8 6 -1 1
BITMAP
0000017C
0004AFFE
17DFFFFE
039EFFFE
00016BFE
00000027
ENDCHAR
STARTCHAR uni25C6
ENCODING 9670
SWIDTH 600 0
DWIDTH 7 0
BBX 7 6 0 1
BITMAP
002B3000
02DFE400
3EFFFE40
3EFFFF40
02DFE400
002B3000
ENDCHAR
STARTCHAR uni25C9
ENCODING 9673
SWIDTH 600 0
DWIDTH 7 0
BBX 7 6 0 1
BITMAP
03BEC400
1CBFDB30
46FFF670
45DFF470
1C676B30
03CEC500
ENDCHAR
STARTCHAR lozenge
ENCODING 9674
SWIDTH 600 0
DWIDTH 7 0
BBX 5 8 1 0
BITMAP
02F400
097B00
2B0940
9402B0
9401B0
2B0940
097B00
02F400
ENDCHAR
STARTCHAR uni25CB
ENCODING 9675
SWIDTH 600 0
DWIDTH 7 0
BBX 7 6 0 1
BITMAP
02BEC300
0B513C10
28000550
28000550
0C413C10
02BEC400
ENDCHAR
STARTCHAR uni25CC
ENCODING 9676
SWIDTH 600 0
DWIDTH 7 0
BBX 7 6 0 0
BITMAP
02798100
18000900
00000000
63000540
18000900
02798100
ENDCHAR
STARTCHAR uni25CF
ENCODING 9679
SWIDTH 600 0
DWIDTH 7 0
BBX 7 5 0 1
BITMAP
02BEC400
0CFFFE10
1FFFFF30
0CFFFE10
02BEC400
ENDCHAR
STARTCHAR invbullet
ENCODING 9688
SWIDTH 600 0
DWIDTH 7 0
BBX 5 4 1 1
BITMAP
2FFF50
250340
250340
2FFF50
ENDCHAR
STARTCHAR invcircle
ENCODING 9689
SWIDTH 600 0
DWIDTH 7 0
BBX 7 5 0 1
BITMAP
2DEFFD50
27FFF940
16FFF910
23CFD340
2C423B50
ENDCHAR
STARTCHAR uni25E6
ENCODING 9702
SWIDTH 600 0
DWIDTH 7 0
BBX 5 4 1 1
BITMAP
07EC10
391650
661930
1CE700
ENDCHAR
STARTCHAR uni2610
ENCODING 9744
SWIDTH 600 0
DWIDTH 7 0
BBX 9 8 -1 0
BITMAP
2EFFFFFF80
4300000680
4300000680
4300000680
4300000680
4300000680
4300000680
4FFFFFFF40
ENDCHAR
STARTCHAR uni2611
ENCODING 9745
SWIDTH 600 0
DWIDTH 7 0
BBX 10 9 -1 0
BITMAP
00000001B3
2EFFFFFF90
4300007D80
436403B680
432B0C2680
4309890680
4303E30680
4300000680
4FFFFFFF40
ENDCHAR
STARTCHAR uni2615
ENCODING 9749
SWIDTH 600 0
DWIDTH 7 0
BBX 9 8 -1 0
BITMAP
04BEEA2000
2C41138000
57CEE85300
56CFEA8430
34000025A0
190001EC30
08812A4000
009EE60000
ENDCHAR
STARTCHAR smileface
ENCODING 9786
SWIDTH 600 0
DWIDTH 7 0
BBX 8 8 0 0
BITMAP
03CFD500
2C413B40
92F2F1A0
90000091
92715491
928EB1A0
2C413B50
03CFD500
ENDCHAR
STARTCHAR invsmileface
ENCODING 9787
SWIDTH 600 0
DWIDTH 7 0
BBX 7 6 0 1
BITMAP
04CED600
3F3E3E60
8F8E7EB0
8D8EAAB0
3F614E60
04CED600
ENDCHAR
STARTCHAR sun
ENCODING 9788
SWIDTH 600 0
DWIDTH 7 0
BBX 8 8 0 0
BITMAP
000B0000
2A6E4850
08816A00
08000900
FF000CF4
08816B00
1B8ECB10
020B0330
ENDCHAR
STARTCHAR female
ENCODING 9792
SWIDTH 600 0
DWIDTH 7 0
BBX 7 10 0 -1
BITMAP
02BEC300
0C514C10
29000650
39000660
0C513D10
02BFD400
000B0000
07FFFA00
000B0000
00060000
ENDCHAR
STARTCHAR male
ENCODING 9794
SWIDTH 600 0
DWIDTH 7 0
BBX 9 9 -1 0
BITMAP
0000011110
0000089F50
000000B950
01AEDC5550
0B613C3110
1B00048000
1B00048000
0B613C3000
01AED50000
ENDCHAR
STARTCHAR spade
ENCODING 9824
SWIDTH 600 0
DWIDTH 7 0
BBX 7 9 0 0
BITMAP
001B3000
01CFE200
0BFFFD10
7FFFFFA0
CFFFFFF0
CFFDEFF0
386E6840
019FB200
0BFFFE00
ENDCHAR
STARTCHAR club
ENCODING 9827
SWIDTH 600 0
DWIDTH 7 0
BBX 7 9 0 0
BITMAP
009EB100
02FFF500
00EFF200
3ACFDA50
CFFFFFF0
BFFEFFE0
286D6940
019FB200
0BFFFE00
ENDCHAR
STARTCHAR heart
ENCODING 9829
SWIDTH 600 0
DWIDTH 7 0
BBX 8 9 0 0
BITMAP
4EC2BE60
BFFDFFE0
DFFFFFF1
CFFFFFF0
7FFFFFA0
2EFFFF40
07FFFA00
00AFD100
001B2000
ENDCHAR
STARTCHAR diamond
ENCODING 9830
SWIDTH 600 0
DWIDTH 7 0
BBX 7 9 0 0
BITMAP
000A2000
009FC000
06FFF900
3FFFFF60
BFFFFFE0
3FFFFF60
06FFF900
009FC000
000A2000
ENDCHAR
STARTCHAR musicalnote
ENCODING 9834
SWIDTH 600 0
DWIDTH 7 0
BBX 6 8 1 0
BITMAP
007800
007F90
0075D2
007354
007352
007300
9EE200
CE8000
ENDCHAR
STARTCHAR musicalnotedbl
ENCODING 9835
SWIDTH 600 0
DWIDTH 7 0
BBX 8 9 0 0
BITMAP
001469B1
006FFDE1
00661081
00640081
00640081
00640081
00649EF1
7EE2DEA0
BE800000
ENDCHAR
STARTCHAR uni2713
ENCODING 10003
SWIDTH 600 0
DWIDTH 7 0
BBX 8 9 0 0
BITMAP
00000051
000005B0
00002C10
0000A300
00048000
B10B1000
58480000
0BA20000
07D00000
ENDCHAR
STARTCHAR uni2752
ENCODING 10066
SWIDTH 600 0
DWIDTH 7 0
BBX 7 6 0 1
BITMAP
1DFFFF50
26000750
26000750
26000750
26000750
2FFFFE20
ENDCHAR
STARTCHAR uni2764
ENCODING 10084
SWIDTH 600 0
DWIDTH 7 0
BBX 9 8 -1 0
BITMAP
2BEB1AEC30
AFFFCFFFD0
CFFFFFFFF0
BFFFFFFFE0
4FFFFFFF70
05EFFFF700
002BFD3000
0000A10000
ENDCHAR
STARTCHAR uni27E6
ENCODING 10214
SWIDTH 600 0
DWIDTH 7 0
BBX 6 11 1 -2
BITMAP
00EFFC
029900
057600
087300
0A8000
0A8000
288000
476000
773000
980000
CEFD00
ENDCHAR
STARTCHAR uni27E7
ENCODING 10215
SWIDTH 600 0
DWIDTH 7 0
BBX 6 11 0 -2
BITMAP
00CFFE
000099
000278
000575
000872
000990
000990
003790
006760
009730
CFFD00
ENDCHAR
STARTCHAR uni2E18
ENCODING 11800
SWIDTH 600 0
DWIDTH 7 0
BBX 5 8 1 -2
BITMAP
005D10
006D00
000000
00A300
07D000
92B000
E21810
8EE600
ENDCHAR
STARTCHAR uni2E22
ENCODING 11810
SWIDTH 600 0
DWIDTH 7 0
BBX 5 6 2 3
BITMAP
08FFC0
0A2000
0C0000
1A0000
480000
330000
ENDCHAR
STARTCHAR uni2E23
ENCODING 11811
SWIDTH 600 0
DWIDTH 7 0
BBX 4 6 2 3
BITMAP
CFF6
0064
0091
00A0
01A0
0250
ENDCHAR
STARTCHAR uni2E24
ENCODING 11812
SWIDTH 600 0
DWIDTH 7 0
BBX 4 6 1 -2
BITMAP
0520
0A10
0A00
0A00
3700
6FFD
ENDCHAR
STARTCHAR uni2E25
ENCODING 11813
SWIDTH 600 0
DWIDTH 7 0
BBX 5 6 0 -2
BITMAP
000340
000740
000A10
000B00
001B00
CFF800
ENDCHAR
STARTCHAR uniE0A0
ENCODING 57504
SWIDTH 600 0
DWIDTH 7 0
BBX 7 16 1 -3
BITMAP
C2000000
C2001000
C203E200
C21DFC10
C201E100
C200E000
C200E000
C202D000
50099000
01AB1000
2D700000
97000000
B3000000
C2000000
C2000000
C2000000
ENDCHAR
STARTCHAR uniE0A1
ENCODING 57505
SWIDTH 600 0
DWIDTH 7 0
BBX 6 13 1 -2
BITMAP
D00000
D00000
D00000
D00000
D00000
FFF800
000000
0A80A3
0AB1A3
0A76A3
0A3B83
0A36C3
0A31E3
ENDCHAR
STARTCHAR uniE0A2
ENCODING 57506
SWIDTH 600 0
DWIDTH 7 0
BBX 7 11 0 -1
BITMAP
01BFC300
06806900
06502900
5FFFFF80
7FFFFFA0
7FC1AFA0
7FC07FA0
7FF3EFA0
7FF1EFA0
7FF1DFA0
5FFFFF80
ENDCHAR
STARTCHAR uniE0B0
ENCODING 57520
SWIDTH 600 0
DWIDTH 7 0
BBX 7 16 0 -3
BITMAP
70000000
F5000000
FF400000
FFE30000
FFFE2000
FFFFD100
FFFFFC10
FFFFFFB0
FFFFFFB0
FFFFFC10
FFFFD100
FFFE2000
FFE30000
FF400000
F5000000
70000000
ENDCHAR
STARTCHAR uniE0B1
ENCODING 57521
SWIDTH 600 0
DWIDTH 7 0
BBX 8 15 0 -3
BITMAP
A1000000
4C100000
05B00000
006A0000
00079000
00008700
00000960
000000D2
00000960
00008700
00079000
006A0000
05B00000
4C100000
A1000000
ENDCHAR
STARTCHAR uniE0B2
ENCODING 57522
SWIDTH 600 0
DWIDTH 7 0
BBX 8 16 0 -3
BITMAP
00000034
000002D5
00001DF5
0001CFF5
000BFFF5
00AFFFF5
09FFFFF5
8FFFFFF5
8FFFFFF5
09FFFFF5
00AFFFF5
000BFFF5
0001CFF5
00001DF5
000002D5
00000034
ENDCHAR
STARTCHAR uniE0B3
ENCODING 57523
SWIDTH 600 0
DWIDTH 7 0
BBX 8 15 0 -3
BITMAP
000000A1
00000A60
00008700
00079000
006A0000
05A00000
4B100000
D2000000
4B100000
05A00000
006A0000
00079000
00008700
00000A60
000000A1
ENDCHAR
STARTCHAR f_i
ENCODING 64257
SWIDTH 600 0
DWIDTH 7 0
BBX 7 9 0 0
BITMAP
003DD000
00A615C0
00D00000
0CFF2B30
04A00D00
07601C00
0A304900
0D107600
1D00A400
ENDCHAR
STARTCHAR f_l
ENCODING 64258
SWIDTH 600 0
DWIDTH 7 0
BBX 7 9 0 0
BITMAP
003DD4A0
00A61770
00D00A40
0CFF2D10
04A01D00
07603A00
0A306700
0D109500
1D008A00
ENDCHAR
STARTCHAR uniFE0E
ENCODING 65038
SWIDTH 600 0
DWIDTH 7 0
BBX 7 8 0 0
BITMAP
5A88A880
A00000A0
50000050
5AB0A880
00B0A000
00505000
00B0A000
0088A000
ENDCHAR
STARTCHAR uniFE0F
ENCODING 65039
SWIDTH 600 0
DWIDTH 7 0
BBX 7 8 0 0
BITMAP
00475000
05503700
14666440
B0B6B3B0
A46055A0
64554290
05503700
00465000
ENDCHAR
STARTCHAR uniFEFF
ENCODING 65279
SWIDTH 600 0
DWIDTH 7 0
BBX 1 1 0 0
BITMAP
00
ENDCHAR
STARTCHAR u1F3B5
ENCODING 127925
SWIDTH 600 0
DWIDTH 7 0
BBX 6 9 1 0
BITMAP
002100
007C20
007AD0
007374
007353
007320
007300
9EF200
CE8000
ENDCHAR
STARTCHAR u1F3B6
ENCODING 127926
SWIDTH 600 0
DWIDTH 7 0
BBX 8 9 0 0
BITMAP
001469B1
006FFDE1
00661081
00640081
00640081
00640081
00649EF1
7EE2DEA0
BE800000
ENDCHAR
STARTCHAR u1F4A9
ENCODING 128169
SWIDTH 600 0
DWIDTH 7 0
BBX 8 8 0 0
BITMAP
018DC200
04FFF700
2CFFFD40
5D9B9B80
5FFFFF80
EF000CF2
EF715FF2
5CEFFD70
ENDCHAR
STARTCHAR u1F512
ENCODING 128274
SWIDTH 600 0
DWIDTH 7 0
BBX 7 11 0 -1
BITMAP
01BFC300
06806900
06502900
5FFFFF80
7FFFFFA0
7FC1AFA0
7FC07FA0
7FF3EFA0
7FF1EFA0
7FF1DFA0
5FFFFF80
ENDCHAR
STARTCHAR u1F916
ENCODING 129302
SWIDTH 600 0
DWIDTH 7 0
BBX 9 8 -1 0
BITMAP
005CED7000
04A3029700
0A3CFD5A10
4B88A89970
4C6EFE8970
0B20A01B20
02C312A500
004CED5000
ENDCHAR
STARTCHAR .notdef
ENCODING -1
SWIDTH 600 0
DWIDTH 7 0
BBX 7 8 0 0
BITMAP
3FFFFF60
3B704B60
3892A560
382E5560
384C7560
38A1A660
3D402C60
3FFFFF60
ENDCHAR
STARTCHAR uni00470303
ENCODING -1
SWIDTH 600 0
DWIDTH 7 0
BBX 8 11 0 0
BITMAP
00001000
000AE4A1
00182D80
002BED30
02E61470
0A600000
1E000000
4B01FF60
3C000930
0D612D00
03CED600
ENDCHAR
STARTCHAR uni004C00B7004C
ENCODING -1
SWIDTH 600 0
DWIDTH 7 0
BBX 7 8 0 0
BITMAP
09500D10
0C201C00
0D004900
2B8D7600
589BA300
8500D000
B201C000
EFD4FF90
ENDCHAR
STARTCHAR uni01320301
ENCODING -1
SWIDTH 600 0
DWIDTH 7 0
BBX 9 12 0 -2
BITMAP
0009402B10
009501B300
00E004A000
03B0077000
06800A5000
09500D2000
0C201E0000
0E004B0000
3B00780000
6800A50000
0001E10000
004E800000
ENDCHAR
STARTCHAR uni00670303
ENCODING -1
SWIDTH 600 0
DWIDTH 7 0
BBX 7 11 0 -2
BITMAP
001BA290
00645E40
00000000
019ED880
0A912D50
2C000B20
5A002D00
2E89DA00
03757700
5303D200
4DFC5000
ENDCHAR
STARTCHAR uni006C00B7006C
ENCODING -1
SWIDTH 600 0
DWIDTH 7 0
BBX 7 9 0 0
BITMAP
EF74FF30
08400C00
0B101B00
0C004800
2A8D7500
679BA200
9400C000
A510E110
5EC09E80
ENDCHAR
STARTCHAR uni01330301
ENCODING -1
SWIDTH 600 0
DWIDTH 7 0
BBX 8 11 0 -2
BITMAP
001A3094
00A30940
00000000
02C01D00
05904A00
08607700
0B30A400
0D00D100
2C02D000
00079000
00BD2000
ENDCHAR
STARTCHAR uni014A.a
ENCODING -1
SWIDTH 600 0
DWIDTH 7 0
BBX 7 10 0 -2
BITMAP
03E000D0
06C403B0
09690580
0C1C0850
0D093B20
3A048D00
6700CB00
9400A800
0001A400
001EA000
ENDCHAR
STARTCHAR a.a
ENCODING -1
SWIDTH 600 0
DWIDTH 7 0
BBX 7 6 0 0
BITMAP
018DEA00
04621C20
028CEF10
2D632D00
5A13CB00
2CEA6800
ENDCHAR
STARTCHAR agrave.a
ENCODING -1
SWIDTH 600 0
DWIDTH 7 0
BBX 7 10 0 0
BITMAP
00083000
0005B000
00009200
00000000
018DEA00
04621C20
028CEF10
2D632D00
5A13CB00
2CEA6800
ENDCHAR
STARTCHAR aacute.a
ENCODING -1
SWIDTH 600 0
DWIDTH 7 0
BBX 7 9 0 0
BITMAP
00003B00
0003A100
00000000
018DEA00
04621C20
028CEF10
2D632D00
5A13CB00
2CEA6800
ENDCHAR
STARTCHAR acircumflex.a
ENCODING -1
SWIDTH 600 0
DWIDTH 7 0
BBX 7 9 0 0
BITMAP
0006D600
00470900
00000000
018DEA00
04621C20
028CEF10
2D632D00
5A13CB00
2CEA6800
ENDCHAR
STARTCHAR atilde.a
ENCODING -1
SWIDTH 600 0
DWIDTH 7 0
BBX 7 9 0 0
BITMAP
002B9380
00727E30
00000000
018DEA00
04621C20
028CEF10
2D632D00
5A13CB00
2CEA6800
ENDCHAR
STARTCHAR adieresis.a
ENCODING -1
SWIDTH 600 0
DWIDTH 7 0
BBX 7 8 0 0
BITMAP
002B0C10
00000000
018DEA00
04621C20
028CEF10
2D632D00
5A13CB00
2CEA6800
ENDCHAR
STARTCHAR amacron.a
ENCODING -1
SWIDTH 600 0
DWIDTH 7 0
BBX 7 8 0 0
BITMAP
002FFE00
00000000
018DEA00
04621C20
028CEF10
2D632D00
5A13CB00
2CEA6800
ENDCHAR
STARTCHAR abreve.a
ENCODING -1
SWIDTH 600 0
DWIDTH 7 0
BBX 7 9 0 0
BITMAP
00391850
000BE800
00000000
018DEA00
04621C20
028CEF10
2D632D00
5A13CB00
2CEA6800
ENDCHAR
STARTCHAR aring.a
ENCODING -1
SWIDTH 600 0
DWIDTH 7 0
BBX 7 9 0 0
BITMAP
0005E700
000B3A00
0008E400
018DEA00
04621C20
028CEF10
2D632D00
5A13CB00
2CEA6800
ENDCHAR
STARTCHAR aringacute.a
ENCODING -1
SWIDTH 600 0
DWIDTH 7 0
BBX 7 10 0 0
BITMAP
00005800
0005F700
000A3A00
0008E400
018DEA00
04621C20
028CEF10
2D631D00
5A13BB00
2CEA6800
ENDCHAR
STARTCHAR uni01CE.a
ENCODING -1
SWIDTH 600 0
DWIDTH 7 0
BBX 7 9 0 0
BITMAP
00190830
0007D500
00000000
018DEA00
04621C20
028CEF10
2D632D00
5A13CB00
2CEA6800
ENDCHAR
STARTCHAR uni1EA1.a
ENCODING -1
SWIDTH 600 0
DWIDTH 7 0
BBX 7 9 0 -3
BITMAP
018DEA00
04621C20
028CEF10
2D632D00
5A13CB00
2CEA6800
00000000
00000000
00B50000
ENDCHAR
STARTCHAR uni1EA3.a
ENCODING -1
SWIDTH 600 0
DWIDTH 7 0
BBX 7 10 0 0
BITMAP
0002D300
00008600
0002B100
00000000
018DEA00
04621C20
028CEF10
2D632D00
5A13CB00
2CEA6800
ENDCHAR
STARTCHAR uni1EA5.a
ENCODING -1
SWIDTH 600 0
DWIDTH 7 0
BBX 8 10 0 0
BITMAP
00000083
0005E770
00291900
00000000
018DEA00
04621C20
028CEF10
2D632D00
5A13CB00
2CEA6800
ENDCHAR
STARTCHAR uni1EA7.a
ENCODING -1
SWIDTH 600 0
DWIDTH 7 0
BBX 7 10 0 0
BITMAP
02800000
0096E400
00291900
00000000
018DEA00
04621C20
028CEF10
2D632D00
5A13CB00
2CEA6800
ENDCHAR
STARTCHAR uni1EA9.a
ENCODING -1
SWIDTH 600 0
DWIDTH 7 0
BBX 8 10 0 0
BITMAP
000004B0
0005E5C1
00191C80
00000000
018DEA00
04621C20
028CEF10
2D632D00
5A13CB00
2CEA6800
ENDCHAR
STARTCHAR uni1EAB.a
ENCODING -1
SWIDTH 600 0
DWIDTH 7 0
BBX 7 10 0 0
BITMAP
0007A440
00097D10
00178700
00000000
018DEA00
04621C20
028CEF10
2D632D00
5A13CB00
2CEA6800
ENDCHAR
STARTCHAR uni1EAD.a
ENCODING -1
SWIDTH 600 0
DWIDTH 7 0
BBX 7 12 0 -3
BITMAP
0006D600
00470900
00000000
018DEA00
04621C20
028CEF10
2D632D00
5A13CB00
2CEA6800
00000000
00000000
00B50000
ENDCHAR
STARTCHAR uni1EAF.a
ENCODING -1
SWIDTH 600 0
DWIDTH 7 0
BBX 7 11 0 0
BITMAP
00001A00
00008300
00381850
000BE800
00000000
018DEA00
04621C20
028CEF10
2D632D00
5A13CB00
2CEA6800
ENDCHAR
STARTCHAR uni1EB1.a
ENCODING -1
SWIDTH 600 0
DWIDTH 7 0
BBX 7 11 0 0
BITMAP
00037000
00009000
00381850
000BE800
00000000
018DEA00
04621C20
028CEF10
2D632D00
5A13CB00
2CEA6800
ENDCHAR
STARTCHAR uni1EB3.a
ENCODING -1
SWIDTH 600 0
DWIDTH 7 0
BBX 7 12 0 0
BITMAP
0000C500
00005800
0000A300
00381850
000BE800
00000000
018DEA00
04621C20
028CEF10
2D632D00
5A13CB00
2CEA6800
ENDCHAR
STARTCHAR uni1EB5.a
ENCODING -1
SWIDTH 600 0
DWIDTH 7 0
BBX 7 10 0 0
BITMAP
0008A450
003F8F30
000BE600
00000000
018DEA00
04621C20
028CEF10
2D632D00
5A13CB00
2CEA6800
ENDCHAR
STARTCHAR uni1EB7.a
ENCODING -1
SWIDTH 600 0
DWIDTH 7 0
BBX 7 12 0 -3
BITMAP
00391850
000BE800
00000000
018DEA00
04621C20
028CEF10
2D632D00
5A13CB00
2CEA6800
00000000
00000000
00B50000
ENDCHAR
STARTCHAR aogonek.a
ENCODING -1
SWIDTH 600 0
DWIDTH 7 0
BBX 7 9 0 -3
BITMAP
018DEA00
04621C20
028CEF10
2D632D00
5A13CB00
2CEA6800
00027100
000A2100
0008E400
ENDCHAR
STARTCHAR g.a
ENCODING -1
SWIDTH 600 0
DWIDTH 7 0
BBX 7 8 0 -2
BITMAP
019EFFB0
08814B00
0B517900
07EEA100
0C100000
1CEEC400
C2029900
8EFD9100
ENDCHAR
STARTCHAR uni01F5.a
ENCODING -1
SWIDTH 600 0
DWIDTH 7 0
BBX 7 11 0 -2
BITMAP
00003B00
0003A100
00000000
019EFFB0
08814B00
0B517900
07EEA100
0C100000
1CEEC400
C2029900
8EFD9100
ENDCHAR
STARTCHAR gcircumflex.a
ENCODING -1
SWIDTH 600 0
DWIDTH 7 0
BBX 7 11 0 -2
BITMAP
0006D600
00470900
00000000
019EFFB0
08814B00
0B517900
07EEA100
0C100000
1CEEC400
C2029900
8EFD9100
ENDCHAR
STARTCHAR gbreve.a
ENCODING -1
SWIDTH 600 0
DWIDTH 7 0
BBX 7 11 0 -2
BITMAP
00391850
000BE800
00000000
019EFFB0
08814B00
0B517900
07EEA100
0C100000
1CEEC400
C2029900
8EFD9100
ENDCHAR
STARTCHAR gdotaccent.a
ENCODING -1
SWIDTH 600 0
DWIDTH 7 0
BBX 7 10 0 -2
BITMAP
0002D100
00000000
019EFFB0
08814B00
0B517900
07EEA100
0C100000
1CEEC400
C2029900
8EFD9100
ENDCHAR
STARTCHAR uni0123.a
ENCODING -1
SWIDTH 600 0
DWIDTH 7 0
BBX 7 11 0 -2
BITMAP
00008700
00058000
00015000
019EFFB0
08814B00
0B517900
07EEA100
0C100000
1CEEC400
C2029900
8EFD9100
ENDCHAR
STARTCHAR gcaron.a
ENCODING -1
SWIDTH 600 0
DWIDTH 7 0
BBX 7 11 0 -2
BITMAP
00190830
0007D500
00000000
019EFFB0
08814B00
0B517900
07EEA100
0C100000
1CEEC400
C2029900
8EFD9100
ENDCHAR
STARTCHAR uni1E21.a
ENCODING -1
SWIDTH 600 0
DWIDTH 7 0
BBX 7 10 0 -2
BITMAP
002FFE00
00000000
019EFFB0
08814B00
0B517900
07EEA100
0C100000
1CEEC400
C2029900
8EFD9100
ENDCHAR
STARTCHAR uni00670303.a
ENCODING -1
SWIDTH 600 0
DWIDTH 7 0
BBX 7 11 0 -2
BITMAP
002B9380
00727E30
00000000
019EFFB0
08814B00
0B517900
07EEA100
0C100000
1CEEC400
C2029900
8EFD9100
ENDCHAR
STARTCHAR iogonek.d
ENCODING -1
SWIDTH 600 0
DWIDTH 7 0
BBX 5 9 1 -3
BITMAP
AFF500
00B200
00C000
03A000
05A120
02DF70
004400
00B100
00AD20
ENDCHAR
STARTCHAR uni0268.d
ENCODING -1
SWIDTH 600 0
DWIDTH 7 0
BBX 5 6 1 0
BITMAP
AFF500
00C100
DFFFB0
04A000
06A120
02DE70
ENDCHAR
STARTCHAR uni029D.d
ENCODING -1
SWIDTH 600 0
DWIDTH 7 0
BBX 6 9 0 -3
BITMAP
05FFF3
0000C0
0002B0
000580
000950
7ECD10
D29E10
9EB960
000370
ENDCHAR
STARTCHAR zero.a
ENCODING -1
SWIDTH 600 0
DWIDTH 7 0
BBX 7 8 0 0
BITMAP
005DE700
04D22C30
0B720670
1B080670
49053850
4A008C10
1D31A800
05DE8000
ENDCHAR
STARTCHAR one.a
ENCODING -1
SWIDTH 600 0
DWIDTH 7 0
BBX 6 8 0 0
BITMAP
0003C1
006DD0
0064A0
000770
000A40
000D10
001D00
7FFFFB
ENDCHAR
STARTCHAR zero.onum
ENCODING -1
SWIDTH 600 0
DWIDTH 7 0
BBX 7 7 0 0
BITMAP
008EE700
08A12D30
1D1D2860
4A1D1850
59000C20
2D219900
06DE9000
ENDCHAR
STARTCHAR one.onum
ENCODING -1
SWIDTH 600 0
DWIDTH 7 0
BBX 6 7 0 0
BITMAP
006BD0
0026A0
000770
000A40
000D10
001D00
7FFFFB
ENDCHAR
STARTCHAR two.onum
ENCODING -1
SWIDTH 600 0
DWIDTH 7 0
BBX 6 7 0 0
BITMAP
019ED4
08506A
000049
0001B1
002B20
06A100
8FEFFA
ENDCHAR
STARTCHAR three.onum
ENCODING -1
SWIDTH 600 0
DWIDTH 7 0
BBX 6 8 0 -1
BITMAP
019EE6
05613E
00005A
00AE80
0035C4
000059
9612B6
19EE80
ENDCHAR
STARTCHAR four.onum
ENCODING -1
SWIDTH 600 0
DWIDTH 7 0
BBX 7 8 0 -1
BITMAP
00006D00
0005AA00
00485700
03909400
2900C100
DFFFFF20
0002B000
00058000
ENDCHAR
STARTCHAR five.onum
ENCODING -1
SWIDTH 600 0
DWIDTH 7 0
BBX 7 8 0 -1
BITMAP
00FFFF50
04A00000
07600000
0ACED300
01007B00
00002C00
8712A700
19ED8000
ENDCHAR
STARTCHAR six.onum
ENCODING -1
SWIDTH 600 0
DWIDTH 7 0
BBX 7 8 0 0
BITMAP
003BEC20
03D51450
0B500000
1D7EE600
3F713E00
2A000C00
0D317A00
03CEA100
ENDCHAR
STARTCHAR seven.onum
ENCODING -1
SWIDTH 600 0
DWIDTH 7 0
BBX 6 8 1 -1
BITMAP
AFFFFB
0001B2
000A30
006700
01D000
077000
0D2000
2D0000
ENDCHAR
STARTCHAR eight.onum
ENCODING -1
SWIDTH 600 0
DWIDTH 7 0
BBX 7 8 0 0
BITMAP
007DE900
01D21A40
00800850
03DB8D10
1D63B300
3A001A00
2D216C00
06DEB300
ENDCHAR
STARTCHAR nine.onum
ENCODING -1
SWIDTH 600 0
DWIDTH 7 0
BBX 7 8 0 -1
BITMAP
019ED500
09812D10
0C000A30
0E316E30
06EE8D10
00004B00
5514D300
2CFC4000
ENDCHAR
STARTCHAR zero.b
ENCODING -1
SWIDTH 600 0
DWIDTH 7 0
BBX 7 7 0 0
BITMAP
008EE700
08B12D30
1C540860
49080850
59026C20
2D31A900
06DE9000
ENDCHAR
STARTCHAR one.b
ENCODING -1
SWIDTH 600 0
DWIDTH 7 0
BBX 6 8 0 0
BITMAP
000010
0008D0
01BBA0
002770
000A40
000D10
001D00
7FFFFB
ENDCHAR
STARTCHAR zero.cap
ENCODING -1
SWIDTH 600 0
DWIDTH 7 0
BBX 7 8 0 0
BITMAP
005DE800
04C31C40
0C300670
2C0C3670
490D2850
3A001D10
1D31A800
05DE8000
ENDCHAR
STARTCHAR one.cap
ENCODING -1
SWIDTH 600 0
DWIDTH 7 0
BBX 6 16 0 0
BITMAP
000010
005BF1
0001D0
0002A0
000370
000440
000610
000500
0009FC
000AFC
000BFB
000DFB
000EFB
001FFA
002FFA
7EEDC8
ENDCHAR
STARTCHAR two.cap
ENCODING -1
SWIDTH 600 0
DWIDTH 7 0
BBX 6 8 0 0
BITMAP
006EE6
04913E
00000D
000049
0003A0
005A10
089000
7FFFFD
ENDCHAR
STARTCHAR three.cap
ENCODING -1
SWIDTH 600 0
DWIDTH 7 0
BBX 7 8 0 0
BITMAP
006DE900
01722D30
00015D10
006FB100
0002A800
00003C00
58119800
08EE9100
ENDCHAR
STARTCHAR four.cap
ENCODING -1
SWIDTH 600 0
DWIDTH 7 0
BBX 7 8 0 0
BITMAP
00004F20
0003AD00
003B3B00
02B14800
2B207600
AFFFFF60
0000C100
0001C000
ENDCHAR
STARTCHAR five.cap
ENCODING -1
SWIDTH 600 0
DWIDTH 7 0
BBX 7 8 0 0
BITMAP
00CFFF60
01C00000
04900000
08DED500
01104D00
00000D00
77119800
08EE8000
ENDCHAR
STARTCHAR six.cap
ENCODING -1
SWIDTH 600 0
DWIDTH 7 0
BBX 7 8 0 0
BITMAP
003BEC20
03D51460
0A500000
1D7EE600
3F713E00
3A000C00
0D316A00
04DEA100
ENDCHAR
STARTCHAR seven.cap
ENCODING -1
SWIDTH 600 0
DWIDTH 7 0
BBX 6 8 1 0
BITMAP
8FFFFD
0000A3
000A40
005900
00D100
059000
0B4000
1E0000
ENDCHAR
STARTCHAR eight.cap
ENCODING -1
SWIDTH 600 0
DWIDTH 7 0
BBX 7 8 0 0
BITMAP
006DEA00
01D21950
00A52C30
03DFF700
1D63B600
3A001D00
1D216B00
06DEB200
ENDCHAR
STARTCHAR nine.cap
ENCODING -1
SWIDTH 600 0
DWIDTH 7 0
BBX 7 8 0 0
BITMAP
008ED600
07912C30
0C100760
0B505E60
04DE9B40
00002D00
3613C500
1AFC5000
ENDCHAR
STARTCHAR zero.c
ENCODING -1
SWIDTH 600 0
DWIDTH 7 0
BBX 7 8 0 0
BITMAP
005DE800
04C21C40
0C920670
2C180670
49053850
3A008C10
1E319800
05DE8000
ENDCHAR
STARTCHAR one.c
ENCODING -1
SWIDTH 600 0
DWIDTH 7 0
BBX 6 8 0 0
BITMAP
0003D1
006CD0
0054A0
000770
000A40
000D10
001D00
7FFFFB
ENDCHAR
STARTCHAR at.case
ENCODING -1
SWIDTH 600 0
DWIDTH 7 0
BBX 7 8 0 0
BITMAP
003BEE50
04D511B0
1C129DD0
561B53A0
73582B70
652ED840
2C313300
05DEA100
ENDCHAR
STARTCHAR asterisk.a
ENCODING -1
SWIDTH 600 0
DWIDTH 7 0
BBX 6 5 1 4
BITMAP
000900
196A73
03ED30
03ED00
0A2830
ENDCHAR
STARTCHAR hyphen.a
ENCODING -1
SWIDTH 600 0
DWIDTH 7 0
BBX 5 1 1 3
BITMAP
8FFF70
ENDCHAR
STARTCHAR uni00AD.a
ENCODING -1
SWIDTH 600 0
DWIDTH 7 0
BBX 5 1 1 3
BITMAP
8FFF70
ENDCHAR
STARTCHAR uni2010.a
ENCODING -1
SWIDTH 600 0
DWIDTH 7 0
BBX 5 1 1 3
BITMAP
8FFF70
ENDCHAR
STARTCHAR dollar.a
ENCODING -1
SWIDTH 600 0
DWIDTH 7 0
BBX 7 12 0 -2
BITMAP
00000800
00001800
009EF600
03C2AD20
01B29100
002C5000
000C7000
03473A00
1DC26B00
02EFC300
02700000
06200000
ENDCHAR
STARTCHAR period.sups
ENCODING -1
SWIDTH 600 0
DWIDTH 7 0
BBX 2 1 3 5
BITMAP
92
ENDCHAR
STARTCHAR comma.sups
ENCODING -1
SWIDTH 600 0
DWIDTH 7 0
BBX 3 3 2 3
BITMAP
0940
0930
1900
ENDCHAR
STARTCHAR period.subs
ENCODING -1
SWIDTH 600 0
DWIDTH 7 0
BBX 2 1 2 -2
BITMAP
83
ENDCHAR
STARTCHAR comma.subs
ENCODING -1
SWIDTH 600 0
DWIDTH 7 0
BBX 3 3 1 -4
BITMAP
0840
0840
1A00
ENDCHAR
STARTCHAR zero.dnom
ENCODING -1
SWIDTH 600 0
DWIDTH 7 0
BBX 4 4 1 0
BITMAP
09E9
491C
753B
3DD3
ENDCHAR
STARTCHAR one.dnom
ENCODING -1
SWIDTH 600 0
DWIDTH 7 0
BBX 3 4 2 0
BITMAP
6E10
0B00
0A00
3800
ENDCHAR
STARTCHAR two.dnom
ENCODING -1
SWIDTH 600 0
DWIDTH 7 0
BBX 4 4 1 0
BITMAP
07E6
0445
0550
6FF8
ENDCHAR
STARTCHAR three.dnom
ENCODING -1
SWIDTH 600 0
DWIDTH 7 0
BBX 4 4 1 0
BITMAP
05E7
0349
25E3
1CE4
ENDCHAR
STARTCHAR four.dnom
ENCODING -1
SWIDTH 600 0
DWIDTH 7 0
BBX 4 4 1 0
BITMAP
0170
1854
7FFB
0090
ENDCHAR
STARTCHAR five.dnom
ENCODING -1
SWIDTH 600 0
DWIDTH 7 0
BBX 4 4 1 0
BITMAP
09FC
0CE5
3548
1DD3
ENDCHAR
STARTCHAR six.dnom
ENCODING -1
SWIDTH 600 0
DWIDTH 7 0
BBX 4 4 1 0
BITMAP
06EA
2DE8
4939
1CE4
ENDCHAR
STARTCHAR seven.dnom
ENCODING -1
SWIDTH 600 0
DWIDTH 7 0
BBX 4 4 2 0
BITMAP
DFF1
0550
2900
7400
ENDCHAR
STARTCHAR eight.dnom
ENCODING -1
SWIDTH 600 0
DWIDTH 7 0
BBX 4 4 1 0
BITMAP
07E8
0B3A
1BF4
3EE5
ENDCHAR
STARTCHAR nine.dnom
ENCODING -1
SWIDTH 600 0
DWIDTH 7 0
BBX 4 4 1 0
BITMAP
0AE6
2A3B
2ED9
4EB1
ENDCHAR
STARTCHAR parenleft.dnom
ENCODING -1
SWIDTH 600 0
DWIDTH 7 0
BBX 3 6 2 -1
BITMAP
0470
1B00
5600
8300
6500
1800
ENDCHAR
STARTCHAR parenright.dnom
ENCODING -1
SWIDTH 600 0
DWIDTH 7 0
BBX 3 6 2 -1
BITMAP
1800
0B00
0910
0B00
4800
A000
ENDCHAR
STARTCHAR period.dnom
ENCODING -1
SWIDTH 600 0
DWIDTH 7 0
BBX 2 1 2 0
BITMAP
65
ENDCHAR
STARTCHAR comma.dnom
ENCODING -1
SWIDTH 600 0
DWIDTH 7 0
BBX 2 3 2 -2
BITMAP
68
57
B1
ENDCHAR
STARTCHAR zero.numr
ENCODING -1
SWIDTH 600 0
DWIDTH 7 0
BBX 4 4 2 3
BITMAP
1BE5
952A
B167
6EB1
ENDCHAR
STARTCHAR one.numr
ENCODING -1
SWIDTH 600 0
DWIDTH 7 0
BBX 2 4 3 3
BITMAP
9C
19
46
74
ENDCHAR
STARTCHAR two.numr
ENCODING -1
SWIDTH 600 0
DWIDTH 7 0
BBX 4 4 2 3
BITMAP
0BE2
2382
1630
BFF3
ENDCHAR
STARTCHAR three.numr
ENCODING -1
SWIDTH 600 0
DWIDTH 7 0
BBX 4 4 2 3
BITMAP
09E3
0375
38D1
3ED1
ENDCHAR
STARTCHAR four.numr
ENCODING -1
SWIDTH 600 0
DWIDTH 7 0
BBX 4 4 2 3
BITMAP
0450
3690
BFF7
0090
ENDCHAR
STARTCHAR five.numr
ENCODING -1
SWIDTH 600 0
DWIDTH 7 0
BBX 4 4 2 3
BITMAP
0DF7
2EE2
4384
4EB0
ENDCHAR
STARTCHAR six.numr
ENCODING -1
SWIDTH 600 0
DWIDTH 7 0
BBX 4 4 2 3
BITMAP
09E6
6DE4
8575
3EC1
ENDCHAR
STARTCHAR seven.numr
ENCODING -1
SWIDTH 600 0
DWIDTH 7 0
BBX 4 4 2 3
BITMAP
2FFC
0082
0560
0B00
ENDCHAR
STARTCHAR eight.numr
ENCODING -1
SWIDTH 600 0
DWIDTH 7 0
BBX 4 4 2 3
BITMAP
0BE4
2B56
2EE1
7FD2
ENDCHAR
STARTCHAR nine.numr
ENCODING -1
SWIDTH 600 0
DWIDTH 7 0
BBX 4 4 2 3
BITMAP
2CD2
7677
6ED4
7E90
ENDCHAR
STARTCHAR parenleft.numr
ENCODING -1
SWIDTH 600 0
DWIDTH 7 0
BBX 3 6 3 2
BITMAP
0740
3900
A200
B000
A100
5500
ENDCHAR
STARTCHAR parenright.numr
ENCODING -1
SWIDTH 600 0
DWIDTH 7 0
BBX 3 6 2 2
BITMAP
0550
01A0
00B0
01A0
0940
3700
ENDCHAR
STARTCHAR period.numr
ENCODING -1
SWIDTH 600 0
DWIDTH 7 0
BBX 2 1 3 3
BITMAP
A2
ENDCHAR
STARTCHAR comma.numr
ENCODING -1
SWIDTH 600 0
DWIDTH 7 0
BBX 3 3 2 1
BITMAP
0A40
0930
4800
ENDCHAR
STARTCHAR ordfeminine.a
ENCODING -1
SWIDTH 600 0
DWIDTH 7 0
BBX 4 5 2 4
BITMAP
08E9
031C
166B
9259
8E96
ENDCHAR
STARTCHAR q.sups
ENCODING -1
SWIDTH 600 0
DWIDTH 7 0
BBX 5 7 2 2
BITMAP
1AEA10
871B00
B00A00
C25800
7EB500
008300
001000
ENDCHAR
STARTCHAR egrave.sups
ENCODING -1
SWIDTH 600 0
DWIDTH 7 0
BBX 4 7 2 4
BITMAP
0080
0042
09E8
581A
9FFE
9323
3DD3
ENDCHAR
STARTCHAR eacute.sups
ENCODING -1
SWIDTH 600 0
DWIDTH 7 0
BBX 4 7 2 4
BITMAP
0018
0061
09E8
581A
9FFE
9323
3DD3
ENDCHAR
STARTCHAR a.supa
ENCODING -1
SWIDTH 600 0
DWIDTH 7 0
BBX 4 5 2 4
BITMAP
08E9
031C
166B
9259
8E96
ENDCHAR
STARTCHAR g.supa
ENCODING -1
SWIDTH 600 0
DWIDTH 7 0
BBX 6 6 1 3
BITMAP
01BFF6
0583A0
03EE40
091000
09FFA0
1DFD50
ENDCHAR
STARTCHAR colon.sups
ENCODING -1
SWIDTH 600 0
DWIDTH 7 0
BBX 3 4 2 5
BITMAP
0750
0000
0000
1B00
ENDCHAR
STARTCHAR hyphen.sups
ENCODING -1
SWIDTH 600 0
DWIDTH 7 0
BBX 3 1 3 6
BITMAP
BF20
ENDCHAR
STARTCHAR endash.sups
ENCODING -1
SWIDTH 600 0
DWIDTH 7 0
BBX 4 1 2 6
BITMAP
6FFC
ENDCHAR
STARTCHAR emdash.sups
ENCODING -1
SWIDTH 600 0
DWIDTH 7 0
BBX 7 1 1 6
BITMAP
AFFFFF10
ENDCHAR
STARTCHAR slash.frac
ENCODING -1
SWIDTH 600 0
DWIDTH 7 0
BBX 9 7 -1 0
BITMAP
0000000920
0000008400
0000042000
0000000000
0034000000
0480000000
2900000000
ENDCHAR
STARTCHAR uni0300.cap
ENCODING -1
SWIDTH 600 0
DWIDTH 7 0
BBX 3 2 3 8
BITMAP
7500
1A20
ENDCHAR
STARTCHAR uni0301.cap
ENCODING -1
SWIDTH 600 0
DWIDTH 7 0
BBX 3 2 4 8
BITMAP
1A20
A400
ENDCHAR
STARTCHAR uni0302.cap
ENCODING -1
SWIDTH 600 0
DWIDTH 7 0
BBX 5 2 2 8
BITMAP
03CA00
191730
ENDCHAR
STARTCHAR uni0303.cap
ENCODING -1
SWIDTH 600 0
DWIDTH 7 0
BBX 5 3 2 8
BITMAP
010000
1DD2A0
546E50
ENDCHAR
STARTCHAR uni0304.cap
ENCODING -1
SWIDTH 600 0
DWIDTH 7 0
BBX 4 1 3 9
BITMAP
DFF3
ENDCHAR
STARTCHAR uni0305.cap
ENCODING -1
SWIDTH 600 0
DWIDTH 7 0
BBX 4 1 3 9
BITMAP
DFF3
ENDCHAR
STARTCHAR uni0306.c
ENCODING -1
SWIDTH 600 0
DWIDTH 7 0
BBX 4 2 2 7
BITMAP
1B1B
0AE5
ENDCHAR
STARTCHAR uni0306.cap
ENCODING -1
SWIDTH 600 0
DWIDTH 7 0
BBX 4 2 3 8
BITMAP
A166
8EA0
ENDCHAR
STARTCHAR uni0306.ccap
ENCODING -1
SWIDTH 600 0
DWIDTH 7 0
BBX 4 2 3 8
BITMAP
C195
7E90
ENDCHAR
STARTCHAR uni0307.cap
ENCODING -1
SWIDTH 600 0
DWIDTH 7 0
BBX 2 1 4 9
BITMAP
B3
ENDCHAR
STARTCHAR uni0308.cap
ENCODING -1
SWIDTH 600 0
DWIDTH 7 0
BBX 4 1 3 9
BITMAP
B083
ENDCHAR
STARTCHAR uni0309.cap
ENCODING -1
SWIDTH 600 0
DWIDTH 7 0
BBX 3 3 3 8
BITMAP
1E30
0870
1C10
ENDCHAR
STARTCHAR uni0310.cap
ENCODING -1
SWIDTH 600 0
DWIDTH 7 0
BBX 4 3 3 8
BITMAP
0760
B267
7EA1
ENDCHAR
STARTCHAR uni030A.cap
ENCODING -1
SWIDTH 600 0
DWIDTH 7 0
BBX 3 3 3 8
BITMAP
1DA0
55A0
3E70
ENDCHAR
STARTCHAR uni030B.cap
ENCODING -1
SWIDTH 600 0
DWIDTH 7 0
BBX 5 2 3 8
BITMAP
092A10
556400
ENDCHAR
STARTCHAR uni030C.cap
ENCODING -1
SWIDTH 600 0
DWIDTH 7 0
BBX 4 2 3 8
BITMAP
9156
4D90
ENDCHAR
STARTCHAR uni030C.a
ENCODING -1
SWIDTH 600 0
DWIDTH 7 0
BBX 3 3 3 7
BITMAP
0C10
0B00
3700
ENDCHAR
STARTCHAR uni030F.cap
ENCODING -1
SWIDTH 600 0
DWIDTH 7 0
BBX 4 2 2 8
BITMAP
7483
1828
ENDCHAR
STARTCHAR uni0311.cap
ENCODING -1
SWIDTH 600 0
DWIDTH 7 0
BBX 5 2 2 8
BITMAP
05EC10
1B1840
ENDCHAR
STARTCHAR uni0326.a
ENCODING -1
SWIDTH 600 0
DWIDTH 7 0
BBX 3 3 3 6
BITMAP
0960
5700
1400
ENDCHAR
STARTCHAR uni0327.cap
ENCODING -1
SWIDTH 600 0
DWIDTH 7 0
BBX 3 4 1 -4
BITMAP
0810
0E40
0950
BA00
ENDCHAR
STARTCHAR uni0328.cap
ENCODING -1
SWIDTH 600 0
DWIDTH 7 0
BBX 3 3 1 -3
BITMAP
0810
6510
5E60
ENDCHAR
STARTCHAR uni0342.cap
ENCODING -1
SWIDTH 600 0
DWIDTH 7 0
BBX 5 3 2 8
BITMAP
010000
1DD2A0
546E50
ENDCHAR
STARTCHAR uni03080301
ENCODING -1
SWIDTH 600 0
DWIDTH 7 0
BBX 4 3 2 7
BITMAP
0019
0072
290B
ENDCHAR
STARTCHAR uni03080301.cap
ENCODING -1
SWIDTH 600 0
DWIDTH 7 0
BBX 4 3 3 9
BITMAP
0091
0650
B092
ENDCHAR
STARTCHAR uni03080300
ENCODING -1
SWIDTH 600 0
DWIDTH 7 0
BBX 4 3 2 7
BITMAP
0270
0090
290B
ENDCHAR
STARTCHAR uni03080300.cap
ENCODING -1
SWIDTH 600 0
DWIDTH 7 0
BBX 4 3 3 9
BITMAP
1900
0810
B092
ENDCHAR
STARTCHAR uni03080303
ENCODING -1
SWIDTH 600 0
DWIDTH 7 0
BBX 5 4 2 7
BITMAP
0AB360
277D20
000000
290B00
ENDCHAR
STARTCHAR uni03080304
ENCODING -1
SWIDTH 600 0
DWIDTH 7 0
BBX 5 3 2 7
BITMAP
0CFF40
000000
290B00
ENDCHAR
STARTCHAR uni03080304.cap
ENCODING -1
SWIDTH 600 0
DWIDTH 7 0
BBX 4 3 3 9
BITMAP
9FF7
0000
B092
ENDCHAR
STARTCHAR uni0308030C
ENCODING -1
SWIDTH 600 0
DWIDTH 7 0
BBX 5 3 2 7
BITMAP
058710
000000
290B00
ENDCHAR
STARTCHAR uni0308030C.cap
ENCODING -1
SWIDTH 600 0
DWIDTH 7 0
BBX 4 2 3 9
BITMAP
3983
B092
ENDCHAR
STARTCHAR uni03020301
ENCODING -1
SWIDTH 600 0
DWIDTH 7 0
BBX 6 3 2 7
BITMAP
000082
06E760
291900
ENDCHAR
STARTCHAR uni03020301.cap
ENCODING -1
SWIDTH 600 0
DWIDTH 7 0
BBX 5 1 3 9
BITMAP
589720
ENDCHAR
STARTCHAR uni03020300
ENCODING -1
SWIDTH 600 0
DWIDTH 7 0
BBX 5 3 1 7
BITMAP
380000
097E30
029190
ENDCHAR
STARTCHAR uni03020300.cap
ENCODING -1
SWIDTH 600 0
DWIDTH 7 0
BBX 4 1 2 9
BITMAP
4A89
ENDCHAR
STARTCHAR uni03020309
ENCODING -1
SWIDTH 600 0
DWIDTH 7 0
BBX 5 3 2 7
BITMAP
0005B0
06E4C0
281C80
ENDCHAR
STARTCHAR uni03020309.cap
ENCODING -1
SWIDTH 600 0
DWIDTH 7 0
BBX 5 3 3 9
BITMAP
001D20
000940
589C00
ENDCHAR
STARTCHAR uni03020303
ENCODING -1
SWIDTH 600 0
DWIDTH 7 0
BBX 5 3 2 7
BITMAP
08A430
098D00
178600
ENDCHAR
STARTCHAR uni03020303.cap
ENCODING -1
SWIDTH 600 0
DWIDTH 7 0
BBX 4 3 3 9
BITMAP
6D38
84E5
5890
ENDCHAR
STARTCHAR uni03060301
ENCODING -1
SWIDTH 600 0
DWIDTH 7 0
BBX 5 4 2 7
BITMAP
001900
008300
471840
1CE800
ENDCHAR
STARTCHAR uni03060301.cap
ENCODING -1
SWIDTH 600 0
DWIDTH 7 0
BBX 4 4 3 8
BITMAP
00A1
0650
B166
7EA0
ENDCHAR
STARTCHAR uni03060300
ENCODING -1
SWIDTH 600 0
DWIDTH 7 0
BBX 5 4 2 7
BITMAP
037000
009000
471840
1CE800
ENDCHAR
STARTCHAR uni03060300.cap
ENCODING -1
SWIDTH 600 0
DWIDTH 7 0
BBX 4 4 3 8
BITMAP
1A00
0720
B166
7EA0
ENDCHAR
STARTCHAR uni03060309
ENCODING -1
SWIDTH 600 0
DWIDTH 7 0
BBX 5 5 2 7
BITMAP
00C400
005800
00B200
471840
1CE800
ENDCHAR
STARTCHAR uni03060309.cap
ENCODING -1
SWIDTH 600 0
DWIDTH 7 0
BBX 4 5 3 8
BITMAP
0970
02B0
0740
B166
7EA0
ENDCHAR
STARTCHAR uni03060303
ENCODING -1
SWIDTH 600 0
DWIDTH 7 0
BBX 5 3 2 7
BITMAP
09A540
4F9F20
0BE600
ENDCHAR
STARTCHAR uni03060303.cap
ENCODING -1
SWIDTH 600 0
DWIDTH 7 0
BBX 4 4 3 8
BITMAP
6D38
94E5
B175
7EA0
ENDCHAR
STARTCHAR uni03020306
ENCODING -1
SWIDTH 600 0
DWIDTH 7 0
BBX 5 3 2 7
BITMAP
087910
003000
188700
ENDCHAR
STARTCHAR uni03040301
ENCODING -1
SWIDTH 600 0
DWIDTH 7 0
BBX 4 4 2 7
BITMAP
0019
0072
0000
3FFD
ENDCHAR
STARTCHAR uni03040301.cap
ENCODING -1
SWIDTH 600 0
DWIDTH 7 0
BBX 4 4 3 9
BITMAP
0092
0560
0000
DFF3
ENDCHAR
STARTCHAR space.frac
ENCODING -1
SWIDTH 600 0
DWIDTH 7 0
BBX 1 1 0 0
BITMAP
00
ENDCHAR
STARTCHAR nbspace.frac
ENCODING -1
SWIDTH 600 0
DWIDTH 7 0
BBX 1 1 0 0
BITMAP
00
ENDCHAR
STARTCHAR u1F3B5_uniFE0F
ENCODING -1
SWIDTH 600 0
DWIDTH 7 0
BBX 6 9 1 0
BITMAP
002100
007C20
007AD0
007374
007353
007320
007300
9EF200
CE8000
ENDCHAR
STARTCHAR u1F3B6_uniFE0F
ENCODING -1
SWIDTH 600 0
DWIDTH 7 0
BBX 8 9 0 0
BITMAP
001469B1
006FFDE1
00661081
00640081
00640081
00640081
00649EF1
7EE2DEA0
BE800000
ENDCHAR
STARTCHAR uni2611_uniFE0F
ENCODING -1
SWIDTH 600 0
DWIDTH 7 0
BBX 10 10 -1 0
BITMAP
0000000031
00000002C2
2EFFFFFF80
4300006D80
430002B680
4365093680
430B2A0680
4305D40680
4300300680
4FFFFFFF40
ENDCHAR
STARTCHAR uni2713_uniFE0F
ENCODING -1
SWIDTH 600 0
DWIDTH 7 0
BBX 8 9 0 0
BITMAP
00000051
000005B0
00002C10
0000A300
00048000
B10B1000
58480000
0BA20000
07D00000
ENDCHAR
STARTCHAR uni2665_uniFE0F
ENCODING -1
SWIDTH 600 0
DWIDTH 7 0
BBX 8 9 0 0
BITMAP
4EC2BE60
BFFDFFE0
DFFFFFF1
CFFFFFF0
7FFFFFA0
2EFFFF40
07FFFA00
00AFD100
001B2000
ENDCHAR
STARTCHAR uni2663_uniFE0F
ENCODING -1
SWIDTH 600 0
DWIDTH 7 0
BBX 7 9 0 0
BITMAP
009EB100
02FFF500
00EFF200
3ACFDA50
CFFFFFF0
BFFEFFE0
286D6940
019FB200
0BFFFE00
ENDCHAR
STARTCHAR uni2666_uniFE0F
ENCODING -1
SWIDTH 600 0
DWIDTH 7 0
BBX 7 9 0 0
BITMAP
000A2000
009FC000
06FFF900
3FFFFF60
BFFFFFE0
3FFFFF60
06FFF900
009FC000
000A2000
ENDCHAR
STARTCHAR uni2660_uniFE0F
ENCODING -1
SWIDTH 600 0
DWIDTH 7 0
BBX 7 9 0 0
BITMAP
001B3000
01CFE200
0BFFFD10
7FFFFFA0
CFFFFFF0
CFFDEFF0
386E6840
019FB200
0BFFFE00
ENDCHAR
STARTCHAR uni263A_uniFE0F
ENCODING -1
SWIDTH 600 0
DWIDTH 7 0
BBX 7 8 0 0
BITMAP
00475000
05503700
14666440
B0B6B3B0
A46055A0
64554290
05503700
00465000
ENDCHAR
STARTCHAR uni263B_uniFE0F
ENCODING -1
SWIDTH 600 0
DWIDTH 7 0
BBX 7 6 0 1
BITMAP
04CED600
3F3E3E60
8F8E7EB0
8D8EAAB0
3F614E60
04CED600
ENDCHAR
STARTCHAR uni2764_uniFE0F
ENCODING -1
SWIDTH 600 0
DWIDTH 7 0
BBX 9 8 -1 0
BITMAP
2BEB1AEC30
AFFFCFFFD0
CFFFFFFFF0
BFFFFFFFE0
4FFFFFFF70
05EFFFF700
002BFD3000
0000A10000
ENDCHAR
STARTCHAR uni2615_uniFE0F
ENCODING -1
SWIDTH 600 0
DWIDTH 7 0
BBX 9 8 -1 0
BITMAP
04BEEA2000
2C41138000
57CEE85300
56CFEA8430
34000025A0
190001EC30
08812A4000
009EE60000
ENDCHAR
STARTCHAR u1F4A9_uniFE0F
ENCODING -1
SWIDTH 600 0
DWIDTH 7 0
BBX 8 8 0 0
BITMAP
018DC200
04FFF700
2CFFFD40
5D9B9B80
5FFFFF80
EF000CF2
EF715FF2
5CEFFD70
ENDCHAR
STARTCHAR u1F916_uniFE0F
ENCODING -1
SWIDTH 600 0
DWIDTH 7 0
BBX 9 8 -1 0
BITMAP
005CED7000
04A3029700
0A3CFD5A10
4B88A89970
4C6EFE8970
0B20A01B20
02C312A500
004CED5000
ENDCHAR
STARTCHAR u1F512_uniFE0F
ENCODING -1
SWIDTH 600 0
DWIDTH 7 0
BBX 7 11 0 -1
BITMAP
00AEC100
04A17700
06602900
06502900
5FFFFF80
7FC1AFA0
7FA07FA0
7FF3EFA0
7FF2EFA0
7FF1DFA0
5FFFFF80
ENDCHAR
ENDFONT
